<svg xmlns="http://www.w3.org/2000/svg" xmlns:xlink="http://www.w3.org/1999/xlink" width="188" height="188" viewBox="0 0 188 188"><defs><clipPath id="a"><rect width="162.492" height="162.441" transform="translate(0 0)" fill="none"/></clipPath></defs><g transform="translate(5935 3271.89)"><path d="M0,0H188V188H0Z" transform="translate(-5935 -3271.89)" fill="#fff"/><g transform="translate(-5922.216 -3249.113)" opacity="0.499"><g transform="translate(0 0.003)" clip-path="url(#a)"><path d="M1045.373,54.692,991.186,72.3A24.332,24.332,0,0,0,970.3,57.094V.154A80.542,80.542,0,0,1,1015.689,15.2l.518.377a82.067,82.067,0,0,1,18,17.9,80.616,80.616,0,0,1,11.167,21.214" transform="translate(-887.359 -0.141)" fill="#fda623"/><path d="M499.157,1236.523A80.882,80.882,0,0,1,453.086,1251c-.058-.008-.118-.015-.179-.018h0c-.052,0-.1-.007-.158-.007a80.636,80.636,0,0,1-46.349-14.6l33.467-46.07a24.336,24.336,0,0,0,25.819.166Z" transform="translate(-371.663 -1088.559)" fill="#4fc6b7"/><path d="M1198.113,699.417a81.118,81.118,0,0,1-32.232,63.991l-33.465-46.1a24.355,24.355,0,0,0,8.048-24.608l54.174-17.6a81.121,81.121,0,0,1,3.47,23.521v.8Z" transform="translate(-1035.621 -617.391)" fill="#c63894"/><path d="M127.846,0V56.951A24.332,24.332,0,0,0,106.91,72.123l-54.178-17.6A81.517,81.517,0,0,1,77.457,18.843q1.962-1.64,4.029-3.158l.012-.006.145-.105q2.1-1.534,4.284-2.926A80.722,80.722,0,0,1,127.846,0" transform="translate(-48.225 -0.003)" fill="#fd5807"/><path d="M65.541,716.8,32.066,762.874A81.412,81.412,0,0,1,5.834,728.433q-1-2.507-1.841-5.084-.788-2.425-1.419-4.892a81.353,81.353,0,0,1-2.53-20.134,1.812,1.812,0,0,0-.045-.4,81.087,81.087,0,0,1,3.473-23.231l54.186,17.606A24.359,24.359,0,0,0,65.541,716.8" transform="translate(0 -617.017)" fill="#3886ce"/></g></g><path d="M16.366,13V4.469h2.52a3.952,3.952,0,0,1,2.007.5A3.436,3.436,0,0,1,22.249,6.4a4.538,4.538,0,0,1,.48,2.121v.428a4.519,4.519,0,0,1-.483,2.133A3.4,3.4,0,0,1,20.869,12.5a4.135,4.135,0,0,1-2.048.5Zm1.482-7.336v6.152h.967a2.226,2.226,0,0,0,1.79-.729,3.178,3.178,0,0,0,.636-2.095V8.518a3.261,3.261,0,0,0-.6-2.121,2.14,2.14,0,0,0-1.752-.732Zm9.012,7.453a2.946,2.946,0,0,1-2.194-.853,3.093,3.093,0,0,1-.841-2.271V9.818a3.8,3.8,0,0,1,.366-1.7A2.787,2.787,0,0,1,25.22,6.959,2.719,2.719,0,0,1,26.7,6.543a2.488,2.488,0,0,1,2,.826A3.494,3.494,0,0,1,29.4,9.707v.574H25.261a1.9,1.9,0,0,0,.524,1.242,1.574,1.574,0,0,0,1.157.457,1.928,1.928,0,0,0,1.594-.791l.768.732a2.563,2.563,0,0,1-1.017.882A3.183,3.183,0,0,1,26.86,13.117Zm-.17-5.432a1.2,1.2,0,0,0-.946.41,2.126,2.126,0,0,0-.46,1.143H28V9.133a1.731,1.731,0,0,0-.381-1.081A1.19,1.19,0,0,0,26.69,7.686ZM31.847,6.66l.041.662a2.281,2.281,0,0,1,1.828-.779,1.753,1.753,0,0,1,1.74.973A2.249,2.249,0,0,1,37.4,6.543a1.977,1.977,0,0,1,1.562.58,2.554,2.554,0,0,1,.524,1.711V13H38.063V8.875A1.261,1.261,0,0,0,37.8,7.99a1.154,1.154,0,0,0-.873-.281,1.185,1.185,0,0,0-.794.261,1.375,1.375,0,0,0-.431.683L35.708,13H34.284V8.828a1.016,1.016,0,0,0-1.143-1.119,1.253,1.253,0,0,0-1.213.7V13H30.5V6.66ZM44.737,13a2.2,2.2,0,0,1-.164-.592,2.4,2.4,0,0,1-3.223.164,1.743,1.743,0,0,1-.6-1.348A1.8,1.8,0,0,1,41.5,9.669a3.649,3.649,0,0,1,2.153-.542h.873V8.711a1.11,1.11,0,0,0-.275-.788,1.092,1.092,0,0,0-.838-.3,1.254,1.254,0,0,0-.8.243.753.753,0,0,0-.311.618H40.882a1.58,1.58,0,0,1,.346-.976,2.3,2.3,0,0,1,.94-.712A3.3,3.3,0,0,1,43.5,6.543a2.66,2.66,0,0,1,1.775.56,2,2,0,0,1,.68,1.573v2.859a3.241,3.241,0,0,0,.24,1.365V13Zm-1.564-1.025a1.62,1.62,0,0,0,.794-.205,1.37,1.37,0,0,0,.56-.551v-1.2h-.768a2.1,2.1,0,0,0-1.189.275.892.892,0,0,0-.4.779.832.832,0,0,0,.272.653A1.055,1.055,0,0,0,43.173,11.975Zm5.59-5.314.041.732a2.28,2.28,0,0,1,1.846-.85q1.98,0,2.016,2.268V13H51.241V8.893A1.306,1.306,0,0,0,50.98,8a1.1,1.1,0,0,0-.853-.29,1.372,1.372,0,0,0-1.283.779V13H47.421V6.66Zm5.086,3.123a3.769,3.769,0,0,1,.68-2.353,2.178,2.178,0,0,1,1.822-.888,2.069,2.069,0,0,1,1.629.7V4H59.4v9H58.114l-.07-.656a2.1,2.1,0,0,1-1.705.773,2.166,2.166,0,0,1-1.8-.9A3.907,3.907,0,0,1,53.849,9.783Zm1.424.123a2.639,2.639,0,0,0,.372,1.509,1.207,1.207,0,0,0,1.058.542,1.345,1.345,0,0,0,1.277-.779V8.471a1.324,1.324,0,0,0-1.266-.762,1.216,1.216,0,0,0-1.066.548A2.939,2.939,0,0,0,55.272,9.906ZM64.677,13a2.2,2.2,0,0,1-.164-.592,2.4,2.4,0,0,1-3.223.164,1.743,1.743,0,0,1-.6-1.348,1.8,1.8,0,0,1,.753-1.556,3.649,3.649,0,0,1,2.153-.542h.873V8.711a1.11,1.11,0,0,0-.275-.788,1.092,1.092,0,0,0-.838-.3,1.254,1.254,0,0,0-.8.243.753.753,0,0,0-.311.618H60.821a1.58,1.58,0,0,1,.346-.976,2.3,2.3,0,0,1,.94-.712,3.3,3.3,0,0,1,1.327-.258,2.66,2.66,0,0,1,1.775.56,2,2,0,0,1,.68,1.573v2.859a3.241,3.241,0,0,0,.24,1.365V13Zm-1.564-1.025a1.62,1.62,0,0,0,.794-.205,1.37,1.37,0,0,0,.56-.551v-1.2H63.7a2.1,2.1,0,0,0-1.189.275.892.892,0,0,0-.4.779.832.832,0,0,0,.272.653A1.055,1.055,0,0,0,63.112,11.975Zm9.475-1.014,1.289-4.3h1.518l-2.52,7.3a2.048,2.048,0,0,1-1.969,1.6,2.538,2.538,0,0,1-.686-.106V14.348l.27.018a1.386,1.386,0,0,0,.812-.2,1.3,1.3,0,0,0,.431-.659l.205-.544L69.71,6.66h1.535Zm7.951-4.3.041.662a2.281,2.281,0,0,1,1.828-.779,1.753,1.753,0,0,1,1.74.973,2.249,2.249,0,0,1,1.945-.973,1.977,1.977,0,0,1,1.562.58,2.554,2.554,0,0,1,.524,1.711V13H86.755V8.875a1.261,1.261,0,0,0-.264-.885,1.154,1.154,0,0,0-.873-.281,1.185,1.185,0,0,0-.794.261,1.375,1.375,0,0,0-.431.683L84.4,13H82.976V8.828a1.016,1.016,0,0,0-1.143-1.119,1.253,1.253,0,0,0-1.213.7V13H79.2V6.66Zm11.895,6.457a2.946,2.946,0,0,1-2.194-.853A3.093,3.093,0,0,1,89.4,9.994V9.818a3.8,3.8,0,0,1,.366-1.7,2.787,2.787,0,0,1,1.028-1.163,2.719,2.719,0,0,1,1.477-.416,2.488,2.488,0,0,1,2,.826,3.494,3.494,0,0,1,.706,2.338v.574H90.833a1.9,1.9,0,0,0,.524,1.242,1.574,1.574,0,0,0,1.157.457,1.928,1.928,0,0,0,1.594-.791l.768.732a2.563,2.563,0,0,1-1.017.882A3.183,3.183,0,0,1,92.433,13.117Zm-.17-5.432a1.2,1.2,0,0,0-.946.41,2.126,2.126,0,0,0-.46,1.143h2.713V9.133a1.731,1.731,0,0,0-.381-1.081A1.19,1.19,0,0,0,92.263,7.686Zm7.137.275a3.523,3.523,0,0,0-.58-.047,1.306,1.306,0,0,0-1.318.75V13H96.077V6.66h1.359l.035.709a1.6,1.6,0,0,1,1.43-.826,1.333,1.333,0,0,1,.5.082Zm3.393,4.02a1.287,1.287,0,0,0,.885-.311,1.061,1.061,0,0,0,.375-.768h1.342a2.091,2.091,0,0,1-.369,1.1,2.421,2.421,0,0,1-.937.812,2.794,2.794,0,0,1-1.277.3,2.7,2.7,0,0,1-2.109-.861,3.416,3.416,0,0,1-.779-2.379V9.73a3.359,3.359,0,0,1,.773-2.317,2.678,2.678,0,0,1,2.109-.87,2.6,2.6,0,0,1,1.843.659,2.361,2.361,0,0,1,.747,1.731h-1.342a1.3,1.3,0,0,0-.372-.9,1.2,1.2,0,0,0-.888-.352,1.253,1.253,0,0,0-1.066.5,2.556,2.556,0,0,0-.381,1.521v.229a2.6,2.6,0,0,0,.372,1.538A1.252,1.252,0,0,0,102.792,11.98ZM110.257,13a2.2,2.2,0,0,1-.164-.592,2.4,2.4,0,0,1-3.223.164,1.743,1.743,0,0,1-.6-1.348,1.8,1.8,0,0,1,.753-1.556,3.649,3.649,0,0,1,2.153-.542h.873V8.711a1.11,1.11,0,0,0-.275-.788,1.092,1.092,0,0,0-.838-.3,1.254,1.254,0,0,0-.8.243.753.753,0,0,0-.311.618H106.4a1.58,1.58,0,0,1,.346-.976,2.3,2.3,0,0,1,.94-.712,3.3,3.3,0,0,1,1.327-.258,2.66,2.66,0,0,1,1.775.56,2,2,0,0,1,.68,1.573v2.859a3.241,3.241,0,0,0,.24,1.365V13Zm-1.564-1.025a1.62,1.62,0,0,0,.794-.205,1.37,1.37,0,0,0,.56-.551v-1.2h-.768a2.1,2.1,0,0,0-1.189.275.892.892,0,0,0-.4.779.832.832,0,0,0,.272.653A1.055,1.055,0,0,0,108.692,11.975Zm4-2.191a3.769,3.769,0,0,1,.68-2.353,2.178,2.178,0,0,1,1.822-.888,2.069,2.069,0,0,1,1.629.7V4h1.424v9H116.96l-.07-.656a2.1,2.1,0,0,1-1.705.773,2.166,2.166,0,0,1-1.8-.9A3.907,3.907,0,0,1,112.694,9.783Zm1.424.123a2.639,2.639,0,0,0,.372,1.509,1.207,1.207,0,0,0,1.058.542,1.345,1.345,0,0,0,1.277-.779V8.471a1.324,1.324,0,0,0-1.266-.762,1.216,1.216,0,0,0-1.066.548A2.939,2.939,0,0,0,114.118,9.906Zm5.35-.135a3.738,3.738,0,0,1,.369-1.679,2.7,2.7,0,0,1,1.037-1.148,2.922,2.922,0,0,1,1.535-.4,2.769,2.769,0,0,1,2.083.826,3.249,3.249,0,0,1,.864,2.191l.006.334A3.772,3.772,0,0,1,125,11.57a2.664,2.664,0,0,1-1.031,1.143,2.944,2.944,0,0,1-1.55.4,2.75,2.75,0,0,1-2.147-.894,3.422,3.422,0,0,1-.806-2.382Zm1.424.123a2.555,2.555,0,0,0,.4,1.532,1.314,1.314,0,0,0,1.125.554,1.3,1.3,0,0,0,1.122-.562,2.822,2.822,0,0,0,.4-1.646,2.522,2.522,0,0,0-.413-1.523,1.392,1.392,0,0,0-2.229-.009A2.768,2.768,0,0,0,120.892,9.895Zm8.4-.123a3.738,3.738,0,0,1,.369-1.679,2.7,2.7,0,0,1,1.037-1.148,2.922,2.922,0,0,1,1.535-.4,2.769,2.769,0,0,1,2.083.826,3.249,3.249,0,0,1,.864,2.191l.006.334a3.772,3.772,0,0,1-.36,1.676,2.664,2.664,0,0,1-1.031,1.143,2.944,2.944,0,0,1-1.55.4,2.75,2.75,0,0,1-2.147-.894,3.422,3.422,0,0,1-.806-2.382Zm1.424.123a2.555,2.555,0,0,0,.4,1.532,1.314,1.314,0,0,0,1.125.554,1.3,1.3,0,0,0,1.122-.562,2.822,2.822,0,0,0,.4-1.646,2.522,2.522,0,0,0-.413-1.523,1.392,1.392,0,0,0-2.229-.009A2.768,2.768,0,0,0,130.712,9.895Zm11.238,0a3.808,3.808,0,0,1-.659,2.35,2.147,2.147,0,0,1-1.813.873,2.068,2.068,0,0,1-1.734-.8l-.07.686h-1.289V4h1.424V7.27a2.061,2.061,0,0,1,1.658-.727,2.172,2.172,0,0,1,1.822.861,3.871,3.871,0,0,1,.662,2.408Zm-1.424-.123a2.692,2.692,0,0,0-.363-1.547,1.21,1.21,0,0,0-1.055-.516,1.322,1.322,0,0,0-1.3.809v2.613a1.336,1.336,0,0,0,1.313.826,1.2,1.2,0,0,0,1.031-.5,2.608,2.608,0,0,0,.375-1.506Zm4.1-3.111v6.9a2.086,2.086,0,0,1-.483,1.485,1.853,1.853,0,0,1-1.415.513,2.846,2.846,0,0,1-.756-.1V14.336a2.194,2.194,0,0,0,.5.053q.709,0,.727-.773V6.66Zm-1.547-1.646a.756.756,0,0,1,.208-.545.786.786,0,0,1,.595-.217.8.8,0,0,1,.6.217.75.75,0,0,1,.211.545.733.733,0,0,1-.211.536.8.8,0,0,1-.6.214.792.792,0,0,1-.595-.214A.738.738,0,0,1,143.081,5.014Zm5.859,8.1a2.946,2.946,0,0,1-2.194-.853,3.093,3.093,0,0,1-.841-2.271V9.818a3.8,3.8,0,0,1,.366-1.7A2.787,2.787,0,0,1,147.3,6.959a2.719,2.719,0,0,1,1.477-.416,2.488,2.488,0,0,1,2,.826,3.494,3.494,0,0,1,.706,2.338v.574h-4.143a1.9,1.9,0,0,0,.524,1.242,1.574,1.574,0,0,0,1.157.457,1.928,1.928,0,0,0,1.594-.791l.768.732a2.563,2.563,0,0,1-1.017.882A3.183,3.183,0,0,1,148.94,13.117Zm-.17-5.432a1.2,1.2,0,0,0-.946.41,2.126,2.126,0,0,0-.46,1.143h2.713V9.133a1.731,1.731,0,0,0-.381-1.081A1.19,1.19,0,0,0,148.771,7.686Zm5.6-2.566V6.66h1.119V7.715h-1.119v3.539a.779.779,0,0,0,.144.524.666.666,0,0,0,.513.161,2.193,2.193,0,0,0,.5-.059v1.1a3.507,3.507,0,0,1-.937.135q-1.641,0-1.641-1.811V7.715h-1.043V6.66h1.043V5.119ZM158.093,13h-1.424V6.66h1.424Zm-1.512-7.986a.756.756,0,0,1,.208-.545.786.786,0,0,1,.595-.217.8.8,0,0,1,.6.217.75.75,0,0,1,.211.545.733.733,0,0,1-.211.536.8.8,0,0,1-.6.214.792.792,0,0,1-.595-.214A.738.738,0,0,1,156.581,5.014Zm5.3,6.182L163.22,6.66h1.471l-2.2,6.34h-1.236l-2.215-6.34h1.477Zm3.346-1.424a3.738,3.738,0,0,1,.369-1.679,2.7,2.7,0,0,1,1.037-1.148,2.922,2.922,0,0,1,1.535-.4,2.769,2.769,0,0,1,2.083.826,3.249,3.249,0,0,1,.864,2.191l.006.334a3.772,3.772,0,0,1-.36,1.676,2.664,2.664,0,0,1-1.031,1.143,2.944,2.944,0,0,1-1.55.4,2.75,2.75,0,0,1-2.147-.894,3.422,3.422,0,0,1-.806-2.382Zm1.424.123a2.555,2.555,0,0,0,.4,1.532,1.314,1.314,0,0,0,1.125.554,1.3,1.3,0,0,0,1.122-.562,2.822,2.822,0,0,0,.4-1.646,2.522,2.522,0,0,0-.413-1.523,1.392,1.392,0,0,0-2.229-.009A2.768,2.768,0,0,0,166.647,9.895Z" transform="translate(-5935 -3266.782)" fill="#12263f"/><path d="M8.974,7.744a2.616,2.616,0,0,1-.833,1.741,2.728,2.728,0,0,1-1.863.613,2.505,2.505,0,0,1-2.019-.9A3.634,3.634,0,0,1,3.5,6.777V6.094a4.051,4.051,0,0,1,.354-1.743,2.644,2.644,0,0,1,1-1.155,2.794,2.794,0,0,1,1.5-.4,2.569,2.569,0,0,1,1.816.632,2.647,2.647,0,0,1,.8,1.75H8.032A2.043,2.043,0,0,0,7.5,3.942a1.6,1.6,0,0,0-1.14-.382,1.677,1.677,0,0,0-1.409.665,3.051,3.051,0,0,0-.51,1.891V6.8a3.136,3.136,0,0,0,.483,1.842,1.562,1.562,0,0,0,1.353.684,1.8,1.8,0,0,0,1.2-.354,1.964,1.964,0,0,0,.554-1.233Zm.9-.435a3.121,3.121,0,0,1,.305-1.4,2.277,2.277,0,0,1,.85-.957,2.313,2.313,0,0,1,1.243-.337,2.228,2.228,0,0,1,1.746.747,2.874,2.874,0,0,1,.667,1.987v.063a3.148,3.148,0,0,1-.3,1.384,2.243,2.243,0,0,1-.845.955,2.339,2.339,0,0,1-1.262.342,2.222,2.222,0,0,1-1.741-.747,2.86,2.86,0,0,1-.667-1.978Zm.908.107a2.26,2.26,0,0,0,.408,1.411,1.382,1.382,0,0,0,2.185-.007,2.472,2.472,0,0,0,.405-1.511A2.256,2.256,0,0,0,13.366,5.9a1.312,1.312,0,0,0-1.1-.54,1.3,1.3,0,0,0-1.079.532A2.453,2.453,0,0,0,10.781,7.417Zm5.884-2.7.024.586a1.951,1.951,0,0,1,1.567-.684,1.51,1.51,0,0,1,1.509.85,2,2,0,0,1,.686-.615,2.026,2.026,0,0,1,1-.234q1.738,0,1.768,1.841V10h-.9V6.514a1.213,1.213,0,0,0-.259-.847,1.14,1.14,0,0,0-.869-.281,1.2,1.2,0,0,0-.835.3,1.218,1.218,0,0,0-.386.808V10h-.908V6.538a1.008,1.008,0,0,0-1.128-1.152,1.209,1.209,0,0,0-1.216.757V10h-.9V4.717Zm12.378,2.7a3.163,3.163,0,0,1-.552,1.943A1.768,1.768,0,0,1,27,10.1a1.938,1.938,0,0,1-1.514-.61v2.544h-.9V4.717H25.4l.044.586a1.861,1.861,0,0,1,1.533-.684,1.8,1.8,0,0,1,1.506.718,3.2,3.2,0,0,1,.554,2Zm-.9-.1A2.334,2.334,0,0,0,27.758,5.9a1.227,1.227,0,0,0-1.045-.518,1.328,1.328,0,0,0-1.23.728V8.638a1.33,1.33,0,0,0,1.24.723,1.221,1.221,0,0,0,1.033-.515A2.548,2.548,0,0,0,28.139,7.314ZM32.382,10.1a2.308,2.308,0,0,1-1.748-.706A2.619,2.619,0,0,1,29.96,7.5V7.339a3.17,3.17,0,0,1,.3-1.4,2.343,2.343,0,0,1,.84-.967,2.112,2.112,0,0,1,1.169-.349,1.979,1.979,0,0,1,1.6.679,2.939,2.939,0,0,1,.571,1.943v.376H30.864a1.878,1.878,0,0,0,.457,1.262,1.435,1.435,0,0,0,1.111.481,1.573,1.573,0,0,0,.811-.2,2.037,2.037,0,0,0,.581-.518l.552.43A2.219,2.219,0,0,1,32.382,10.1ZM32.27,5.361a1.2,1.2,0,0,0-.918.4,1.934,1.934,0,0,0-.459,1.116H33.54V6.807a1.721,1.721,0,0,0-.371-1.067A1.134,1.134,0,0,0,32.27,5.361Zm4.072-.645.029.664a1.925,1.925,0,0,1,1.582-.762q1.675,0,1.689,1.89V10h-.9V6.5a1.216,1.216,0,0,0-.261-.845,1.047,1.047,0,0,0-.8-.273,1.3,1.3,0,0,0-.771.234,1.592,1.592,0,0,0-.518.615V10h-.9V4.717Zm6.543,2.632H40.5V6.611h2.383ZM11.318,15.438v1.279H12.3v.7h-.986V20.7a.733.733,0,0,0,.132.477.555.555,0,0,0,.449.159,2.187,2.187,0,0,0,.43-.059V22a2.634,2.634,0,0,1-.693.1,1.125,1.125,0,0,1-.913-.366,1.573,1.573,0,0,1-.308-1.04V17.415H9.453v-.7h.962V15.438Zm4.233,6.66a2.308,2.308,0,0,1-1.748-.706,2.619,2.619,0,0,1-.674-1.887v-.166a3.17,3.17,0,0,1,.3-1.4,2.343,2.343,0,0,1,.84-.967,2.112,2.112,0,0,1,1.169-.349,1.979,1.979,0,0,1,1.6.679,2.939,2.939,0,0,1,.571,1.943v.376H14.033a1.878,1.878,0,0,0,.457,1.262,1.435,1.435,0,0,0,1.111.481,1.573,1.573,0,0,0,.811-.2,2.037,2.037,0,0,0,.581-.518l.552.43A2.219,2.219,0,0,1,15.551,22.1Zm-.112-4.736a1.2,1.2,0,0,0-.918.4,1.934,1.934,0,0,0-.459,1.116h2.646v-.068a1.721,1.721,0,0,0-.371-1.067A1.134,1.134,0,0,0,15.439,17.361Zm4.072-.645.029.664a1.925,1.925,0,0,1,1.582-.762q1.675,0,1.689,1.89V22h-.9V18.5a1.216,1.216,0,0,0-.261-.845,1.047,1.047,0,0,0-.8-.273,1.3,1.3,0,0,0-.771.234,1.592,1.592,0,0,0-.518.615V22h-.9V16.717Zm6.782,4.644a1.3,1.3,0,0,0,.845-.293,1.031,1.031,0,0,0,.4-.732h.854a1.638,1.638,0,0,1-.312.864,2.058,2.058,0,0,1-.769.654,2.219,2.219,0,0,1-1.018.244,2.176,2.176,0,0,1-1.716-.72,2.869,2.869,0,0,1-.637-1.97v-.151a3.181,3.181,0,0,1,.283-1.372,2.157,2.157,0,0,1,.813-.933,2.309,2.309,0,0,1,1.252-.332,2.119,2.119,0,0,1,1.477.532,1.9,1.9,0,0,1,.627,1.382h-.854a1.245,1.245,0,0,0-.388-.842,1.208,1.208,0,0,0-.862-.33,1.264,1.264,0,0,0-1.067.5,2.328,2.328,0,0,0-.378,1.433v.171a2.281,2.281,0,0,0,.376,1.406A1.27,1.27,0,0,0,26.293,21.36Zm4.1.64h-.9V16.717h.9Zm-.977-6.685a.539.539,0,0,1,.134-.371.5.5,0,0,1,.4-.151.512.512,0,0,1,.4.151.534.534,0,0,1,.137.371.516.516,0,0,1-.137.366.521.521,0,0,1-.4.146.513.513,0,0,1-.4-.146A.521.521,0,0,1,29.414,15.315ZM35.1,22a1.9,1.9,0,0,1-.127-.557,2.015,2.015,0,0,1-1.5.654,1.865,1.865,0,0,1-1.282-.442,1.43,1.43,0,0,1-.5-1.121,1.494,1.494,0,0,1,.627-1.282,2.958,2.958,0,0,1,1.765-.457h.879v-.415a1.015,1.015,0,0,0-.283-.754,1.138,1.138,0,0,0-.835-.281,1.317,1.317,0,0,0-.811.244.719.719,0,0,0-.327.591h-.908a1.247,1.247,0,0,1,.281-.764,1.916,1.916,0,0,1,.762-.583,2.563,2.563,0,0,1,1.057-.215,2.089,2.089,0,0,1,1.431.457,1.647,1.647,0,0,1,.537,1.257v2.432a2.973,2.973,0,0,0,.186,1.157V22Zm-1.5-.688a1.588,1.588,0,0,0,.806-.22,1.329,1.329,0,0,0,.552-.571V19.437h-.708q-1.66,0-1.66.972a.822.822,0,0,0,.283.664A1.089,1.089,0,0,0,33.6,21.312Zm-9,10.3h.986v.737H24.6V34h-.908V32.35H20.451v-.532l3.184-4.927H24.6Zm-3.12,0h2.212V28.126l-.107.2Z" transform="translate(-5896 -3226.282)" fill="#12263f"/><path d="M5.368,2.891l2.324,5.8,2.324-5.8h1.216V10h-.937V7.231l.088-2.988L8.049,10H7.331L5,4.258l.093,2.974V10H4.157V2.891Zm9.57,7.207a2.308,2.308,0,0,1-1.748-.706A2.619,2.619,0,0,1,12.517,7.5V7.339a3.17,3.17,0,0,1,.3-1.4,2.343,2.343,0,0,1,.84-.967,2.112,2.112,0,0,1,1.169-.349,1.979,1.979,0,0,1,1.6.679A2.939,2.939,0,0,1,17,7.241v.376H13.42a1.878,1.878,0,0,0,.457,1.262,1.435,1.435,0,0,0,1.111.481,1.573,1.573,0,0,0,.811-.2,2.037,2.037,0,0,0,.581-.518l.552.43A2.219,2.219,0,0,1,14.938,10.1Zm-.112-4.736a1.2,1.2,0,0,0-.918.4,1.934,1.934,0,0,0-.459,1.116H16.1V6.807a1.721,1.721,0,0,0-.371-1.067A1.134,1.134,0,0,0,14.826,5.361Zm5.771.166a2.707,2.707,0,0,0-.444-.034,1.19,1.19,0,0,0-1.206.757V10h-.9V4.717h.879l.015.61a1.407,1.407,0,0,1,1.26-.708.923.923,0,0,1,.4.068ZM23.454,9.36a1.3,1.3,0,0,0,.845-.293,1.031,1.031,0,0,0,.4-.732h.854a1.638,1.638,0,0,1-.312.864,2.058,2.058,0,0,1-.769.654,2.219,2.219,0,0,1-1.018.244,2.176,2.176,0,0,1-1.716-.72,2.869,2.869,0,0,1-.637-1.97V7.256a3.181,3.181,0,0,1,.283-1.372,2.157,2.157,0,0,1,.813-.933,2.309,2.309,0,0,1,1.252-.332,2.119,2.119,0,0,1,1.477.532,1.9,1.9,0,0,1,.627,1.382H24.7a1.245,1.245,0,0,0-.388-.842,1.208,1.208,0,0,0-.862-.33,1.264,1.264,0,0,0-1.067.5A2.328,2.328,0,0,0,22,7.29v.171a2.281,2.281,0,0,0,.376,1.406A1.27,1.27,0,0,0,23.454,9.36Zm6.377.64a1.9,1.9,0,0,1-.127-.557,2.015,2.015,0,0,1-1.5.654,1.865,1.865,0,0,1-1.282-.442,1.43,1.43,0,0,1-.5-1.121,1.494,1.494,0,0,1,.627-1.282A2.958,2.958,0,0,1,28.811,6.8h.879V6.382a1.015,1.015,0,0,0-.283-.754,1.138,1.138,0,0,0-.835-.281,1.317,1.317,0,0,0-.811.244.719.719,0,0,0-.327.591h-.908a1.247,1.247,0,0,1,.281-.764,1.916,1.916,0,0,1,.762-.583,2.563,2.563,0,0,1,1.057-.215,2.089,2.089,0,0,1,1.431.457,1.647,1.647,0,0,1,.537,1.257V8.765a2.973,2.973,0,0,0,.186,1.157V10Zm-1.5-.688a1.588,1.588,0,0,0,.806-.22,1.329,1.329,0,0,0,.552-.571V7.437h-.708q-1.66,0-1.66.972a.822.822,0,0,0,.283.664A1.089,1.089,0,0,0,28.332,9.312Zm3.457-2a3.1,3.1,0,0,1,.576-1.956,1.96,1.96,0,0,1,2.979-.1V2.5h.9V10h-.83l-.044-.566a1.84,1.84,0,0,1-1.509.664,1.8,1.8,0,0,1-1.5-.752,3.13,3.13,0,0,1-.579-1.963Zm.9.1a2.343,2.343,0,0,0,.371,1.406,1.2,1.2,0,0,0,1.025.508,1.318,1.318,0,0,0,1.255-.771V6.133A1.328,1.328,0,0,0,34.1,5.386a1.205,1.205,0,0,0-1.035.513A2.58,2.58,0,0,0,32.692,7.417Zm4.717-.107a3.121,3.121,0,0,1,.305-1.4,2.277,2.277,0,0,1,.85-.957,2.313,2.313,0,0,1,1.243-.337,2.228,2.228,0,0,1,1.746.747,2.874,2.874,0,0,1,.667,1.987v.063a3.148,3.148,0,0,1-.3,1.384,2.243,2.243,0,0,1-.845.955,2.339,2.339,0,0,1-1.262.342,2.222,2.222,0,0,1-1.741-.747,2.86,2.86,0,0,1-.667-1.978Zm.908.107a2.26,2.26,0,0,0,.408,1.411,1.382,1.382,0,0,0,2.185-.007,2.472,2.472,0,0,0,.405-1.511A2.256,2.256,0,0,0,40.9,5.9a1.312,1.312,0,0,0-1.1-.54,1.3,1.3,0,0,0-1.079.532A2.453,2.453,0,0,0,38.317,7.417ZM5.861,19.31a3.121,3.121,0,0,1,.305-1.4,2.277,2.277,0,0,1,.85-.957,2.313,2.313,0,0,1,1.243-.337A2.228,2.228,0,0,1,10,17.366a2.874,2.874,0,0,1,.667,1.987v.063a3.148,3.148,0,0,1-.3,1.384,2.243,2.243,0,0,1-.845.955,2.339,2.339,0,0,1-1.262.342,2.222,2.222,0,0,1-1.741-.747,2.86,2.86,0,0,1-.667-1.978Zm.908.107a2.26,2.26,0,0,0,.408,1.411,1.382,1.382,0,0,0,2.185-.007,2.472,2.472,0,0,0,.405-1.511A2.256,2.256,0,0,0,9.355,17.9a1.312,1.312,0,0,0-1.1-.54,1.3,1.3,0,0,0-1.079.532A2.453,2.453,0,0,0,6.77,19.417Zm9.507,0a3.141,3.141,0,0,1-.557,1.946,1.779,1.779,0,0,1-1.494.735,1.842,1.842,0,0,1-1.548-.708l-.044.61H11.8V14.5h.9v2.8a1.831,1.831,0,0,1,1.509-.679,1.789,1.789,0,0,1,1.511.728,3.236,3.236,0,0,1,.549,1.992Zm-.9-.1a2.441,2.441,0,0,0-.356-1.426,1.18,1.18,0,0,0-1.025-.5,1.326,1.326,0,0,0-1.284.83V20.5a1.363,1.363,0,0,0,1.294.83,1.173,1.173,0,0,0,1.011-.5A2.6,2.6,0,0,0,15.373,19.314Zm2.974-2.6V22.61q0,1.523-1.382,1.523a1.686,1.686,0,0,1-.552-.087v-.718a1.746,1.746,0,0,0,.41.039.614.614,0,0,0,.461-.164.81.81,0,0,0,.159-.569V16.717Zm-1-1.4a.542.542,0,0,1,.134-.369.494.494,0,0,1,.393-.154.512.512,0,0,1,.4.151.534.534,0,0,1,.137.371.516.516,0,0,1-.137.366.521.521,0,0,1-.4.146.505.505,0,0,1-.4-.146A.527.527,0,0,1,17.351,15.315ZM21.994,22.1a2.308,2.308,0,0,1-1.748-.706,2.619,2.619,0,0,1-.674-1.887v-.166a3.17,3.17,0,0,1,.3-1.4,2.343,2.343,0,0,1,.84-.967,2.112,2.112,0,0,1,1.169-.349,1.979,1.979,0,0,1,1.6.679,2.939,2.939,0,0,1,.571,1.943v.376H20.476a1.878,1.878,0,0,0,.457,1.262,1.435,1.435,0,0,0,1.111.481,1.573,1.573,0,0,0,.811-.2,2.037,2.037,0,0,0,.581-.518l.552.43A2.219,2.219,0,0,1,21.994,22.1Zm-.112-4.736a1.2,1.2,0,0,0-.918.4,1.934,1.934,0,0,0-.459,1.116h2.646v-.068a1.721,1.721,0,0,0-.371-1.067A1.134,1.134,0,0,0,21.882,17.361Zm4.443-1.924v1.279h.986v.7h-.986V20.7a.733.733,0,0,0,.132.477.555.555,0,0,0,.449.159,2.187,2.187,0,0,0,.43-.059V22a2.634,2.634,0,0,1-.693.1,1.125,1.125,0,0,1-.913-.366,1.573,1.573,0,0,1-.308-1.04V17.415H24.46v-.7h.962V15.438ZM29.348,22h-.9V16.717h.9Zm-.977-6.685a.539.539,0,0,1,.134-.371.5.5,0,0,1,.4-.151.512.512,0,0,1,.4.151.534.534,0,0,1,.137.371.516.516,0,0,1-.137.366.521.521,0,0,1-.4.146.513.513,0,0,1-.4-.146A.521.521,0,0,1,28.371,15.315Zm4.165,5.459,1.309-4.058h.923L32.873,22h-.688l-1.914-5.283h.923Zm2.788-1.465a3.121,3.121,0,0,1,.305-1.4,2.277,2.277,0,0,1,.85-.957,2.313,2.313,0,0,1,1.243-.337,2.228,2.228,0,0,1,1.746.747,2.874,2.874,0,0,1,.667,1.987v.063a3.148,3.148,0,0,1-.3,1.384,2.243,2.243,0,0,1-.845.955,2.339,2.339,0,0,1-1.262.342,2.222,2.222,0,0,1-1.741-.747,2.86,2.86,0,0,1-.667-1.978Zm.908.107a2.26,2.26,0,0,0,.408,1.411,1.382,1.382,0,0,0,2.185-.007,2.472,2.472,0,0,0,.405-1.511,2.256,2.256,0,0,0-.413-1.409,1.312,1.312,0,0,0-1.1-.54,1.3,1.3,0,0,0-1.079.532A2.453,2.453,0,0,0,36.232,19.417Z" transform="translate(-5837 -3226.282)" fill="#12263f"/><path d="M8.974,7.744a2.616,2.616,0,0,1-.833,1.741,2.728,2.728,0,0,1-1.863.613,2.505,2.505,0,0,1-2.019-.9A3.634,3.634,0,0,1,3.5,6.777V6.094a4.051,4.051,0,0,1,.354-1.743,2.644,2.644,0,0,1,1-1.155,2.794,2.794,0,0,1,1.5-.4,2.569,2.569,0,0,1,1.816.632,2.647,2.647,0,0,1,.8,1.75H8.032A2.043,2.043,0,0,0,7.5,3.942a1.6,1.6,0,0,0-1.14-.382,1.677,1.677,0,0,0-1.409.665,3.051,3.051,0,0,0-.51,1.891V6.8a3.136,3.136,0,0,0,.483,1.842,1.562,1.562,0,0,0,1.353.684,1.8,1.8,0,0,0,1.2-.354,1.964,1.964,0,0,0,.554-1.233Zm.9-.435a3.121,3.121,0,0,1,.305-1.4,2.277,2.277,0,0,1,.85-.957,2.313,2.313,0,0,1,1.243-.337,2.228,2.228,0,0,1,1.746.747,2.874,2.874,0,0,1,.667,1.987v.063a3.148,3.148,0,0,1-.3,1.384,2.243,2.243,0,0,1-.845.955,2.339,2.339,0,0,1-1.262.342,2.222,2.222,0,0,1-1.741-.747,2.86,2.86,0,0,1-.667-1.978Zm.908.107a2.26,2.26,0,0,0,.408,1.411,1.382,1.382,0,0,0,2.185-.007,2.472,2.472,0,0,0,.405-1.511A2.256,2.256,0,0,0,13.366,5.9a1.312,1.312,0,0,0-1.1-.54,1.3,1.3,0,0,0-1.079.532A2.453,2.453,0,0,0,10.781,7.417Zm5.884-2.7.024.586a1.951,1.951,0,0,1,1.567-.684,1.51,1.51,0,0,1,1.509.85,2,2,0,0,1,.686-.615,2.026,2.026,0,0,1,1-.234q1.738,0,1.768,1.841V10h-.9V6.514a1.213,1.213,0,0,0-.259-.847,1.14,1.14,0,0,0-.869-.281,1.2,1.2,0,0,0-.835.3,1.218,1.218,0,0,0-.386.808V10h-.908V6.538a1.008,1.008,0,0,0-1.128-1.152,1.209,1.209,0,0,0-1.216.757V10h-.9V4.717Zm12.378,2.7a3.163,3.163,0,0,1-.552,1.943A1.768,1.768,0,0,1,27,10.1a1.938,1.938,0,0,1-1.514-.61v2.544h-.9V4.717H25.4l.044.586a1.861,1.861,0,0,1,1.533-.684,1.8,1.8,0,0,1,1.506.718,3.2,3.2,0,0,1,.554,2Zm-.9-.1A2.334,2.334,0,0,0,27.758,5.9a1.227,1.227,0,0,0-1.045-.518,1.328,1.328,0,0,0-1.23.728V8.638a1.33,1.33,0,0,0,1.24.723,1.221,1.221,0,0,0,1.033-.515A2.548,2.548,0,0,0,28.139,7.314ZM32.382,10.1a2.308,2.308,0,0,1-1.748-.706A2.619,2.619,0,0,1,29.96,7.5V7.339a3.17,3.17,0,0,1,.3-1.4,2.343,2.343,0,0,1,.84-.967,2.112,2.112,0,0,1,1.169-.349,1.979,1.979,0,0,1,1.6.679,2.939,2.939,0,0,1,.571,1.943v.376H30.864a1.878,1.878,0,0,0,.457,1.262,1.435,1.435,0,0,0,1.111.481,1.573,1.573,0,0,0,.811-.2,2.037,2.037,0,0,0,.581-.518l.552.43A2.219,2.219,0,0,1,32.382,10.1ZM32.27,5.361a1.2,1.2,0,0,0-.918.4,1.934,1.934,0,0,0-.459,1.116H33.54V6.807a1.721,1.721,0,0,0-.371-1.067A1.134,1.134,0,0,0,32.27,5.361Zm4.072-.645.029.664a1.925,1.925,0,0,1,1.582-.762q1.675,0,1.689,1.89V10h-.9V6.5a1.216,1.216,0,0,0-.261-.845,1.047,1.047,0,0,0-.8-.273,1.3,1.3,0,0,0-.771.234,1.592,1.592,0,0,0-.518.615V10h-.9V4.717Zm6.543,2.632H40.5V6.611h2.383ZM11.318,15.438v1.279H12.3v.7h-.986V20.7a.733.733,0,0,0,.132.477.555.555,0,0,0,.449.159,2.187,2.187,0,0,0,.43-.059V22a2.634,2.634,0,0,1-.693.1,1.125,1.125,0,0,1-.913-.366,1.573,1.573,0,0,1-.308-1.04V17.415H9.453v-.7h.962V15.438Zm4.233,6.66a2.308,2.308,0,0,1-1.748-.706,2.619,2.619,0,0,1-.674-1.887v-.166a3.17,3.17,0,0,1,.3-1.4,2.343,2.343,0,0,1,.84-.967,2.112,2.112,0,0,1,1.169-.349,1.979,1.979,0,0,1,1.6.679,2.939,2.939,0,0,1,.571,1.943v.376H14.033a1.878,1.878,0,0,0,.457,1.262,1.435,1.435,0,0,0,1.111.481,1.573,1.573,0,0,0,.811-.2,2.037,2.037,0,0,0,.581-.518l.552.43A2.219,2.219,0,0,1,15.551,22.1Zm-.112-4.736a1.2,1.2,0,0,0-.918.4,1.934,1.934,0,0,0-.459,1.116h2.646v-.068a1.721,1.721,0,0,0-.371-1.067A1.134,1.134,0,0,0,15.439,17.361Zm4.072-.645.029.664a1.925,1.925,0,0,1,1.582-.762q1.675,0,1.689,1.89V22h-.9V18.5a1.216,1.216,0,0,0-.261-.845,1.047,1.047,0,0,0-.8-.273,1.3,1.3,0,0,0-.771.234,1.592,1.592,0,0,0-.518.615V22h-.9V16.717Zm6.782,4.644a1.3,1.3,0,0,0,.845-.293,1.031,1.031,0,0,0,.4-.732h.854a1.638,1.638,0,0,1-.312.864,2.058,2.058,0,0,1-.769.654,2.219,2.219,0,0,1-1.018.244,2.176,2.176,0,0,1-1.716-.72,2.869,2.869,0,0,1-.637-1.97v-.151a3.181,3.181,0,0,1,.283-1.372,2.157,2.157,0,0,1,.813-.933,2.309,2.309,0,0,1,1.252-.332,2.119,2.119,0,0,1,1.477.532,1.9,1.9,0,0,1,.627,1.382h-.854a1.245,1.245,0,0,0-.388-.842,1.208,1.208,0,0,0-.862-.33,1.264,1.264,0,0,0-1.067.5,2.328,2.328,0,0,0-.378,1.433v.171a2.281,2.281,0,0,0,.376,1.406A1.27,1.27,0,0,0,26.293,21.36Zm4.1.64h-.9V16.717h.9Zm-.977-6.685a.539.539,0,0,1,.134-.371.5.5,0,0,1,.4-.151.512.512,0,0,1,.4.151.534.534,0,0,1,.137.371.516.516,0,0,1-.137.366.521.521,0,0,1-.4.146.513.513,0,0,1-.4-.146A.521.521,0,0,1,29.414,15.315ZM35.1,22a1.9,1.9,0,0,1-.127-.557,2.015,2.015,0,0,1-1.5.654,1.865,1.865,0,0,1-1.282-.442,1.43,1.43,0,0,1-.5-1.121,1.494,1.494,0,0,1,.627-1.282,2.958,2.958,0,0,1,1.765-.457h.879v-.415a1.015,1.015,0,0,0-.283-.754,1.138,1.138,0,0,0-.835-.281,1.317,1.317,0,0,0-.811.244.719.719,0,0,0-.327.591h-.908a1.247,1.247,0,0,1,.281-.764,1.916,1.916,0,0,1,.762-.583,2.563,2.563,0,0,1,1.057-.215,2.089,2.089,0,0,1,1.431.457,1.647,1.647,0,0,1,.537,1.257v2.432a2.973,2.973,0,0,0,.186,1.157V22Zm-1.5-.688a1.588,1.588,0,0,0,.806-.22,1.329,1.329,0,0,0,.552-.571V19.437h-.708q-1.66,0-1.66.972a.822.822,0,0,0,.283.664A1.089,1.089,0,0,0,33.6,21.312ZM22.1,30.006h.679a1.492,1.492,0,0,0,1.006-.337,1.126,1.126,0,0,0,.366-.884,1.1,1.1,0,0,0-1.245-1.25,1.3,1.3,0,0,0-.935.334,1.171,1.171,0,0,0-.349.886h-.9a1.814,1.814,0,0,1,.618-1.4,2.25,2.25,0,0,1,1.57-.559,2.224,2.224,0,0,1,1.577.532,1.923,1.923,0,0,1,.571,1.479,1.561,1.561,0,0,1-.3.9,1.813,1.813,0,0,1-.818.649,1.747,1.747,0,0,1,.906.615,1.709,1.709,0,0,1,.32,1.05,1.939,1.939,0,0,1-.625,1.519,2.34,2.34,0,0,1-1.626.562,2.4,2.4,0,0,1-1.628-.542,1.8,1.8,0,0,1-.627-1.431h.908a1.162,1.162,0,0,0,.366.9,1.393,1.393,0,0,0,.981.337,1.367,1.367,0,0,0,1-.342,1.317,1.317,0,0,0,.347-.981,1.2,1.2,0,0,0-.381-.952,1.659,1.659,0,0,0-1.1-.342H22.1Z" transform="translate(-5914 -3167.89)" fill="#12263f"/><path d="M8.974,7.744a2.616,2.616,0,0,1-.833,1.741,2.728,2.728,0,0,1-1.863.613,2.505,2.505,0,0,1-2.019-.9A3.634,3.634,0,0,1,3.5,6.777V6.094a4.051,4.051,0,0,1,.354-1.743,2.644,2.644,0,0,1,1-1.155,2.794,2.794,0,0,1,1.5-.4,2.569,2.569,0,0,1,1.816.632,2.647,2.647,0,0,1,.8,1.75H8.032A2.043,2.043,0,0,0,7.5,3.942a1.6,1.6,0,0,0-1.14-.382,1.677,1.677,0,0,0-1.409.665,3.051,3.051,0,0,0-.51,1.891V6.8a3.136,3.136,0,0,0,.483,1.842,1.562,1.562,0,0,0,1.353.684,1.8,1.8,0,0,0,1.2-.354,1.964,1.964,0,0,0,.554-1.233Zm.9-.435a3.121,3.121,0,0,1,.305-1.4,2.277,2.277,0,0,1,.85-.957,2.313,2.313,0,0,1,1.243-.337,2.228,2.228,0,0,1,1.746.747,2.874,2.874,0,0,1,.667,1.987v.063a3.148,3.148,0,0,1-.3,1.384,2.243,2.243,0,0,1-.845.955,2.339,2.339,0,0,1-1.262.342,2.222,2.222,0,0,1-1.741-.747,2.86,2.86,0,0,1-.667-1.978Zm.908.107a2.26,2.26,0,0,0,.408,1.411,1.382,1.382,0,0,0,2.185-.007,2.472,2.472,0,0,0,.405-1.511A2.256,2.256,0,0,0,13.366,5.9a1.312,1.312,0,0,0-1.1-.54,1.3,1.3,0,0,0-1.079.532A2.453,2.453,0,0,0,10.781,7.417Zm5.884-2.7.024.586a1.951,1.951,0,0,1,1.567-.684,1.51,1.51,0,0,1,1.509.85,2,2,0,0,1,.686-.615,2.026,2.026,0,0,1,1-.234q1.738,0,1.768,1.841V10h-.9V6.514a1.213,1.213,0,0,0-.259-.847,1.14,1.14,0,0,0-.869-.281,1.2,1.2,0,0,0-.835.3,1.218,1.218,0,0,0-.386.808V10h-.908V6.538a1.008,1.008,0,0,0-1.128-1.152,1.209,1.209,0,0,0-1.216.757V10h-.9V4.717Zm12.378,2.7a3.163,3.163,0,0,1-.552,1.943A1.768,1.768,0,0,1,27,10.1a1.938,1.938,0,0,1-1.514-.61v2.544h-.9V4.717H25.4l.044.586a1.861,1.861,0,0,1,1.533-.684,1.8,1.8,0,0,1,1.506.718,3.2,3.2,0,0,1,.554,2Zm-.9-.1A2.334,2.334,0,0,0,27.758,5.9a1.227,1.227,0,0,0-1.045-.518,1.328,1.328,0,0,0-1.23.728V8.638a1.33,1.33,0,0,0,1.24.723,1.221,1.221,0,0,0,1.033-.515A2.548,2.548,0,0,0,28.139,7.314ZM32.382,10.1a2.308,2.308,0,0,1-1.748-.706A2.619,2.619,0,0,1,29.96,7.5V7.339a3.17,3.17,0,0,1,.3-1.4,2.343,2.343,0,0,1,.84-.967,2.112,2.112,0,0,1,1.169-.349,1.979,1.979,0,0,1,1.6.679,2.939,2.939,0,0,1,.571,1.943v.376H30.864a1.878,1.878,0,0,0,.457,1.262,1.435,1.435,0,0,0,1.111.481,1.573,1.573,0,0,0,.811-.2,2.037,2.037,0,0,0,.581-.518l.552.43A2.219,2.219,0,0,1,32.382,10.1ZM32.27,5.361a1.2,1.2,0,0,0-.918.4,1.934,1.934,0,0,0-.459,1.116H33.54V6.807a1.721,1.721,0,0,0-.371-1.067A1.134,1.134,0,0,0,32.27,5.361Zm4.072-.645.029.664a1.925,1.925,0,0,1,1.582-.762q1.675,0,1.689,1.89V10h-.9V6.5a1.216,1.216,0,0,0-.261-.845,1.047,1.047,0,0,0-.8-.273,1.3,1.3,0,0,0-.771.234,1.592,1.592,0,0,0-.518.615V10h-.9V4.717Zm6.543,2.632H40.5V6.611h2.383ZM11.318,15.438v1.279H12.3v.7h-.986V20.7a.733.733,0,0,0,.132.477.555.555,0,0,0,.449.159,2.187,2.187,0,0,0,.43-.059V22a2.634,2.634,0,0,1-.693.1,1.125,1.125,0,0,1-.913-.366,1.573,1.573,0,0,1-.308-1.04V17.415H9.453v-.7h.962V15.438Zm4.233,6.66a2.308,2.308,0,0,1-1.748-.706,2.619,2.619,0,0,1-.674-1.887v-.166a3.17,3.17,0,0,1,.3-1.4,2.343,2.343,0,0,1,.84-.967,2.112,2.112,0,0,1,1.169-.349,1.979,1.979,0,0,1,1.6.679,2.939,2.939,0,0,1,.571,1.943v.376H14.033a1.878,1.878,0,0,0,.457,1.262,1.435,1.435,0,0,0,1.111.481,1.573,1.573,0,0,0,.811-.2,2.037,2.037,0,0,0,.581-.518l.552.43A2.219,2.219,0,0,1,15.551,22.1Zm-.112-4.736a1.2,1.2,0,0,0-.918.4,1.934,1.934,0,0,0-.459,1.116h2.646v-.068a1.721,1.721,0,0,0-.371-1.067A1.134,1.134,0,0,0,15.439,17.361Zm4.072-.645.029.664a1.925,1.925,0,0,1,1.582-.762q1.675,0,1.689,1.89V22h-.9V18.5a1.216,1.216,0,0,0-.261-.845,1.047,1.047,0,0,0-.8-.273,1.3,1.3,0,0,0-.771.234,1.592,1.592,0,0,0-.518.615V22h-.9V16.717Zm6.782,4.644a1.3,1.3,0,0,0,.845-.293,1.031,1.031,0,0,0,.4-.732h.854a1.638,1.638,0,0,1-.312.864,2.058,2.058,0,0,1-.769.654,2.219,2.219,0,0,1-1.018.244,2.176,2.176,0,0,1-1.716-.72,2.869,2.869,0,0,1-.637-1.97v-.151a3.181,3.181,0,0,1,.283-1.372,2.157,2.157,0,0,1,.813-.933,2.309,2.309,0,0,1,1.252-.332,2.119,2.119,0,0,1,1.477.532,1.9,1.9,0,0,1,.627,1.382h-.854a1.245,1.245,0,0,0-.388-.842,1.208,1.208,0,0,0-.862-.33,1.264,1.264,0,0,0-1.067.5,2.328,2.328,0,0,0-.378,1.433v.171a2.281,2.281,0,0,0,.376,1.406A1.27,1.27,0,0,0,26.293,21.36Zm4.1.64h-.9V16.717h.9Zm-.977-6.685a.539.539,0,0,1,.134-.371.5.5,0,0,1,.4-.151.512.512,0,0,1,.4.151.534.534,0,0,1,.137.371.516.516,0,0,1-.137.366.521.521,0,0,1-.4.146.513.513,0,0,1-.4-.146A.521.521,0,0,1,29.414,15.315ZM35.1,22a1.9,1.9,0,0,1-.127-.557,2.015,2.015,0,0,1-1.5.654,1.865,1.865,0,0,1-1.282-.442,1.43,1.43,0,0,1-.5-1.121,1.494,1.494,0,0,1,.627-1.282,2.958,2.958,0,0,1,1.765-.457h.879v-.415a1.015,1.015,0,0,0-.283-.754,1.138,1.138,0,0,0-.835-.281,1.317,1.317,0,0,0-.811.244.719.719,0,0,0-.327.591h-.908a1.247,1.247,0,0,1,.281-.764,1.916,1.916,0,0,1,.762-.583,2.563,2.563,0,0,1,1.057-.215,2.089,2.089,0,0,1,1.431.457,1.647,1.647,0,0,1,.537,1.257v2.432a2.973,2.973,0,0,0,.186,1.157V22Zm-1.5-.688a1.588,1.588,0,0,0,.806-.22,1.329,1.329,0,0,0,.552-.571V19.437h-.708q-1.66,0-1.66.972a.822.822,0,0,0,.283.664A1.089,1.089,0,0,0,33.6,21.312ZM23.752,34h-.908V27.979l-1.821.669v-.82l2.588-.972h.142Z" transform="translate(-5814 -3167.89)" fill="#12263f"/><path d="M8.974,7.744a2.616,2.616,0,0,1-.833,1.741,2.728,2.728,0,0,1-1.863.613,2.505,2.505,0,0,1-2.019-.9A3.634,3.634,0,0,1,3.5,6.777V6.094a4.051,4.051,0,0,1,.354-1.743,2.644,2.644,0,0,1,1-1.155,2.794,2.794,0,0,1,1.5-.4,2.569,2.569,0,0,1,1.816.632,2.647,2.647,0,0,1,.8,1.75H8.032A2.043,2.043,0,0,0,7.5,3.942a1.6,1.6,0,0,0-1.14-.382,1.677,1.677,0,0,0-1.409.665,3.051,3.051,0,0,0-.51,1.891V6.8a3.136,3.136,0,0,0,.483,1.842,1.562,1.562,0,0,0,1.353.684,1.8,1.8,0,0,0,1.2-.354,1.964,1.964,0,0,0,.554-1.233Zm.9-.435a3.121,3.121,0,0,1,.305-1.4,2.277,2.277,0,0,1,.85-.957,2.313,2.313,0,0,1,1.243-.337,2.228,2.228,0,0,1,1.746.747,2.874,2.874,0,0,1,.667,1.987v.063a3.148,3.148,0,0,1-.3,1.384,2.243,2.243,0,0,1-.845.955,2.339,2.339,0,0,1-1.262.342,2.222,2.222,0,0,1-1.741-.747,2.86,2.86,0,0,1-.667-1.978Zm.908.107a2.26,2.26,0,0,0,.408,1.411,1.382,1.382,0,0,0,2.185-.007,2.472,2.472,0,0,0,.405-1.511A2.256,2.256,0,0,0,13.366,5.9a1.312,1.312,0,0,0-1.1-.54,1.3,1.3,0,0,0-1.079.532A2.453,2.453,0,0,0,10.781,7.417Zm5.884-2.7.024.586a1.951,1.951,0,0,1,1.567-.684,1.51,1.51,0,0,1,1.509.85,2,2,0,0,1,.686-.615,2.026,2.026,0,0,1,1-.234q1.738,0,1.768,1.841V10h-.9V6.514a1.213,1.213,0,0,0-.259-.847,1.14,1.14,0,0,0-.869-.281,1.2,1.2,0,0,0-.835.3,1.218,1.218,0,0,0-.386.808V10h-.908V6.538a1.008,1.008,0,0,0-1.128-1.152,1.209,1.209,0,0,0-1.216.757V10h-.9V4.717Zm12.378,2.7a3.163,3.163,0,0,1-.552,1.943A1.768,1.768,0,0,1,27,10.1a1.938,1.938,0,0,1-1.514-.61v2.544h-.9V4.717H25.4l.044.586a1.861,1.861,0,0,1,1.533-.684,1.8,1.8,0,0,1,1.506.718,3.2,3.2,0,0,1,.554,2Zm-.9-.1A2.334,2.334,0,0,0,27.758,5.9a1.227,1.227,0,0,0-1.045-.518,1.328,1.328,0,0,0-1.23.728V8.638a1.33,1.33,0,0,0,1.24.723,1.221,1.221,0,0,0,1.033-.515A2.548,2.548,0,0,0,28.139,7.314ZM32.382,10.1a2.308,2.308,0,0,1-1.748-.706A2.619,2.619,0,0,1,29.96,7.5V7.339a3.17,3.17,0,0,1,.3-1.4,2.343,2.343,0,0,1,.84-.967,2.112,2.112,0,0,1,1.169-.349,1.979,1.979,0,0,1,1.6.679,2.939,2.939,0,0,1,.571,1.943v.376H30.864a1.878,1.878,0,0,0,.457,1.262,1.435,1.435,0,0,0,1.111.481,1.573,1.573,0,0,0,.811-.2,2.037,2.037,0,0,0,.581-.518l.552.43A2.219,2.219,0,0,1,32.382,10.1ZM32.27,5.361a1.2,1.2,0,0,0-.918.4,1.934,1.934,0,0,0-.459,1.116H33.54V6.807a1.721,1.721,0,0,0-.371-1.067A1.134,1.134,0,0,0,32.27,5.361Zm4.072-.645.029.664a1.925,1.925,0,0,1,1.582-.762q1.675,0,1.689,1.89V10h-.9V6.5a1.216,1.216,0,0,0-.261-.845,1.047,1.047,0,0,0-.8-.273,1.3,1.3,0,0,0-.771.234,1.592,1.592,0,0,0-.518.615V10h-.9V4.717Zm6.543,2.632H40.5V6.611h2.383ZM11.318,15.438v1.279H12.3v.7h-.986V20.7a.733.733,0,0,0,.132.477.555.555,0,0,0,.449.159,2.187,2.187,0,0,0,.43-.059V22a2.634,2.634,0,0,1-.693.1,1.125,1.125,0,0,1-.913-.366,1.573,1.573,0,0,1-.308-1.04V17.415H9.453v-.7h.962V15.438Zm4.233,6.66a2.308,2.308,0,0,1-1.748-.706,2.619,2.619,0,0,1-.674-1.887v-.166a3.17,3.17,0,0,1,.3-1.4,2.343,2.343,0,0,1,.84-.967,2.112,2.112,0,0,1,1.169-.349,1.979,1.979,0,0,1,1.6.679,2.939,2.939,0,0,1,.571,1.943v.376H14.033a1.878,1.878,0,0,0,.457,1.262,1.435,1.435,0,0,0,1.111.481,1.573,1.573,0,0,0,.811-.2,2.037,2.037,0,0,0,.581-.518l.552.43A2.219,2.219,0,0,1,15.551,22.1Zm-.112-4.736a1.2,1.2,0,0,0-.918.4,1.934,1.934,0,0,0-.459,1.116h2.646v-.068a1.721,1.721,0,0,0-.371-1.067A1.134,1.134,0,0,0,15.439,17.361Zm4.072-.645.029.664a1.925,1.925,0,0,1,1.582-.762q1.675,0,1.689,1.89V22h-.9V18.5a1.216,1.216,0,0,0-.261-.845,1.047,1.047,0,0,0-.8-.273,1.3,1.3,0,0,0-.771.234,1.592,1.592,0,0,0-.518.615V22h-.9V16.717Zm6.782,4.644a1.3,1.3,0,0,0,.845-.293,1.031,1.031,0,0,0,.4-.732h.854a1.638,1.638,0,0,1-.312.864,2.058,2.058,0,0,1-.769.654,2.219,2.219,0,0,1-1.018.244,2.176,2.176,0,0,1-1.716-.72,2.869,2.869,0,0,1-.637-1.97v-.151a3.181,3.181,0,0,1,.283-1.372,2.157,2.157,0,0,1,.813-.933,2.309,2.309,0,0,1,1.252-.332,2.119,2.119,0,0,1,1.477.532,1.9,1.9,0,0,1,.627,1.382h-.854a1.245,1.245,0,0,0-.388-.842,1.208,1.208,0,0,0-.862-.33,1.264,1.264,0,0,0-1.067.5,2.328,2.328,0,0,0-.378,1.433v.171a2.281,2.281,0,0,0,.376,1.406A1.27,1.27,0,0,0,26.293,21.36Zm4.1.64h-.9V16.717h.9Zm-.977-6.685a.539.539,0,0,1,.134-.371.5.5,0,0,1,.4-.151.512.512,0,0,1,.4.151.534.534,0,0,1,.137.371.516.516,0,0,1-.137.366.521.521,0,0,1-.4.146.513.513,0,0,1-.4-.146A.521.521,0,0,1,29.414,15.315ZM35.1,22a1.9,1.9,0,0,1-.127-.557,2.015,2.015,0,0,1-1.5.654,1.865,1.865,0,0,1-1.282-.442,1.43,1.43,0,0,1-.5-1.121,1.494,1.494,0,0,1,.627-1.282,2.958,2.958,0,0,1,1.765-.457h.879v-.415a1.015,1.015,0,0,0-.283-.754,1.138,1.138,0,0,0-.835-.281,1.317,1.317,0,0,0-.811.244.719.719,0,0,0-.327.591h-.908a1.247,1.247,0,0,1,.281-.764,1.916,1.916,0,0,1,.762-.583,2.563,2.563,0,0,1,1.057-.215,2.089,2.089,0,0,1,1.431.457,1.647,1.647,0,0,1,.537,1.257v2.432a2.973,2.973,0,0,0,.186,1.157V22Zm-1.5-.688a1.588,1.588,0,0,0,.806-.22,1.329,1.329,0,0,0,.552-.571V19.437h-.708q-1.66,0-1.66.972a.822.822,0,0,0,.283.664A1.089,1.089,0,0,0,33.6,21.312ZM25.441,34H20.783v-.649l2.461-2.734A5.847,5.847,0,0,0,24,29.608a1.683,1.683,0,0,0,.208-.8,1.276,1.276,0,0,0-.337-.913,1.178,1.178,0,0,0-.9-.356,1.4,1.4,0,0,0-1.047.383,1.464,1.464,0,0,0-.374,1.067h-.9a2.1,2.1,0,0,1,.632-1.587,2.344,2.344,0,0,1,1.692-.605,2.252,2.252,0,0,1,1.567.52,1.774,1.774,0,0,1,.576,1.384,4.067,4.067,0,0,1-1.338,2.5l-1.9,2.065h3.569Z" transform="translate(-5864 -3132.89)" fill="#12263f"/></g></svg>