<svg xmlns="http://www.w3.org/2000/svg" width="1030" height="336" viewBox="0 0 1030 336"><g transform="translate(-285 -11650.785)"><g transform="translate(0 -1196.215)"><g transform="translate(285 12847)" fill="#fff" stroke="#707070" stroke-width="1"><rect width="1030" height="336" stroke="none"/><rect x="0.5" y="0.5" width="1029" height="335" fill="none"/></g><text transform="translate(612 12865)" fill="#12263f" font-size="16" font-family="Roboto-Bold, Roboto" font-weight="700"><tspan x="-181.848" y="17">Cronograma de actividades - Campaña publicitaria</tspan></text><text transform="translate(309 12958)" fill="#12263f" font-size="16" font-family="Roboto-Medium, Roboto" font-weight="500"><tspan x="0" y="17">Rediseño de la imagen de la marca</tspan></text><text transform="translate(650 12922)" fill="#12263f" font-size="16" font-family="Roboto-Medium, Roboto" font-weight="500"><tspan x="0" y="17" xml:space="preserve">15-abr.  20-abr.  25-abr.  30-abr.  5-may.  10-may.  15-may.  20-may.  25-may.  30-may.</tspan></text><text transform="translate(309 13000)" fill="#12263f" font-size="16" font-family="Roboto-Medium, Roboto" font-weight="500"><tspan x="0" y="17">Cambio del etiquetado de productos</tspan></text><text transform="translate(309 13042)" fill="#12263f" font-size="16" font-family="Roboto-Medium, Roboto" font-weight="500"><tspan x="0" y="17">Diseño de imágenes publicitarias</tspan></text><text transform="translate(309 13084)" fill="#12263f" font-size="16" font-family="Roboto-Medium, Roboto" font-weight="500"><tspan x="0" y="17">Publicación en medios de la nueva imagen</tspan></text><text transform="translate(309 13126)" fill="#12263f" font-size="16" font-family="Roboto-Medium, Roboto" font-weight="500"><tspan x="0" y="17">Evento de clausura en almacén</tspan></text><g transform="translate(650 12948)"><path d="M-7988-8176.676v207" transform="translate(7988 8176.676)" fill="none" stroke="#949494" stroke-width="1"/></g><g transform="translate(706 12948)"><path d="M-7988-8176.676v207" transform="translate(7988 8176.676)" fill="none" stroke="#949494" stroke-width="1"/></g><g transform="translate(766 12948)"><path d="M-7988-8176.676v207" transform="translate(7988 8176.676)" fill="none" stroke="#949494" stroke-width="1"/></g><g transform="translate(826 12948)"><path d="M-7988-8176.676v207" transform="translate(7988 8176.676)" fill="none" stroke="#949494" stroke-width="1"/></g><g transform="translate(886 12948)"><path d="M-7988-8176.676v207" transform="translate(7988 8176.676)" fill="none" stroke="#949494" stroke-width="1"/></g><g transform="translate(945 12948)"><path d="M-7988-8176.676v207" transform="translate(7988 8176.676)" fill="none" stroke="#949494" stroke-width="1"/></g><g transform="translate(1012 12948)"><path d="M-7988-8176.676v207" transform="translate(7988 8176.676)" fill="none" stroke="#949494" stroke-width="1"/></g><g transform="translate(1079 12948)"><path d="M-7988-8176.676v207" transform="translate(7988 8176.676)" fill="none" stroke="#949494" stroke-width="1"/></g><g transform="translate(1146 12948)"><path d="M-7988-8176.676v207" transform="translate(7988 8176.676)" fill="none" stroke="#949494" stroke-width="1"/></g><g transform="translate(1214 12948)"><path d="M-7988-8176.676v207" transform="translate(7988 8176.676)" fill="none" stroke="#949494" stroke-width="1"/></g><g transform="translate(1281 12948)"><path d="M-7988-8176.676v207" transform="translate(7988 8176.676)" fill="none" stroke="#949494" stroke-width="1"/></g><g transform="translate(1226 12948)"><path d="M-7988-8176.676v207" transform="translate(7988 8176.676)" fill="none" stroke="#f7f7f7" stroke-width="1"/></g><g transform="translate(1240.8 12948)"><path d="M-7988-8176.676v207" transform="translate(7988 8176.676)" fill="none" stroke="#f7f7f7" stroke-width="1"/></g><g transform="translate(1254.2 12948)"><path d="M-7988-8176.676v207" transform="translate(7988 8176.676)" fill="none" stroke="#f7f7f7" stroke-width="1"/></g><g transform="translate(1269 12948)"><path d="M-7988-8176.676v207" transform="translate(7988 8176.676)" fill="none" stroke="#f7f7f7" stroke-width="1"/></g><g transform="translate(-135)"><g transform="translate(1226 12948)"><path d="M-7988-8176.676v207" transform="translate(7988 8176.676)" fill="none" stroke="#f7f7f7" stroke-width="1"/></g><g transform="translate(1240.8 12948)"><path d="M-7988-8176.676v207" transform="translate(7988 8176.676)" fill="none" stroke="#f7f7f7" stroke-width="1"/></g><g transform="translate(1254.2 12948)"><path d="M-7988-8176.676v207" transform="translate(7988 8176.676)" fill="none" stroke="#f7f7f7" stroke-width="1"/></g><g transform="translate(1269 12948)"><path d="M-7988-8176.676v207" transform="translate(7988 8176.676)" fill="none" stroke="#f7f7f7" stroke-width="1"/></g></g><g transform="translate(-388)"><g transform="translate(1226 12948)"><path d="M-7988-8176.676v207" transform="translate(7988 8176.676)" fill="none" stroke="#f7f7f7" stroke-width="1"/></g><g transform="translate(1238 12948)"><path d="M-7988-8176.676v207" transform="translate(7988 8176.676)" fill="none" stroke="#f7f7f7" stroke-width="1"/></g><g transform="translate(1250 12948)"><path d="M-7988-8176.676v207" transform="translate(7988 8176.676)" fill="none" stroke="#f7f7f7" stroke-width="1"/></g><g transform="translate(1262 12948)"><path d="M-7988-8176.676v207" transform="translate(7988 8176.676)" fill="none" stroke="#f7f7f7" stroke-width="1"/></g></g><g transform="translate(-564)"><g transform="translate(1226 12948)"><path d="M-7988-8176.676v207" transform="translate(7988 8176.676)" fill="none" stroke="#f7f7f7" stroke-width="1"/></g><g transform="translate(1236.4 12948)"><path d="M-7988-8176.676v207" transform="translate(7988 8176.676)" fill="none" stroke="#f7f7f7" stroke-width="1"/></g><g transform="translate(1247.6 12948)"><path d="M-7988-8176.676v207" transform="translate(7988 8176.676)" fill="none" stroke="#f7f7f7" stroke-width="1"/></g><g transform="translate(1258 12948)"><path d="M-7988-8176.676v207" transform="translate(7988 8176.676)" fill="none" stroke="#f7f7f7" stroke-width="1"/></g></g><g transform="translate(-508)"><g transform="translate(1226 12948)"><path d="M-7988-8176.676v207" transform="translate(7988 8176.676)" fill="none" stroke="#f7f7f7" stroke-width="1"/></g><g transform="translate(1238 12948)"><path d="M-7988-8176.676v207" transform="translate(7988 8176.676)" fill="none" stroke="#f7f7f7" stroke-width="1"/></g><g transform="translate(1250 12948)"><path d="M-7988-8176.676v207" transform="translate(7988 8176.676)" fill="none" stroke="#f7f7f7" stroke-width="1"/></g><g transform="translate(1262 12948)"><path d="M-7988-8176.676v207" transform="translate(7988 8176.676)" fill="none" stroke="#f7f7f7" stroke-width="1"/></g></g><g transform="translate(-448)"><g transform="translate(1226 12948)"><path d="M-7988-8176.676v207" transform="translate(7988 8176.676)" fill="none" stroke="#f7f7f7" stroke-width="1"/></g><g transform="translate(1238 12948)"><path d="M-7988-8176.676v207" transform="translate(7988 8176.676)" fill="none" stroke="#f7f7f7" stroke-width="1"/></g><g transform="translate(1250 12948)"><path d="M-7988-8176.676v207" transform="translate(7988 8176.676)" fill="none" stroke="#f7f7f7" stroke-width="1"/></g><g transform="translate(1262 12948)"><path d="M-7988-8176.676v207" transform="translate(7988 8176.676)" fill="none" stroke="#f7f7f7" stroke-width="1"/></g></g><g transform="translate(-68)"><g transform="translate(1226 12948)"><path d="M-7988-8176.676v207" transform="translate(7988 8176.676)" fill="none" stroke="#f7f7f7" stroke-width="1"/></g><g transform="translate(1240.8 12948)"><path d="M-7988-8176.676v207" transform="translate(7988 8176.676)" fill="none" stroke="#f7f7f7" stroke-width="1"/></g><g transform="translate(1254.2 12948)"><path d="M-7988-8176.676v207" transform="translate(7988 8176.676)" fill="none" stroke="#f7f7f7" stroke-width="1"/></g><g transform="translate(1269 12948)"><path d="M-7988-8176.676v207" transform="translate(7988 8176.676)" fill="none" stroke="#f7f7f7" stroke-width="1"/></g></g><g transform="translate(-328)"><g transform="translate(1226 12948)"><path d="M-7988-8176.676v207" transform="translate(7988 8176.676)" fill="none" stroke="#f7f7f7" stroke-width="1"/></g><g transform="translate(1237.6 12948)"><path d="M-7988-8176.676v207" transform="translate(7988 8176.676)" fill="none" stroke="#f7f7f7" stroke-width="1"/></g><g transform="translate(1249.4 12948)"><path d="M-7988-8176.676v207" transform="translate(7988 8176.676)" fill="none" stroke="#f7f7f7" stroke-width="1"/></g><g transform="translate(1261 12948)"><path d="M-7988-8176.676v207" transform="translate(7988 8176.676)" fill="none" stroke="#f7f7f7" stroke-width="1"/></g></g><g transform="translate(-269)"><g transform="translate(1226 12948)"><path d="M-7988-8176.676v207" transform="translate(7988 8176.676)" fill="none" stroke="#f7f7f7" stroke-width="1"/></g><g transform="translate(1240.8 12948)"><path d="M-7988-8176.676v207" transform="translate(7988 8176.676)" fill="none" stroke="#f7f7f7" stroke-width="1"/></g><g transform="translate(1254.2 12948)"><path d="M-7988-8176.676v207" transform="translate(7988 8176.676)" fill="none" stroke="#f7f7f7" stroke-width="1"/></g><g transform="translate(1269 12948)"><path d="M-7988-8176.676v207" transform="translate(7988 8176.676)" fill="none" stroke="#f7f7f7" stroke-width="1"/></g></g><g transform="translate(-202)"><g transform="translate(1226 12948)"><path d="M-7988-8176.676v207" transform="translate(7988 8176.676)" fill="none" stroke="#f7f7f7" stroke-width="1"/></g><g transform="translate(1240.8 12948)"><path d="M-7988-8176.676v207" transform="translate(7988 8176.676)" fill="none" stroke="#f7f7f7" stroke-width="1"/></g><g transform="translate(1254.2 12948)"><path d="M-7988-8176.676v207" transform="translate(7988 8176.676)" fill="none" stroke="#f7f7f7" stroke-width="1"/></g><g transform="translate(1269 12948)"><path d="M-7988-8176.676v207" transform="translate(7988 8176.676)" fill="none" stroke="#f7f7f7" stroke-width="1"/></g></g><rect width="152" height="19" transform="translate(650 12958)" fill="#a3314f"/><rect width="72" height="19" transform="translate(814 13000)" fill="#a3314f"/><rect width="198" height="19" transform="translate(814 13042)" fill="#a3314f"/><rect width="257" height="19" transform="translate(1024 13084)" fill="#a3314f"/><rect width="12" height="19" transform="translate(1269 13126)" fill="#a3314f"/></g></g></svg>