<svg xmlns="http://www.w3.org/2000/svg" xmlns:xlink="http://www.w3.org/1999/xlink" width="121.518" height="105.533" viewBox="0 0 121.518 105.533"><defs><clipPath id="a"><rect width="121.518" height="105.533" fill="none"/></clipPath></defs><g clip-path="url(#a)"><path d="M60.3,6.47H81.457a1.6,1.6,0,0,1,1.6,1.6V32.737a1.6,1.6,0,1,1-3.2,0V9.668H60.3v5.685a1.6,1.6,0,0,1-1.6,1.6H24.351a1.6,1.6,0,0,1-1.6-1.6V9.668H3.2v92.667h76.66V87a1.6,1.6,0,1,1,3.2,0v16.938a1.6,1.6,0,0,1-1.6,1.6H1.6a1.6,1.6,0,0,1-1.6-1.6V8.069a1.6,1.6,0,0,1,1.6-1.6H22.752V1.6a1.6,1.6,0,0,1,1.6-1.6H58.705a1.6,1.6,0,0,1,1.6,1.6ZM16.469,32.387H66.587a1.6,1.6,0,0,0,0-3.2H16.469a1.6,1.6,0,1,0,0,3.2m0,57.388H66.587a1.6,1.6,0,0,0,0-3.2H16.469a1.6,1.6,0,1,0,0,3.2m0-14.346H49.531a1.6,1.6,0,1,0,0-3.2H16.469a1.6,1.6,0,1,0,0,3.2m0-14.347H49.531a1.6,1.6,0,0,0,0-3.2H16.469a1.6,1.6,0,1,0,0,3.2m0-14.348H49.531a1.6,1.6,0,1,0,0-3.2H16.469a1.6,1.6,0,1,0,0,3.2M57.106,3.2H25.95V13.754H57.106V3.2Z" fill="#3a525e" fill-rule="evenodd"/><path d="M218.24,148.7c1.692,1.418,2.759,2.305,3.734,3.115,7.616,6.329,11.333,9.418,17.253,16.572a1.6,1.6,0,0,1-.1,2.147L232.661,177a1.6,1.6,0,0,1-2.211.048c-7.109-5.889-10.2-9.607-16.507-17.2-.806-.97-1.675-2.016-3.117-3.736a24.216,24.216,0,1,1,7.414-7.415m-4.839,5.521c.9,1.075,1.98,2.378,2.99,3.593,5.838,7.026,8.854,10.654,15.042,15.893l4.4-4.4c-5.239-6.189-8.868-9.2-15.894-15.044-1.217-1.01-2.508-2.084-3.592-2.988q-.672.8-1.41,1.536t-1.536,1.41m-.725-33.4a21.024,21.024,0,1,0,6.158,14.866,20.959,20.959,0,0,0-6.158-14.866m-14.866-3.937a18.8,18.8,0,1,0,13.3,5.508,18.742,18.742,0,0,0-13.3-5.508m11.035,7.769a15.606,15.606,0,1,0,4.571,11.035,15.558,15.558,0,0,0-4.571-11.035" transform="translate(-118.075 -75.816)" fill="#fb4a0f" fill-rule="evenodd"/></g></svg>