<svg xmlns="http://www.w3.org/2000/svg" xmlns:xlink="http://www.w3.org/1999/xlink" width="121.519" height="106.976" viewBox="0 0 121.519 106.976"><defs><clipPath id="a"><rect width="121.518" height="106.976" fill="none"/></clipPath></defs><g clip-path="url(#a)"><path d="M66.873,157.128a20.157,20.157,0,1,1-14.253,5.9,20.1,20.1,0,0,1,14.253-5.9m12.059,8.1a17.054,17.054,0,1,0,4.995,12.059,17,17,0,0,0-4.995-12.059" transform="translate(-31.572 -106.192)" fill="#fb4a0f" fill-rule="evenodd"/><path d="M43.122,120.471l-.039-.013a5.144,5.144,0,0,1-3.467-3.837l-1.073-4.9h-6.5l-1.073,4.9a5.2,5.2,0,0,1-1.224,2.4l0,0a5.2,5.2,0,0,1-2.263,1.447l-.013,0a5.125,5.125,0,0,1-5.064-1.062l-3.751-3.337-5.259,3.82,2,4.567a5.113,5.113,0,0,1-.571,5.165l-.036.047a5.117,5.117,0,0,1-4.709,2.1l-4.955-.49-2.01,6.186,4.239,2.481a5.112,5.112,0,0,1,2.574,4.517v.117a5.2,5.2,0,0,1-.6,2.451l-.07.137a5.18,5.18,0,0,1-1.9,1.893L3.12,151.542l2.01,6.186,4.817-.477a5.1,5.1,0,0,1,4.737,2.141l.105.146a5.108,5.108,0,0,1,.559,5.145l-1.94,4.43,5.259,3.821,3.581-3.186a5.144,5.144,0,0,1,5.093-1.056l.2.068a5.123,5.123,0,0,1,3.493,3.847l1.023,4.671h6.5l1.025-4.682a5.117,5.117,0,0,1,3.411-3.818l.276-.094a5.146,5.146,0,0,1,5.1,1.055l3.582,3.187,5.259-3.822-1.948-4.447a5.121,5.121,0,0,1,.556-5.148l.1-.129a5.1,5.1,0,0,1,4.739-2.143l4.826.478,2.01-6.186-4.252-2.49a5.12,5.12,0,0,1-2.574-4.484v-.093a5.108,5.108,0,0,1,2.574-4.52l4.248-2.487-1.939-5.969a.288.288,0,0,0-.112-.152.285.285,0,0,0-.183-.043l-4.748.47a5.124,5.124,0,0,1-4.714-2.106l-.023-.032a5.112,5.112,0,0,1-.571-5.165l2-4.575-5.259-3.82-3.758,3.343a5.124,5.124,0,0,1-5.056,1.064m.946-2.945a2.123,2.123,0,0,0,1.087.068,2.1,2.1,0,0,0,.962-.5l3.81-3.39a3.011,3.011,0,0,1,3.773-.188l5.369,3.9a2.995,2.995,0,0,1,.989,3.645l-2.031,4.636a2.033,2.033,0,0,0,.231,2.1l.023.032a2.021,2.021,0,0,0,1.915.858l4.748-.47a3.352,3.352,0,0,1,3.544,2.316l1.96,6.032a3,3,0,0,1-.045,2l0,.006a2.98,2.98,0,0,1-1.3,1.524L64.8,142.609a2.038,2.038,0,0,0-1.047,1.838v.108a2.022,2.022,0,0,0,1.047,1.817L69.11,148.9a3,3,0,0,1,1.3,1.523l.038.113a3,3,0,0,1,.006,1.891L68.4,158.735a2.991,2.991,0,0,1-3.16,2.065l-4.894-.485a2.045,2.045,0,0,0-1.926.87l-.1.139a2.143,2.143,0,0,0-.4,1.013,2.116,2.116,0,0,0,.179,1.082l1.975,4.509a3,3,0,0,1,.154,1.99l0,.006a3,3,0,0,1-1.142,1.648l-5.369,3.9a3.01,3.01,0,0,1-3.772-.188L46.3,172.053a2,2,0,0,0-2.066-.424l-.269.084a2.019,2.019,0,0,0-1.357,1.538l-1.041,4.756a3.013,3.013,0,0,1-2.945,2.375H31.99a3.012,3.012,0,0,1-2.945-2.375l-1.039-4.745a2.028,2.028,0,0,0-1.414-1.556l-.22-.07a2.142,2.142,0,0,0-1.1-.077,2.1,2.1,0,0,0-.966.5l-3.633,3.232a3.01,3.01,0,0,1-3.773.188l-5.369-3.9a3,3,0,0,1-.989-3.644l1.967-4.492a2.12,2.12,0,0,0,.178-1.084,2.1,2.1,0,0,0-.4-1.012l-.112-.151a2.042,2.042,0,0,0-1.925-.869l-4.885.484a2.992,2.992,0,0,1-3.16-2.065l-2.05-6.312a3,3,0,0,1,.044-2l0-.005a2.981,2.981,0,0,1,1.3-1.524L5.791,146.4a2.1,2.1,0,0,0,.772-.765l.051-.083a2.135,2.135,0,0,0,.223-.971v-.123a2.041,2.041,0,0,0-1.047-1.837l-4.3-2.516a3,3,0,0,1-1.3-1.523l-.039-.115a3.006,3.006,0,0,1-.006-1.89l2.05-6.312a3,3,0,0,1,3.16-2.065l5.023.5a2.034,2.034,0,0,0,1.915-.853l.031-.047a2.042,2.042,0,0,0,.23-2.1l-2.028-4.628a3,3,0,0,1-.154-1.99v-.006a3,3,0,0,1,1.142-1.649l5.369-3.9a3.011,3.011,0,0,1,3.772.188l3.8,3.383a2.024,2.024,0,0,0,2.057.431l.013,0a2.106,2.106,0,0,0,.921-.578v-.006a2.094,2.094,0,0,0,.484-.969l1.09-4.977a3.013,3.013,0,0,1,2.944-2.375h6.636a3.015,3.015,0,0,1,2.945,2.375l1.089,4.977a2.006,2.006,0,0,0,1.406,1.553Z" transform="translate(0 -73.405)" fill="#3a525e" fill-rule="evenodd"/><path d="M201.525,5.924a.9.9,0,0,0,.457.033.868.868,0,0,0,.4-.212L204.9,3.5a2.518,2.518,0,0,1,3.153-.157l3.555,2.583a2.5,2.5,0,0,1,.827,3.046l-1.344,3.069a.826.826,0,0,0,.1.871l.015.021a.817.817,0,0,0,.795.357l3.144-.312a2.746,2.746,0,0,1,1.778.431l0,0a2.734,2.734,0,0,1,1.112,1.459l1.3,3.992.03.108a2.494,2.494,0,0,1-.068,1.561l0,.006a2.5,2.5,0,0,1-1.083,1.273l-2.852,1.67a.88.88,0,0,0-.325.317.894.894,0,0,0-.11.447v.073a.88.88,0,0,0,.108.438h.006a.873.873,0,0,0,.32.315l2.855,1.671a2.507,2.507,0,0,1,1.123,2.948l-1.358,4.179a2.516,2.516,0,0,1-1.014,1.332l-.142.082a2.5,2.5,0,0,1-1.485.311l-3.24-.321a.893.893,0,0,0-.453.068.882.882,0,0,0-.347.293l-.065.095a.823.823,0,0,0-.1.87l1.307,2.985a2.5,2.5,0,0,1,.129,1.668l-.036.114a2.517,2.517,0,0,1-.92,1.264l-3.555,2.583a2.519,2.519,0,0,1-3.153-.157l-2.406-2.14a.871.871,0,0,0-.4-.214.9.9,0,0,0-.459.039l-.19.059a.815.815,0,0,0-.538.627l-.689,3.149a2.524,2.524,0,0,1-2.462,1.987h-4.394a2.523,2.523,0,0,1-2.462-1.987l-.688-3.142a.821.821,0,0,0-.584-.643l-.15-.048a.906.906,0,0,0-.452-.036l-.039.007a.9.9,0,0,0-.364.206l-2.406,2.14a2.519,2.519,0,0,1-3.153.158l-3.554-2.583a2.5,2.5,0,0,1-.828-3.046l1.3-2.973a.9.9,0,0,0,.076-.454.878.878,0,0,0-.169-.418l-.076-.1a.839.839,0,0,0-.8-.36l-3.289.325a2.5,2.5,0,0,1-1.571-.4l-.136-.1a2.511,2.511,0,0,1-.878-1.232L171.8,29.7a2.51,2.51,0,0,1,.038-1.669l0-.006a2.5,2.5,0,0,1,1.083-1.273l2.842-1.664a.848.848,0,0,0,.435-.754V24.25a.89.89,0,0,0-.111-.447.868.868,0,0,0-.324-.317l-2.846-1.666a2.506,2.506,0,0,1-1.085-1.273l-.042-.125a2.51,2.51,0,0,1,0-1.55l1.358-4.179a2.5,2.5,0,0,1,2.635-1.726c1.1.137,2.23.22,3.331.329a.887.887,0,0,0,.45-.064.872.872,0,0,0,.346-.287l.021-.033a.885.885,0,0,0,.171-.415v-.006a.892.892,0,0,0-.077-.45l-1.342-3.064a2.488,2.488,0,0,1,.828-3.039V5.932l3.554-2.583a2.519,2.519,0,0,1,3.154.158l2.518,2.239a.865.865,0,0,0,.4.212.887.887,0,0,0,.457-.033l.01,0a.818.818,0,0,0,.577-.641l.722-3.3A2.526,2.526,0,0,1,193.364,0h4.394a2.524,2.524,0,0,1,2.462,1.986l.721,3.295a.82.82,0,0,0,.578.642Zm1.088,3.063a3.943,3.943,0,0,1-2.034-.117l-.006,0a3.912,3.912,0,0,1-2.663-2.932L197.29,3.1h-3.459l-.619,2.833a3.913,3.913,0,0,1-2.663,2.932l-.008,0a3.916,3.916,0,0,1-3.86-.809l-2.169-1.929-2.8,2.035,1.156,2.638a3.906,3.906,0,0,1-.434,3.938l-.026.033a3.913,3.913,0,0,1-3.59,1.6l-2.861-.283-1.071,3.3,2.444,1.43a3.9,3.9,0,0,1,1.962,3.443v.077a3.88,3.88,0,0,1-1.962,3.415l-2.44,1.428,1.071,3.3,2.77-.275a3.894,3.894,0,0,1,3.613,1.633l.069.1a3.9,3.9,0,0,1,.425,3.921L181.718,40.4l2.8,2.035,2.057-1.829a3.962,3.962,0,0,1,1.751-.91l.081-.019a3.951,3.951,0,0,1,2.052.123l.132.046a3.917,3.917,0,0,1,2.663,2.933l.586,2.68H197.3l.588-2.687a3.9,3.9,0,0,1,2.578-2.9l.211-.075a3.94,3.94,0,0,1,3.886.806l2.057,1.83,2.8-2.035L208.3,37.838a3.913,3.913,0,0,1,.423-3.925l.065-.089a4,4,0,0,1,1.584-1.306A3.951,3.951,0,0,1,212.4,32.2l2.777.275,1.07-3.3L213.8,27.739a3.951,3.951,0,0,1-1.448-1.443l0,0a3.96,3.96,0,0,1-.519-1.964v-.07a3.9,3.9,0,0,1,1.962-3.444l2.45-1.434-1.071-3.3-2.874.285a3.916,3.916,0,0,1-3.594-1.605l-.015-.021a3.96,3.96,0,0,1-.754-1.912v-.006a3.941,3.941,0,0,1,.319-2.021l1.158-2.643-2.8-2.035L204.439,8.06a3.955,3.955,0,0,1-1.826.927m-7.048,2.427a12.867,12.867,0,1,0,9.1,3.769,12.825,12.825,0,0,0-9.1-3.769m6.9,5.963a9.765,9.765,0,1,0,2.86,6.9,9.736,9.736,0,0,0-2.86-6.9" transform="translate(-116.02)" fill="#3a525e" fill-rule="evenodd"/><path d="M257.245,169.577l.081.026a.879.879,0,0,0,.419.021.868.868,0,0,0,.4-.212l2.523-2.244a2.518,2.518,0,0,1,3.153-.158l3.555,2.583a2.5,2.5,0,0,1,.827,3.046l-1.345,3.069a.9.9,0,0,0-.077.451.883.883,0,0,0,.173.42l.016.021a.816.816,0,0,0,.795.356l3.143-.311a2.748,2.748,0,0,1,2.894,1.893l1.3,3.992.031.109a2.5,2.5,0,0,1-.069,1.567l-.055.126a2.52,2.52,0,0,1-1.03,1.146l-2.852,1.67a.878.878,0,0,0-.325.317.889.889,0,0,0-.11.447v.073a.879.879,0,0,0,.115.438l.033.061a.928.928,0,0,0,.288.254l2.855,1.671a2.506,2.506,0,0,1,1.123,2.948l-1.358,4.179a2.5,2.5,0,0,1-2.635,1.726c-1.068-.134-2.174-.215-3.247-.321a.889.889,0,0,0-.453.068.874.874,0,0,0-.348.294l-.069.092,0,0a.88.88,0,0,0-.173.418.9.9,0,0,0,.077.453l1.307,2.985a2.5,2.5,0,0,1,.129,1.661l0,.006a2.5,2.5,0,0,1-.954,1.372v.006l-3.555,2.583a2.516,2.516,0,0,1-3.153-.158l-2.406-2.14a.879.879,0,0,0-.4-.214.892.892,0,0,0-.459.039l-.19.059a.814.814,0,0,0-.538.628l-.689,3.149a2.524,2.524,0,0,1-2.462,1.986h-4.394a2.525,2.525,0,0,1-2.462-1.986l-.688-3.142a.82.82,0,0,0-.584-.643l-.149-.047a.9.9,0,0,0-.452-.036l-.038.008a.894.894,0,0,0-.364.206l-2.406,2.139a2.518,2.518,0,0,1-3.153.157l-3.555-2.583a2.5,2.5,0,0,1-.827-3.046l1.3-2.973a.9.9,0,0,0,.077-.454.878.878,0,0,0-.169-.418l-.076-.1a.877.877,0,0,0-.348-.292.887.887,0,0,0-.452-.067l-3.233.321a2.511,2.511,0,0,1-1.627-.394l-.136-.1a2.51,2.51,0,0,1-.879-1.232l-1.358-4.18a2.509,2.509,0,0,1,.037-1.669l0-.006a2.494,2.494,0,0,1,1.083-1.273l2.843-1.664v-.006a.864.864,0,0,0,.32-.31.874.874,0,0,0,.114-.438v-.084a.89.89,0,0,0-.11-.447.876.876,0,0,0-.324-.317l-2.846-1.665a2.509,2.509,0,0,1-1.085-1.273l-.042-.125a2.513,2.513,0,0,1,0-1.55l1.358-4.179a2.514,2.514,0,0,1,1.014-1.332l.143-.083a2.5,2.5,0,0,1,1.484-.31l3.325.329a.889.889,0,0,0,.45-.064.869.869,0,0,0,.345-.288l.021-.033a.882.882,0,0,0,.171-.415v-.007a.889.889,0,0,0-.077-.45l-1.342-3.064a2.5,2.5,0,0,1,.827-3.046l3.555-2.583a2.509,2.509,0,0,1,3.147.157h.006l2.518,2.24a.875.875,0,0,0,.4.212.892.892,0,0,0,.458-.033l.009,0a.819.819,0,0,0,.577-.641l.722-3.3a2.522,2.522,0,0,1,2.462-1.986h4.394a2.526,2.526,0,0,1,2.462,1.98l.721,3.3a.885.885,0,0,0,.193.4l0,0a.861.861,0,0,0,.346.229m1.129,3.078a3.936,3.936,0,0,1-2.016-.113l-.023-.007a3.95,3.95,0,0,1-1.728-1.1v-.006a3.968,3.968,0,0,1-.936-1.825l-.62-2.833h-3.459l-.62,2.833a3.912,3.912,0,0,1-2.663,2.932l-.008,0a3.913,3.913,0,0,1-3.86-.809l-2.169-1.929-2.8,2.034,1.155,2.638a3.907,3.907,0,0,1-.434,3.938l-.026.033a3.914,3.914,0,0,1-3.589,1.6l-2.861-.284-1.071,3.3,2.443,1.43a3.9,3.9,0,0,1,1.962,3.443v.077a3.9,3.9,0,0,1-1.962,3.42l0,0-2.438,1.427,1.071,3.3,2.771-.274A3.9,3.9,0,0,1,238.1,197.5l.069.1a3.9,3.9,0,0,1,.425,3.921l-1.116,2.548,2.8,2.034,2.057-1.829a3.966,3.966,0,0,1,1.752-.91l.08-.019a3.948,3.948,0,0,1,2.052.123l.132.045a3.918,3.918,0,0,1,2.663,2.934l.587,2.679h3.459l.588-2.686a3.906,3.906,0,0,1,2.576-2.9l.214-.075a3.939,3.939,0,0,1,3.886.806l2.057,1.83,2.8-2.035-1.121-2.559a3.912,3.912,0,0,1,.423-3.925l0,0,.061-.086a3.9,3.9,0,0,1,3.613-1.634l2.777.275,1.07-3.3-2.452-1.435a3.961,3.961,0,0,1-1.355-1.3l-.093-.143A3.966,3.966,0,0,1,267.6,188v-.07a3.9,3.9,0,0,1,1.962-3.444l2.45-1.434-1.071-3.3-2.873.285a3.917,3.917,0,0,1-3.594-1.6l-.016-.021a3.962,3.962,0,0,1-.754-1.911v-.006a3.95,3.95,0,0,1,.319-2.021l1.158-2.643-2.8-2.035-2.174,1.934a3.965,3.965,0,0,1-1.827.927m-7.047,2.427a12.867,12.867,0,1,0,9.1,3.768,12.827,12.827,0,0,0-9.1-3.768m6.9,5.963a9.765,9.765,0,1,0,2.86,6.9,9.733,9.733,0,0,0-2.86-6.9" transform="translate(-153.706 -110.611)" fill="#3a525e" fill-rule="evenodd"/></g></svg>