<svg xmlns="http://www.w3.org/2000/svg" xmlns:xlink="http://www.w3.org/1999/xlink" width="121.519" height="107.876" viewBox="0 0 121.519 107.876"><defs><clipPath id="a"><rect width="121.518" height="107.876" fill="none"/></clipPath></defs><g clip-path="url(#a)"><path d="M111.6,0a9.837,9.837,0,0,1,3.783.757,9.953,9.953,0,0,1,5.374,5.374,9.839,9.839,0,0,1,.757,3.783V76.407a9.825,9.825,0,0,1-.757,3.782,9.957,9.957,0,0,1-5.375,5.375,9.828,9.828,0,0,1-3.783.757H83.3l.068.936c.572,7.9.95,13.137,10.141,14.362a3.022,3.022,0,0,1,2.631,2.992,3.453,3.453,0,0,1-.772,2.26,2.841,2.841,0,0,1-2.253,1H28.4a3.017,3.017,0,0,1-2.131-.887l-.01-.01a3.018,3.018,0,0,1-.884-2.127,3.461,3.461,0,0,1,.635-2.1,2.845,2.845,0,0,1,2-1.128c9.191-1.225,9.57-6.458,10.141-14.362l.068-.936H9.914a9.842,9.842,0,0,1-3.784-.757A9.955,9.955,0,0,1,.757,80.189,9.835,9.835,0,0,1,0,76.407V9.914A9.843,9.843,0,0,1,.757,6.13,9.951,9.951,0,0,1,6.13.757,9.843,9.843,0,0,1,9.914,0ZM80.028,86.32H41.49L41.4,87.486c-.656,9.069-1.1,15.212-11.447,17.12h61.6c-10.346-1.908-10.791-8.051-11.447-17.12ZM111.6,83.052a6.581,6.581,0,0,0,2.532-.5,6.765,6.765,0,0,0,3.612-3.613,6.574,6.574,0,0,0,.5-2.531V9.914a6.578,6.578,0,0,0-.5-2.532,6.764,6.764,0,0,0-3.612-3.612,6.587,6.587,0,0,0-2.532-.5H9.914a6.592,6.592,0,0,0-2.533.5A6.763,6.763,0,0,0,3.77,7.381a6.586,6.586,0,0,0-.5,2.533V76.407a6.584,6.584,0,0,0,.5,2.532A6.765,6.765,0,0,0,7.382,82.55a6.584,6.584,0,0,0,2.532.5Zm-1.16-71.978H11.074V75.246h99.37ZM9.914,7.805a2.091,2.091,0,0,0-.849.185A2.149,2.149,0,0,0,7.991,9.065l-.027.064a2.027,2.027,0,0,0-.158.786V76.407a2.031,2.031,0,0,0,.185.849l.056.113a2.134,2.134,0,0,0,1.005.955l.165.066a2.01,2.01,0,0,0,.7.127H111.6a2.051,2.051,0,0,0,.825-.177,2.138,2.138,0,0,0,.66-.448,1.723,1.723,0,0,0,.145-.166,2.1,2.1,0,0,0,.287-.456,2.034,2.034,0,0,0,.193-.861V9.914a2.044,2.044,0,0,0-.193-.862l-.076-.145a2.1,2.1,0,0,0-.357-.478A2.14,2.14,0,0,0,112.466,8a2.046,2.046,0,0,0-.862-.192Z" transform="translate(0 0)" fill="#3a525e" fill-rule="evenodd"/><path d="M66.16,81.3H76.173a1.635,1.635,0,0,1,1.634,1.634V99.856a1.635,1.635,0,0,1-1.634,1.634H66.16a1.635,1.635,0,0,1-1.634-1.634V82.934A1.635,1.635,0,0,1,66.16,81.3m8.378,3.269H67.795V98.221h6.744ZM140.59,67.376h-6.744V98.221h6.744Zm-8.378-3.269h10.013a1.635,1.635,0,0,1,1.634,1.634V99.856a1.635,1.635,0,0,1-1.634,1.634H132.211a1.635,1.635,0,0,1-1.634-1.634V65.742a1.635,1.635,0,0,1,1.634-1.634M115.7,51.472h10.013a1.635,1.635,0,0,1,1.634,1.634v46.75a1.635,1.635,0,0,1-1.634,1.634H115.7a1.635,1.635,0,0,1-1.634-1.634V53.106a1.635,1.635,0,0,1,1.634-1.634m8.378,3.269h-6.744V98.221h6.744ZM91.051,67.376H84.307V98.221h6.744Zm-8.379-3.269H92.686a1.635,1.635,0,0,1,1.634,1.634V99.856a1.635,1.635,0,0,1-1.634,1.634H82.673a1.635,1.635,0,0,1-1.634-1.634V65.742a1.635,1.635,0,0,1,1.634-1.634m24.892,12.231H100.82V98.221h6.744Zm-8.378-3.269H109.2a1.635,1.635,0,0,1,1.634,1.634V99.856a1.635,1.635,0,0,1-1.634,1.634H99.186a1.635,1.635,0,0,1-1.634-1.634V74.7a1.635,1.635,0,0,1,1.634-1.634" transform="translate(-43.433 -34.646)" fill="#fb4a0f" fill-rule="evenodd"/></g></svg>