<svg xmlns="http://www.w3.org/2000/svg" xmlns:xlink="http://www.w3.org/1999/xlink" width="121.519" height="120.466" viewBox="0 0 121.519 120.466"><defs><clipPath id="a"><rect width="121.518" height="120.466" fill="none"/></clipPath></defs><g clip-path="url(#a)"><path d="M48.231,44.509a1.882,1.882,0,0,1,0-3.764H77.076a1.882,1.882,0,0,1,0,3.764ZM68.761,6.352V1.882A1.882,1.882,0,0,0,66.879,0H28.809a1.882,1.882,0,0,0-1.882,1.882v4.47H1.882A1.882,1.882,0,0,0,0,8.234V118.583a1.883,1.883,0,0,0,1.882,1.883H93.806a1.883,1.883,0,0,0,1.882-1.883V89.857a1.882,1.882,0,1,0-3.764,0V116.7H3.764V10.117H26.927v5.407a1.883,1.883,0,0,0,1.882,1.882h38.07a1.882,1.882,0,0,0,1.882-1.882V10.117H91.923V27.993a1.882,1.882,0,0,0,3.764,0V8.234a1.882,1.882,0,0,0-1.882-1.882ZM65,3.764v9.877H30.691V3.764ZM48.231,88.338a1.882,1.882,0,0,1,0-3.764H61.489a1.882,1.882,0,1,1,0,3.764Zm0,11.139a1.882,1.882,0,0,1,0-3.764H61.489a1.882,1.882,0,1,1,0,3.764Zm0-38.325a1.882,1.882,0,0,1,0-3.764H72.463a1.882,1.882,0,1,1,0,3.764Zm0,11.14a1.882,1.882,0,0,1,0-3.764h18.08a1.882,1.882,0,1,1,0,3.764Zm-33.7,20.424A1.879,1.879,0,1,1,17.322,90.2l5.694,6.341,11.231-13.1A1.877,1.877,0,0,1,37.1,85.881L24.537,100.538a1.816,1.816,0,0,1-.231.25,1.88,1.88,0,0,1-2.655-.139Zm0-27.186a1.879,1.879,0,1,1,2.794-2.514l5.694,6.341,11.231-13.1A1.877,1.877,0,0,1,37.1,58.7L24.537,73.352a1.879,1.879,0,0,1-2.886.111Zm0-27.185a1.879,1.879,0,1,1,2.794-2.515l5.694,6.341,11.231-13.1A1.877,1.877,0,1,1,37.1,31.51L24.537,46.167a1.84,1.84,0,0,1-.231.25,1.88,1.88,0,0,1-2.655-.14Zm33.7-4.976a1.882,1.882,0,0,1,0-3.764H77.076a1.882,1.882,0,0,1,0,3.764Z" fill="#3a525e" fill-rule="evenodd"/><path d="M226.728,56.616l14.426,8.329a1.874,1.874,0,0,1,.691,2.558l-6,10.4-.059.094-27.791,48.137a1.87,1.87,0,0,1-.74.79l-14.422,8.327a1.882,1.882,0,0,1-2.933-1.561v-16.78a1.891,1.891,0,0,1,.087-.551,1.8,1.8,0,0,1,.171-.391l33.909-58.732a1.878,1.878,0,0,1,2.566-.683Zm-33.066,73.821,8.895-5.135-8.895-5.136Zm38-52.784-11.282-6.517-26.032,45.087,11.283,6.515Zm-9.408-9.762L233.53,74.4l4.128-7.149-11.28-6.512Z" transform="translate(-120.576 -35.749)" fill="#fb4a0f" fill-rule="evenodd"/></g></svg>