<svg xmlns="http://www.w3.org/2000/svg" xmlns:xlink="http://www.w3.org/1999/xlink" width="121.518" height="118.989" viewBox="0 0 121.518 118.989"><defs><clipPath id="a"><rect width="121.518" height="118.989" fill="none"/></clipPath></defs><g clip-path="url(#a)"><path d="M27.56,0H66.169a1.99,1.99,0,0,1,1.99,1.99V7.272H91.738a1.99,1.99,0,0,1,1.99,1.99V30.578a1.99,1.99,0,1,1-3.98,0V11.252H68.159v6.2a1.99,1.99,0,0,1-1.99,1.99H27.56a1.99,1.99,0,0,1-1.99-1.99v-6.2H3.981V115.008H89.749v-11.5a1.99,1.99,0,1,1,3.98,0V117a1.99,1.99,0,0,1-1.99,1.99H1.99A1.99,1.99,0,0,1,0,117V9.262A1.99,1.99,0,0,1,1.99,7.272h23.58V1.99A1.99,1.99,0,0,1,27.56,0M18.7,36.785H75.027a1.99,1.99,0,0,0,0-3.98H18.7a1.99,1.99,0,1,0,0,3.98m0,64.5H75.027a1.99,1.99,0,0,0,0-3.98H18.7a1.99,1.99,0,1,0,0,3.98m0-16.124H55.858a1.99,1.99,0,1,0,0-3.98H18.7a1.99,1.99,0,1,0,0,3.98m0-16.124H55.858a1.99,1.99,0,1,0,0-3.98H18.7a1.99,1.99,0,1,0,0,3.98m0-16.124H55.858a1.99,1.99,0,1,0,0-3.98H18.7a1.99,1.99,0,1,0,0,3.98M64.179,3.98H29.551V15.458H64.179V3.98Z" transform="translate(-0.001)" fill="#3a525e" fill-rule="evenodd"/><path d="M174.567,127.317a1.987,1.987,0,1,1,2.954-2.658l9.421,10.492,17.9-20.887a1.985,1.985,0,0,1,3.016,2.581l-19.313,22.53a1.99,1.99,0,0,1-3.051.117ZM191.2,97.077a29.782,29.782,0,1,0,21.058,8.723A29.688,29.688,0,0,0,191.2,97.077m18.244,11.537A25.8,25.8,0,1,0,217,126.857a25.72,25.72,0,0,0-7.557-18.244" transform="translate(-99.46 -59.815)" fill="#fb4a0f" fill-rule="evenodd"/></g></svg>