<svg xmlns="http://www.w3.org/2000/svg" xmlns:xlink="http://www.w3.org/1999/xlink" width="399.99" height="480.787" viewBox="0 0 399.99 480.787"><defs><clipPath id="a"><rect width="399.99" height="480.787" fill="none"/></clipPath><clipPath id="c"><rect width="144.828" height="413.585" fill="none"/></clipPath><clipPath id="d"><rect width="233.548" height="306.669" fill="none"/></clipPath><clipPath id="e"><rect width="151.215" height="151.214" fill="none"/></clipPath><clipPath id="f"><rect width="97.061" height="83.419" fill="none"/></clipPath><clipPath id="g"><rect width="113.63" height="95.723" fill="none"/></clipPath><clipPath id="h"><rect width="117.109" height="102.015" fill="none"/></clipPath></defs><g transform="translate(-915 -1512.138)"><g transform="translate(915 1512.138)"><g clip-path="url(#a)"><g clip-path="url(#a)"><path d="M334.742,467.6H3.717A3.716,3.716,0,0,1,0,463.887V35.284a3.717,3.717,0,0,1,3.717-3.717H334.742a3.717,3.717,0,0,1,3.716,3.717v428.6a3.716,3.716,0,0,1-3.716,3.717" transform="translate(0 5.283)" fill="#7a645a"/><rect width="315.593" height="413.498" transform="translate(11.433 48.119)" fill="#fff"/><rect width="315.592" height="48.579" transform="translate(11.544 48.119)" fill="#f1ba21"/><rect width="315.593" height="15.992" transform="translate(11.524 96.699)" fill="#aae0eb"/><rect width="315.592" height="15.992" transform="translate(11.313 445.624)" fill="#aae0eb"/><path d="M29.249,377.77h-.96v-.96h.96Zm0-4.8h-.96v-.958h.96Zm0-4.8h-.96v-.96h.958Zm0-4.8H28.3v-.96h.96Zm0-4.8H28.3v-.96h.96Zm0-4.8H28.3v-.958h.96Zm0-4.8h-.96v-.958h.96Zm0-4.8h-.96v-.96h.96Zm0-4.8h-.96v-.96h.958Zm0-4.8h-.96v-.96h.96Zm0-4.8h-.96v-.96h.96Zm0-4.8h-.96v-.958h.96Zm0-4.8h-.96v-.96h.96Zm0-4.8h-.958v-.96h.96Zm0-4.8h-.96v-.96h.958Zm0-4.8h-.958v-.958h.96Zm0-4.8h-.96v-.96H29.3Zm0-4.8h-.958v-.96h.96Zm0-4.8h-.96v-.96H29.3Zm0-4.8h-.958v-.96h.96Zm0-4.8h-.96v-.96h.958Zm0-4.8h-.958v-.958h.96Zm0-4.8h-.96v-.96h.958Zm0-4.8h-.958v-.96h.96Zm0-4.8h-.96v-.96h.958Zm0-4.8h-.958V256.9h.96Zm0-4.8h-.96v-.96h.958Zm0-4.8h-.958v-.96h.96Zm0-4.8h-.96v-.96h.958Zm0-4.8h-.958v-.96h.96Zm0-4.8h-.96v-.958h.958Zm0-4.8h-.96v-.96h.96Zm0-4.8h-.96v-.96h.96Zm0-4.8h-.96v-.96h.96Zm0-4.8h-.96v-.96h.96Zm0-4.8h-.96v-.958h.96Zm0-4.8h-.96v-.96h.96Zm0-4.8H28.4v-.96h.96Zm0-4.8H28.4v-.96h.96Zm0-4.8H28.4v-.96h.96Zm0-4.8h-.96v-.958h.96Zm0-4.8h-.96v-.96h.96Zm0-4.8h-.96v-.96h.96Zm0-4.8h-.96v-.96h.96Zm0-4.8h-.96v-.96h.96Zm0-4.8h-.96v-.958h.96Zm0-4.8h-.96v-.958h.96Zm0-4.8h-.96v-.96h.958Zm0-4.8h-.96v-.96h.96Zm0-4.8h-.96v-.96h.96Zm0-4.8h-.958v-.958h.96Zm0-4.8h-.96v-.96h.96Zm0-4.8h-.96v-.96h.96Zm0-4.8h-.96v-.96H29.4Zm0-4.8h-.96v-.96h.96Zm0-4.8h-.96v-.958h.96Z" transform="translate(4.734 18.912)" fill="#8ad2e0"/><rect width="71.578" height="2.978" transform="translate(69.832 148.413)" fill="#8ad2e0"/><rect width="35.754" height="5.911" transform="translate(51.582 135.317)" fill="#8ad2e0"/><rect width="47.558" height="5.911" transform="translate(97.711 135.348)" fill="#8ad2e0"/><rect width="64.148" height="5.912" transform="translate(51.548 190.938)" fill="#8ad2e0"/><rect width="20.208" height="5.912" transform="translate(127.502 190.971)" fill="#8ad2e0"/><rect width="21.679" height="5.912" transform="translate(51.504 263.202)" fill="#8ad2e0"/><rect width="42.124" height="5.911" transform="translate(89.018 263.232)" fill="#8ad2e0"/><rect width="34.784" height="5.911" transform="translate(51.454 345.724)" fill="#8ad2e0"/><rect width="42.002" height="5.911" transform="translate(98.028 345.754)" fill="#8ad2e0"/><rect width="17.877" height="5.912" transform="translate(51.428 389.762)" fill="#8ad2e0"/><rect width="52.835" height="5.912" transform="translate(83.663 389.792)" fill="#8ad2e0"/><path d="M53.424,131.463l-4.12-2.781,4.123-2.776,2.011,1.358-2.111,1.421,2.108,1.423Z" transform="translate(8.251 21.071)" fill="#8ad2e0"/><rect width="49.775" height="2.978" transform="translate(69.825 160.186)" fill="#8ad2e0"/><rect width="14.3" height="2.978" transform="translate(69.825 172.511)" fill="#8ad2e0"/><path d="M53.418,141.556l-4.12-2.783L53.422,136l2.011,1.358-2.111,1.421,2.108,1.425Z" transform="translate(8.25 22.759)" fill="#8ad2e0"/><path d="M53.412,151.646l-4.12-2.781,4.123-2.776,2.011,1.358-2.111,1.421,2.108,1.423Z" transform="translate(8.249 24.448)" fill="#8ad2e0"/><rect width="35.789" height="2.977" transform="translate(69.797 205.93)" fill="#8ad2e0"/><path d="M53.394,180.745l-4.12-2.781,4.123-2.778,2.011,1.358L53.3,177.967l2.108,1.423Z" transform="translate(8.246 29.317)" fill="#8ad2e0"/><rect width="68.504" height="2.978" transform="translate(69.79 217.72)" fill="#8ad2e0"/><path d="M53.388,190.835l-4.12-2.781,4.123-2.776,2.011,1.358-2.111,1.421L55.4,189.48Z" transform="translate(8.245 31.006)" fill="#8ad2e0"/><rect width="48.556" height="2.978" transform="translate(69.783 229.494)" fill="#8ad2e0"/><path d="M53.382,200.928l-4.12-2.783,4.123-2.776,2.011,1.358-2.111,1.421,2.108,1.425Z" transform="translate(8.244 32.695)" fill="#8ad2e0"/><rect width="37.755" height="2.977" transform="translate(69.776 240.585)" fill="#8ad2e0"/><path d="M53.376,210.431l-4.12-2.781,4.123-2.778,2.011,1.358-2.111,1.423,2.108,1.423Z" transform="translate(8.243 34.285)" fill="#8ad2e0"/><rect width="55.366" height="2.978" transform="translate(69.754 277.745)" fill="#8ad2e0"/><path d="M53.357,242.26l-4.12-2.781,4.123-2.778,2.011,1.358-2.111,1.423L55.37,240.9Z" transform="translate(8.24 39.612)" fill="#8ad2e0"/><rect width="41.948" height="2.978" transform="translate(69.747 289.521)" fill="#8ad2e0"/><path d="M53.351,252.35l-4.12-2.781,4.123-2.776,2.011,1.358-2.111,1.421,2.108,1.423Z" transform="translate(8.239 41.301)" fill="#8ad2e0"/><rect width="75.43" height="2.978" transform="translate(69.739 301.312)" fill="#8ad2e0"/><path d="M53.345,262.443l-4.12-2.781,4.123-2.778,2.011,1.358-2.111,1.423,2.108,1.423Z" transform="translate(8.238 42.99)" fill="#8ad2e0"/><rect width="55.366" height="2.978" transform="translate(69.733 312.734)" fill="#8ad2e0"/><path d="M53.339,272.231l-4.12-2.781,4.123-2.776,2.011,1.358-2.111,1.421,2.108,1.423Z" transform="translate(8.237 44.628)" fill="#8ad2e0"/><rect width="45.023" height="2.978" transform="translate(69.726 324.511)" fill="#8ad2e0"/><path d="M53.333,282.324l-4.12-2.781,4.123-2.778,2.011,1.358-2.111,1.423,2.108,1.423Z" transform="translate(8.236 46.317)" fill="#8ad2e0"/><rect width="34.68" height="2.978" transform="translate(69.704 360.43)" fill="#8ad2e0"/><path d="M53.314,313.1l-4.12-2.781,4.123-2.778,2.011,1.358-2.111,1.423,2.108,1.423Z" transform="translate(8.233 51.467)" fill="#8ad2e0"/><rect width="59.559" height="2.978" transform="translate(69.697 372.218)" fill="#8ad2e0"/><path d="M53.308,323.187l-4.12-2.781,4.123-2.776,2.011,1.358-2.111,1.421,2.108,1.423Z" transform="translate(8.232 53.155)" fill="#8ad2e0"/><rect width="49.495" height="2.977" transform="translate(69.676 406.817)" fill="#8ad2e0"/><path d="M53.29,352.828l-4.12-2.781,4.123-2.776,2.011,1.358-2.111,1.421,2.108,1.423Z" transform="translate(8.229 58.116)" fill="#8ad2e0"/><rect width="34.68" height="2.978" transform="translate(69.669 418.592)" fill="#8ad2e0"/><path d="M53.284,362.92l-4.12-2.781,4.123-2.777L55.3,358.72l-2.111,1.422,2.108,1.423Z" transform="translate(8.228 59.805)" fill="#8ad2e0"/><path d="M38.257,119.617a8.242,8.242,0,1,1-8.237-8.246,8.242,8.242,0,0,1,8.237,8.246" transform="translate(3.644 18.638)" fill="#60b3c4"/><path d="M38.228,167.258a8.242,8.242,0,1,1-8.237-8.246,8.242,8.242,0,0,1,8.237,8.246" transform="translate(3.639 26.611)" fill="#60b3c4"/><path d="M38.191,229.174a8.242,8.242,0,1,1-8.237-8.247,8.242,8.242,0,0,1,8.237,8.247" transform="translate(3.633 36.972)" fill="#60b3c4"/><path d="M38.148,299.861a8.242,8.242,0,1,1-8.237-8.247,8.242,8.242,0,0,1,8.237,8.247" transform="translate(3.625 48.802)" fill="#60b3c4"/><path d="M38.125,337.59a8.242,8.242,0,1,1-8.237-8.247,8.242,8.242,0,0,1,8.237,8.247" transform="translate(3.622 55.116)" fill="#60b3c4"/><rect width="32.737" height="2.978" transform="translate(214.569 65.715)" fill="#fff"/><rect width="13.098" height="2.978" transform="translate(214.561 79.088)" fill="#fff"/><rect width="17.621" height="2.978" transform="translate(234.2 79.101)" fill="#fff"/><rect width="26.583" height="2.978" transform="translate(258.985 79.118)" fill="#fff"/><rect width="13.897" height="2.978" transform="translate(253.907 65.733)" fill="#fff"/><g transform="translate(182.323 48.128)" opacity="0.29" style="mix-blend-mode:multiply;isolation:isolate"><g clip-path="url(#c)"><rect width="144.578" height="413.498" transform="translate(0.125 0.043)" fill="#cad5e6"/></g></g><path d="M170.8,171.222v-.756c-.081.114-.162.228-.258.341-.287.337-.559.677-.83.986v.015l0,.784,0,4.833c.385-.5.756-.992,1.083-1.491Zm64.767-13.6,2.2,1.083.77,0,1.365-.007.144-.168.782-.916ZM197.15,179.186l-3.676.013,1.49,1.084,2.536-.008.949,0h.014a.233.233,0,0,1,.107-.053l.042.031.018-.043.186-.611.128-.407Zm76.13-10.834-2.994.01-.267,0-.3,0h-.014l-2.268.009-.815,0-.3.53-.3.56.519-.013,1.3,0,2.283-.008.311,0,3.3.008ZM278.272,201l-1.837-.008-.01-5.914v-1.705l-.006-1.837,0-.549,1.216-.014-.008-1.083h-1.215l0-3.1.006-2.044,0-3.6s-.014-.015,0-.014v-.489l0-.431h1.215l-.007-1.1h-1.2l-.006-4.283-.01-1.053-.007-3.528,0-.8h1.215l.007-1.1h-1.215l0-3.127-.015-6.552h1.215l.007-1.081H276.4l-.012-3.928-.006-5.752h1.215l.008-1.1h-1.215l-.019-9.68h1.215l.007-1.081h-1.215v-2.92l-.019-6.76h1.216l.007-1.1h-1.215l-.006-.386,0-.7-1.082-.007-.007,1.1-2.8.007-3.231,0-.34-.006-2.224.013-.815-.006.006-1.081-.1-.007h-.993l.007,1.1-1.379,0-1.171,0-2.564-.008-4.3,0-.007-1.1-1.083.008-.007,1.1-9.411,0,.007-1.1-1.1.007.008,1.083-9.412.019-.008-1.1-1.082.008-.007,1.082-9.411,0,.007-1.082-1.1-.008-.008,1.1-9.4,0-.007-1.082-1.1-.007.008,1.1-9.412,0-.007-1.1-1.082.008-.008,1.1-9.411,0,.007-1.1-1.1.008.008,1.082-9.412.02-.007-1.1-1.082.008-.007,1.081-10.539.011a.556.556,0,0,0-.552.544l.022,29.807v.014l.013.03v1.912l-.012.193.012,3.454.015,10.464v.015l0,.784,0,4.833v2.193l0,8.448,0,1.912v.014l.013,4.418V196.1l0,5.529a.555.555,0,0,0,.544.552l108.008-.1Zm-2.95-21.878h-.237l-2.475,0h-1.438l-3.483.009h-.519l-1.26,0v-2.683l0-.784-.006-6v-.208l.118.008.519-.013,1.3,0,2.283-.008.311,0,3.3.008,1.571-.007,0,3.349,0,1.541v4.639Zm-10.51.013-9.411,0,0-9.677h.712l3.957,0h.014l.637-.006,2.551-.008.043,0,.209,0,1.289,0v1.2l0,.92v.014l0,.03.006,1.6c-.014,0,0,.015,0,.015l-.006.577-.006.341.009,4.714Zm-10.493.012-9.412,0-.018-9.679,9.411,0Zm-.011-10.775-9.412,0-.007-2.565.012-2.608v-.015l-.009-4.477,9.4-.02.008,6.936.016,2.639Zm-20.992,10.785-9.411,0-.021-8.4v-.015l0-1.244,1.794-.009h.014l7.6-.011.009,1.305,0,2.609Zm-19.92.016,0-3.942-.007-5.721,3.736-.01,2.609,0,3.068-.006,0,9.679-9.367.007Zm-1.083.008-1.5,0-7.915.007-.009-5.44-.008-4.24,1.3.006,8.107-.01.008,7.4Zm-10.508.012-.578-.006-2.283.009-1.793-.006-3.676.013h-.015l-1.067-.006,0-.786v-2.683l-.007-6.21,9.411,0,0,.3v.014l0,7.485v.015Zm-10.5,10.772h-6.8l-2.609,0,0-1.186v-8.492l9.412,0,0,3.587,0,.653v.015l0,.3-.006.593,0,1.126v.5l.006.4-.011.651ZM181.884,179.2l0-2.831v-6.848l9.412,0,0,5.394v2.7l.008,1.571-9.206.018Zm9.4-20.459,0,9.678-9.4.006-.019-9.665Zm-9.405-1.076-.018-9.68,9.411,0,.019,9.68Zm31.494-9.7H214.6l8.183-.02,0,9.678-3.2,0-2.46,0-3.751.009v-7.306Zm-10.5,10.772,2.313-.007,2.282,0,4.816,0,.019,9.665-7.782.015-1.631,0v-2.179Zm9.4-10.544.018,9.443-4.492.008-2.282-.006-2.638,0-.019-9.664,5.6-.015,2.3-.008,1.391.012.119-.008Zm-10.48,20.215-9.412.02,0-9.678,9.412-.02Zm-9.423-10.756,0-9.678,9.412,0,0,9.678Zm28.083,10.751-2.623,0-4.446,0,0-9.678,4.313,0h5.1l.007,2.06v.015l-.009,3.067,0,.934,0,3.6-.118-.007Zm13.92-20.464,9.411,0,.009,6.166v.014l-.013,3.378.008.119-.1-.006-2.86,0-5.262.006h-1.186l.006-.577v-.015Zm10.508-.013h4.135l2.876,0h2.4l0,9.677-9.411,0,0-1.408v-8.271Zm10.492-7.512-.009-3.262,1.052,0,.787-.011,2.238,0h.208l.934,0,2.133.012h1.2l.859-.006,0,2.86.008,2.3.006,4.521h-2.653l-2.313.008h-3.156l-1.29,0-.008-3.023Zm14.071-3.278,3.35,0,2.49,0,0,5.38.008,1.586,0,2.712h-3.41l-3.053.007-2.95,0,0-4.194-.012-.3,0-1.986,0-1.661c-.014-.015,0-.014,0-.029l.008-.133-.006-1.379.179,0,.326,0h2.193ZM264.8,164.262l0,2.89v1.2l-.667,0H262.92l-2.565.007h-1.927l-3.039.007.006-2.03-.008-7.648,2.475,0,2.476-.013.355.007,2.742,0h1.23l.133-.007.007.623Zm-.008-6.67-.341,0-1.23.014-2.7,0-.385-.008-2.461.013-2.282-.006-.018-9.678,1.318.006,2.447-.014.681.012,2.357,0h1.215l1.394,0Zm-31.5.023h-2.683l-3.144.015-2.609,0h-.977l0-9.678,9.4,0,.012,8.552Zm-9.419,1.1h.267l2.623,0h6.521v.223l.018,9.457-8.182,0h-1.23v-2.4l0-2.861v-.015l-.008-3.987Zm10.513,11.356v-.014l.006-.578.89-.006h.015l3.971,0h.015l4.521-.006,0,9.663-9.412.02-.006-6.478Zm9.41-1.694-2.831,0h-.015l-3.986-.006-2.579.006-.006-8.908,0-.77h3.379l.77,0,1.365-.007h.014l.668,0h2.193l1.023,0,.009,5.2v.014l-.011,2.608Zm31.513-1v.978l-2.03,0-2.994.01-.267,0-.3,0h-.014l-2.268.009-.815,0H265.9l0-.682,0-2.5,0-1.527-.008-4.966h.949l.311,0,2.357,0h.741l1.763,0,.934,0,2.357,0,0,7.1v.014Zm-.015-16.3,0,.548c.015,0,0,.015,0,.015l0,.177v2.4l-.006.089v.015l.015.727-.007,2.534-2.549.007-.133-.008-2.49,0-.1.008-1.275,0h-.014l-1.809.008-.3,0h-.741v-4.653l0-.044c-.014-.016-.014-.016-.013-.03l0-.06-.006-3.32c.016-.014,0-.029,0-.044l0-1.512,2.98-.011,3.023-.009h3.41Zm-8.975-24.691h2.224l.326.006,3.2-.013,3.2,0,.007,1.349-.008,5.972.006,2.342-2.268.011-2.3-.007H270.7l-1.082.008-3.068,0-.326,0-.357.008-.008-8.138.006-1.541Zm-6.966,0,2.534-.008,1.142,0,1.735,0v.992l.014,4.877,0,3.809-.7,0h-1.215l-2.1.006h-5.394l-.019-9.664ZM254.288,141.7V145.1l0,1.735h-1.467l-2.875,0-5.07.016,0-9.678,9.412,0Zm-.015-15.311,0,9.678-9.412,0,0-9.678Zm-10.494,20.451-9.4,0-.019-9.664,9.412-.019Zm-.014-20.439.018,9.679-9.412,0-.018-9.679Zm-10.48,20.452-9.411,0,0-9.677,9.411,0Zm-.014-20.44,0,9.68-9.411,0,0-9.679Zm-10.494,20.452H214.03l-.668,0,.006-1.3v-.015l-.011-2.016.009-.162a.129.129,0,0,0-.011-.075l0-6.106,9.411,0Zm-.015-20.439,0,9.663-9.412.02,0-9.68Zm-10.5,14.907,0,.683v.014l.007,1.349.009.089v3.41l-.682,0h-.5l-2.3-.006-5.929.009-.019-9.68,9.412,0Zm-.01-14.911.018,9.68-9.411,0,0-9.664Zm-10.479,20.452-9.414.02,0-9.678,9.411,0Zm-.015-20.439,0,9.679-9.412,0,0-9.679Zm-10.479,20.452-9.412,0-.019-9.664,9.412-.02ZM172.6,157.667l-.637.006c-.015.014-.015,0-.015,0l-1.156,0v-.993l-.009-.341L170.773,148l10,0,0,9.663Zm18.651-31.218.018,9.68-9.411,0-.019-9.68Zm-20.5.026,10.005-.013,0,9.679h-9.99Zm.012,10.761,10.005-.013,0,9.678-9.99.014Zm.022,21.536.281,0h1.215l1.3-.009,7.2-.006,0,9.678-6.239,0h-2.209l-.253.014h-.014l-1.29,0,0-8.2Zm.006,17.164.006-4.713v-.756l0-.934.668,0,.384.008h2.432l6.506,0,.009,7.885.011,1.779-1.868,0-8.138.008v-1.437Zm.015,4.373,6.981,0h.015l2.994-.011.006.149.01,8.833,0,.7-1.5,0H179.3l-8.463,0-.029,0,0-2.964Zm.023,20.781,0-4.832,0-2.387-.007-2.8,6.122-.012h.015l3.853,0,.007.607,0,9.412Zm11.086-.007-.018-9.915.006-.1.208,0,9.2,0,.012,10.005ZM192.4,186.841l.006-.1,0-1.5-.006-.637,0-4.313,2.563-.007,2.536-.008.949,0h.014l1.586-.007h.015l.83.006.1-.008.815,0,0,2.387,0,2.237,0,5.055-9.412,0Zm.007,14.228,0-10.018,9.4-.006.013,10.019Zm10.5-16.4-.013-2.239,0-2.149,5.056-.018.948,0h1.215l.385.008h.015l.919,0,.876-.006,0,.637v.015l0,9.026-9.4.021Zm.008,16.393-.012-10.021,9.411,0,.013,10.021ZM213.4,180.265l9.411,0,0,9.663-9.414.02Zm.008,20.78,0-10.019,9.412,0,0,10.019ZM223.9,180.252l9.411,0,.018,9.68-9.411,0Zm.022,20.781-.013-10.005,9.414-.02.012,10.021Zm10.486-20.793,9.411,0,0,9.678-9.411,0Zm.022,20.8-.012-10.021,9.412-.019,0,10.019ZM244.9,180.228l9.411,0,.018,9.68-9.411,0Zm.022,20.8L244.91,191l9.412,0,.012,10.019Zm10.485-20.793,9.412-.019,0,9.678-9.411,0Zm.023,20.781-.012-10.019,9.411,0,.013,10.019ZM265.92,180.9l0-.683,1.793.006.593-.008,3.528-.007h1.452l2.03.006.007,3.053.006,2.091.006,4.521-.311,0-1.334.008-1.749,0-6.019.019Zm.006,20.1-.012-10.019,6.907-.009h1.689l.815.006.009,1.067-.007,1.823.009,7.129ZM170.8,171.222v-.756c-.081.114-.162.228-.258.341-.287.337-.559.677-.83.986v.015l0,.784,0,4.833c.385-.5.756-.992,1.083-1.491Zm26.355,7.964-3.676.013,1.49,1.084,2.536-.008.949,0h.014a.233.233,0,0,1,.107-.053l.042.031.018-.043.186-.611.128-.407Zm38.412-21.566,2.2,1.083.77,0,1.365-.007.144-.168.782-.916Zm37.718,10.731-2.994.01-.267,0-.3,0h-.014l-2.268.009-.815,0-.3.53-.3.56.519-.013,1.3,0,2.283-.008.311,0,3.3.008Z" transform="translate(28.392 20.783)" fill="#dddde6"/><rect width="5.846" height="2.062" transform="translate(189.329 218.757)" fill="#dddde6"/><rect width="5.846" height="2.062" transform="translate(189.319 207.781)" fill="#dddde6"/><rect width="5.846" height="2.062" transform="translate(189.309 196.804)" fill="#dddde6"/><rect width="5.846" height="2.062" transform="translate(189.3 185.826)" fill="#dddde6"/><rect width="5.846" height="2.062" transform="translate(189.29 174.85)" fill="#dddde6"/><rect width="5.846" height="2.062" transform="translate(189.28 163.873)" fill="#dddde6"/><rect width="5.846" height="2.062" transform="translate(189.27 152.896)" fill="#dddde6"/><rect width="5.411" height="2.367" transform="translate(200.681 225.547)" fill="#dddde6"/><rect width="5.411" height="2.367" transform="translate(213.201 225.536)" fill="#dddde6"/><rect width="5.411" height="2.367" transform="translate(228.011 225.523)" fill="#dddde6"/><rect width="5.411" height="2.367" transform="translate(241.676 225.51)" fill="#dddde6"/><rect width="5.411" height="2.367" transform="translate(255.341 225.498)" fill="#dddde6"/><rect width="5.411" height="2.367" transform="translate(269.006 225.486)" fill="#dddde6"/><rect width="5.411" height="2.367" transform="translate(282.671 225.474)" fill="#dddde6"/><rect width="5.411" height="2.367" transform="translate(296.336 225.461)" fill="#dddde6"/><path d="M170.331,187.476a1.091,1.091,0,0,1-.756-1.878l17.3-16.614,11.81,8.6,11.127-36.448a1.406,1.406,0,0,1,2.6-.233l15.762,30.617,19.687-12.881,14.794,9.826L273.488,149a1.092,1.092,0,0,1,1.909,1.062l-11.983,21.528-15.563-10.337-20.509,13.42-16-31.07-11.465,37.549-12.809-9.322-15.987,15.346a1.084,1.084,0,0,1-.755.3" transform="translate(28.322 23.452)" fill="#f1ba21"/><path d="M170.45,194.391a1.091,1.091,0,0,1-.458-2.083l19.881-9.131,19.781-4.092,17.86-27.412,11.805,5.811L257.6,135.9l15.708,4.707a1.092,1.092,0,0,1-.627,2.092l-14.339-4.3L239.884,160.2l-11.6-5.71-17.3,26.553-20.548,4.25-19.533,9a1.07,1.07,0,0,1-.455.1" transform="translate(28.342 22.743)" fill="#76c3d4"/><path d="M186.648,166.341a1.937,1.937,0,1,1-1.939-1.935,1.938,1.938,0,0,1,1.939,1.935" transform="translate(30.587 27.513)" fill="#fff"/><path d="M184.783,163.936a2.492,2.492,0,0,0-2.478,2.486,2.437,2.437,0,0,0,.118.748,2.54,2.54,0,0,0,1.519,1.575,2.343,2.343,0,0,0,.851.155,2.247,2.247,0,0,0,1.144-.3,2.355,2.355,0,0,0,1.278-1.76,1.339,1.339,0,0,0,.056-.426,2.492,2.492,0,0,0-2.488-2.478m1.339,2.112a1.508,1.508,0,0,1,.067.375,1.413,1.413,0,0,1-1.4,1.4,1.4,1.4,0,0,1-1.383-1.388,1.163,1.163,0,0,1,.028-.221,1.34,1.34,0,0,1,1.2-1.158h.014a.124.124,0,0,1,.105-.008.053.053,0,0,1,.046-.012,1.4,1.4,0,0,1,1.332,1Z" transform="translate(30.509 27.435)" fill="#f1ba21"/><path d="M197.224,174.016a1.937,1.937,0,1,1-1.939-1.935,1.937,1.937,0,0,1,1.939,1.935" transform="translate(32.357 28.798)" fill="#fff"/><path d="M197.111,172.328c-.028-.016-.056-.048-.084-.064a2.387,2.387,0,0,0-1.665-.65,2,2,0,0,0-.433.048,2.111,2.111,0,0,0-.742.266,2.248,2.248,0,0,0-.573.41,2.42,2.42,0,0,0-.676,1.352,1.29,1.29,0,0,0-.055.412,2.444,2.444,0,0,0,.573,1.547,2.374,2.374,0,0,0,1.914.932,2.488,2.488,0,0,0,2.379-1.827,2.035,2.035,0,0,0,.1-.661,2.483,2.483,0,0,0-.738-1.764m-.993,2.934a1.487,1.487,0,0,1-.725.223l-.029,0a1.133,1.133,0,0,1-.542-.121,1.331,1.331,0,0,1-.777-.863,1.635,1.635,0,0,1-.064-.4,1.382,1.382,0,0,1,2.657-.535,1.367,1.367,0,0,1-.254,1.481,1.262,1.262,0,0,1-.265.221" transform="translate(32.279 28.72)" fill="#f1ba21"/><path d="M207.188,140.9a1.937,1.937,0,1,1-1.94-1.935,1.938,1.938,0,0,1,1.94,1.935" transform="translate(34.025 23.256)" fill="#fff"/><path d="M207.8,140.9a2.446,2.446,0,0,0-1.1-1.964,2.328,2.328,0,0,0-1.381-.44,2.492,2.492,0,0,0-2.478,2.488,2.435,2.435,0,0,0,.893,1.892,2.4,2.4,0,0,0,1.595.586,2.435,2.435,0,0,0,1.389-.434,2.489,2.489,0,0,0,1.079-1.891l.011-.162a.141.141,0,0,0-.011-.075m-3.691.739a1.438,1.438,0,0,1-.182-.663,1.393,1.393,0,0,1,2.786.007l-.006.088a1.4,1.4,0,0,1-1.383,1.31,1.36,1.36,0,0,1-1.215-.741" transform="translate(33.947 23.178)" fill="#f1ba21"/><path d="M221.723,150.893a1.937,1.937,0,1,1-1.939-1.935,1.936,1.936,0,0,1,1.939,1.935" transform="translate(36.457 24.928)" fill="#fff"/><path d="M219.865,148.489a2.482,2.482,0,0,0-2.478,2.486,2.493,2.493,0,0,0,2.178,2.446h.014a1.914,1.914,0,0,0,.28.033,2.566,2.566,0,0,0,1.514-.516,2.469,2.469,0,0,0,.978-1.955v-.015a2.492,2.492,0,0,0-2.488-2.478m1.39,2.485a1.391,1.391,0,0,1-2.778.112.278.278,0,0,1-.007-.119,1.394,1.394,0,0,1,.939-1.306.8.8,0,0,1,.181-.048.814.814,0,0,1,.268-.028,1.391,1.391,0,0,1,1.256.788,1.322,1.322,0,0,1,.141.6" transform="translate(36.38 24.85)" fill="#76c3d4"/><path d="M221.739,168.644a1.937,1.937,0,1,1-1.939-1.935,1.937,1.937,0,0,1,1.939,1.935" transform="translate(36.46 27.899)" fill="#fff"/><path d="M222.328,168.316V168.3a2.5,2.5,0,0,0-2.454-2.062.892.892,0,0,0-.208.018,2.5,2.5,0,0,0-1.877,1.13v.015a2.455,2.455,0,0,0-.392,1.325,2.483,2.483,0,0,0,4.966-.008,3.6,3.6,0,0,0-.035-.4m-2.451,1.807a1.56,1.56,0,0,1-.265-.032H219.6a1.183,1.183,0,0,1-.546-.271s-.015,0-.014-.015a1.366,1.366,0,0,1-.544-1.041l0-.044a1.386,1.386,0,1,1,2.771.006.761.761,0,0,1-.048.308,1.388,1.388,0,0,1-1.341,1.089" transform="translate(36.381 27.82)" fill="#f1ba21"/><path d="M238.877,157.617a1.937,1.937,0,1,1-1.94-1.935,1.94,1.94,0,0,1,1.94,1.935" transform="translate(39.328 26.053)" fill="#fff"/><path d="M237.014,155.21a2.494,2.494,0,0,0-2.476,2.457l0,.029a2.5,2.5,0,0,0,.963,1.956,2.436,2.436,0,0,0,2.915.074,2.362,2.362,0,0,0,1.081-1.92l.006-.1a2.5,2.5,0,0,0-2.486-2.493m1.39,2.485a1.367,1.367,0,0,1-1.031,1.345,1.328,1.328,0,0,1-.358.053,1.059,1.059,0,0,1-.483-.1,1.363,1.363,0,0,1-.9-1.285,1.42,1.42,0,0,1,.433-1.026c.016-.014.032-.028.047-.027l.032-.028a.485.485,0,0,1,.215-.134.015.015,0,0,1,.016-.014,1.331,1.331,0,0,1,.647-.168,1.308,1.308,0,0,1,.251.03h.014a1.388,1.388,0,0,1,.9.6,1.4,1.4,0,0,1,.221.754" transform="translate(39.25 25.974)" fill="#f1ba21"/><path d="M231.746,155.963a1.937,1.937,0,1,1-1.939-1.935,1.937,1.937,0,0,1,1.939,1.935" transform="translate(38.134 25.777)" fill="#fff"/><path d="M232.105,154.966a2.432,2.432,0,0,0-1.188-1.184,3.321,3.321,0,0,0-.538-.167,1.781,1.781,0,0,0-.486-.058,2.285,2.285,0,0,0-1.021.233,2.438,2.438,0,0,0-.369.2,2.464,2.464,0,0,0-1.093,1.89l-.009.163a2.482,2.482,0,0,0,4.964.006,2.192,2.192,0,0,0-.259-1.083m-.822,1.076a1.391,1.391,0,0,1-2.722.412,1.574,1.574,0,0,1-.064-.4,1.39,1.39,0,0,1,2.777-.1.2.2,0,0,1,.009.09" transform="translate(38.056 25.698)" fill="#76c3d4"/><path d="M247.484,137.249a1.937,1.937,0,1,1-1.939-1.935,1.938,1.938,0,0,1,1.939,1.935" transform="translate(40.768 22.645)" fill="#fff"/><path d="M248.082,137a.089.089,0,0,1-.012-.061l0-.029a2.468,2.468,0,0,0-.733-1.349,1.205,1.205,0,0,0-.2-.189,2.424,2.424,0,0,0-1.525-.523,2.676,2.676,0,0,0-1.5.531,2.374,2.374,0,0,0-.978,1.956,2.627,2.627,0,0,0,.208.976,2.512,2.512,0,0,0,1.155,1.226,2.018,2.018,0,0,0,.522.195,2.057,2.057,0,0,0,.6.082,2.428,2.428,0,0,0,1.345-.407,1.7,1.7,0,0,0,.454-.4,2.238,2.238,0,0,0,.508-.783,2.316,2.316,0,0,0,.173-.894c-.008-.119-.016-.223-.025-.327m-1.937,1.616h-.015a1.436,1.436,0,0,1-.226.076.9.9,0,0,1-.284.027,1.372,1.372,0,0,1-1.01-.447,1.31,1.31,0,0,1-.372-.942l0-.074a1.337,1.337,0,0,1,.566-1.032,1.288,1.288,0,0,1,.817-.277,1.391,1.391,0,0,1,1.136.573,1.473,1.473,0,0,1,.263.816,1.392,1.392,0,0,1-.879,1.281" transform="translate(40.69 22.567)" fill="#76c3d4"/><path d="M260.353,140.856a1.937,1.937,0,1,1-1.939-1.935,1.936,1.936,0,0,1,1.939,1.935" transform="translate(42.922 23.248)" fill="#fff"/><path d="M260.832,140.134a2.463,2.463,0,0,0-2.342-1.683,2.609,2.609,0,0,0-.7.105,2.5,2.5,0,0,0-1.776,2.381,2.26,2.26,0,0,0,.12.719,2.539,2.539,0,0,0,1.328,1.534,2.292,2.292,0,0,0,1.039.225,2.465,2.465,0,0,0,2.342-1.695,2.377,2.377,0,0,0,.137-.791,2.246,2.246,0,0,0-.145-.795m-2.342,2.2a1.324,1.324,0,0,1-.585-.139c-.014,0-.014,0-.028-.018a1.008,1.008,0,0,1-.354-.273,1.361,1.361,0,0,1-.416-.958,1.33,1.33,0,0,1,.556-1.108v-.015a1.326,1.326,0,0,1,.832-.274,1.393,1.393,0,0,1-.007,2.785" transform="translate(42.844 23.17)" fill="#76c3d4"/><path d="M261.108,149.2a1.937,1.937,0,1,1-1.939-1.935,1.937,1.937,0,0,1,1.939,1.935" transform="translate(43.048 24.645)" fill="#fff"/><path d="M260.72,147.29a2.374,2.374,0,0,0-1.466-.489,2.485,2.485,0,0,0-2.492,2.471,2.438,2.438,0,0,0,.488,1.467,2.719,2.719,0,0,0,.545.552,2.532,2.532,0,0,0,.632.32,2.215,2.215,0,0,0,.762.151l.058,0a2.5,2.5,0,0,0,1.484-.5,2.4,2.4,0,0,0,.894-1.293,2.2,2.2,0,0,0,.116-.69,2.486,2.486,0,0,0-1.02-1.989m-2.823,2.3a1.119,1.119,0,0,1-.04-.314,1.4,1.4,0,0,1,.94-1.32h.015a1.427,1.427,0,0,1,.434-.077,1.4,1.4,0,0,1,1.389,1.27.32.32,0,0,1,.008.119,1.384,1.384,0,0,1-.773,1.243,1.221,1.221,0,0,1-.616.154,1.38,1.38,0,0,1-1.358-1.075" transform="translate(42.969 24.567)" fill="#f1ba21"/><path d="M251.887,165.765a1.937,1.937,0,1,1-1.939-1.935,1.937,1.937,0,0,1,1.939,1.935" transform="translate(41.505 27.417)" fill="#fff"/><path d="M252.093,164.486a1.594,1.594,0,0,0-.316-.39,2.334,2.334,0,0,0-1.309-.672.128.128,0,0,0-.072-.02.7.7,0,0,0-.176-.026l-.191-.012a2.347,2.347,0,0,0-1.5.516,2,2,0,0,0-.361.334,2.437,2.437,0,0,0-.619,1.638v.014a2.482,2.482,0,0,0,2.3,2.453l.193.012a2.454,2.454,0,0,0,1.735-.739.275.275,0,0,0,.095-.1,1.133,1.133,0,0,0,.175-.2,2.492,2.492,0,0,0,.474-1.453,2.33,2.33,0,0,0-.421-1.359m-1.432,2.6a1.461,1.461,0,0,1-.632.154,1.3,1.3,0,0,1-.742-.223.288.288,0,0,1-.071-.049,1.355,1.355,0,0,1-.584-1.117,1.034,1.034,0,0,1,.048-.308,1.4,1.4,0,0,1,.86-.985c0-.015.015-.014.03-.013a1.387,1.387,0,0,1,.451-.091,1.316,1.316,0,0,1,.814.272.014.014,0,0,0,.013.015.929.929,0,0,1,.183.16l.014.015a1.357,1.357,0,0,1,.365.823.263.263,0,0,1,.008.1,1.333,1.333,0,0,1-.05.337v.015a1.4,1.4,0,0,1-.706.891" transform="translate(41.427 27.339)" fill="#f1ba21"/><path d="M206.171,174.008a1.937,1.937,0,1,1-1.939-1.935,1.937,1.937,0,0,1,1.939,1.935" transform="translate(33.854 28.796)" fill="#fff"/><path d="M206.666,173.36a2.287,2.287,0,0,0-.619-1.031,2.234,2.234,0,0,0-.943-.577,2.045,2.045,0,0,0-.79-.152,2.507,2.507,0,0,0-1.749.724,2.434,2.434,0,0,0-.669,1.263,1.8,1.8,0,0,0-.061.5,2.382,2.382,0,0,0,.612,1.623,2.413,2.413,0,0,0,1.86.855,2.481,2.481,0,0,0,2.492-2.471,1.969,1.969,0,0,0-.133-.734m-2.762,2.055a1.373,1.373,0,0,1-.748-2.091,1.388,1.388,0,0,1,1.15-.627.619.619,0,0,1,.161.025h.015a1.38,1.38,0,0,1,.742,2.416,1.308,1.308,0,0,1-.911.346.981.981,0,0,1-.41-.07" transform="translate(33.777 28.717)" fill="#76c3d4"/><path d="M189.336,177.4a1.937,1.937,0,1,1-1.939-1.935,1.937,1.937,0,0,1,1.939,1.935" transform="translate(31.037 29.365)" fill="#fff"/><path d="M189.843,176.736a2.1,2.1,0,0,0-.277-.579,2.339,2.339,0,0,0-.825-.791,2.4,2.4,0,0,0-1.268-.36A2.471,2.471,0,0,0,185,177.478a.839.839,0,0,0,.019.194,2.481,2.481,0,0,0,2.468,2.3,2.363,2.363,0,0,0,1.253-.369,2.3,2.3,0,0,0,1.055-1.254v-.015c.032-.028.034-.057.051-.1a2.514,2.514,0,0,0,.119-.749,2.447,2.447,0,0,0-.117-.748m-2.369,2.139a1.379,1.379,0,0,1-1.383-1.388.87.87,0,0,1,.051-.339,1.37,1.37,0,0,1,1.339-1.059,1.3,1.3,0,0,1,.854.319,1.231,1.231,0,0,1,.4.514,1.168,1.168,0,0,1,.128.556,1.24,1.24,0,0,1-.124.571,1.227,1.227,0,0,1-.542.619h-.014a1.216,1.216,0,0,1-.62.2.184.184,0,0,1-.09.009" transform="translate(30.959 29.287)" fill="#76c3d4"/><rect width="24.94" height="2.978" transform="translate(200.221 135.341)" fill="#8ad2e0"/><rect width="43.323" height="2.977" transform="translate(233.979 135.347)" fill="#8ad2e0"/><path d="M171.31,281.746l-.009-10.524,106.886-.348v-1.395l-106.886.348-.008-9.718,106.885-.348v-1.395l-106.886.348-.008-9.719,106.886-.347v-1.395l-106.886.348-.009-9.719,106.886-.347v-1.4l-106.886.347-.008-9.718,106.886-.348v-1.395l-106.886.348-.009-9.718,106.886-.348v-1.395l-107.583.348a.7.7,0,0,0-.7.7l.061,67.486a.7.7,0,0,0,.7.7l107.687-.349V281.4Z" transform="translate(28.425 35.798)" fill="#dddde6"/><rect width="6.197" height="45.572" transform="translate(205.494 272.661)" fill="#f1ba21"/><rect width="6.197" height="17.467" transform="translate(205.481 272.661)" fill="#76c3d4"/><rect width="6.197" height="51.495" transform="translate(217.162 266.728)" fill="#f1ba21"/><rect width="6.197" height="28.719" transform="translate(217.152 266.728)" fill="#76c3d4"/><rect width="6.197" height="28.837" transform="translate(228.843 289.375)" fill="#f1ba21"/><rect width="6.197" height="14.419" transform="translate(228.834 289.375)" fill="#76c3d4"/><rect width="6.197" height="62.234" transform="translate(240.498 255.968)" fill="#f1ba21"/><rect width="6.198" height="32.33" transform="translate(240.498 255.968)" fill="#76c3d4"/><rect width="6.197" height="53.954" transform="translate(252.172 264.238)" fill="#f1ba21"/><rect width="6.197" height="16.665" transform="translate(252.157 264.237)" fill="#76c3d4"/><rect width="6.197" height="39.271" transform="translate(263.85 278.91)" fill="#f1ba21"/><rect width="6.197" height="17.675" transform="translate(263.84 278.911)" fill="#76c3d4"/><rect width="6.197" height="46.889" transform="translate(275.517 271.282)" fill="#f1ba21"/><rect width="6.197" height="27.994" transform="translate(275.509 271.282)" fill="#76c3d4"/><rect width="6.198" height="17.517" transform="translate(287.2 300.644)" fill="#f1ba21"/><rect width="6.197" height="11.526" transform="translate(287.198 300.644)" fill="#76c3d4"/><rect width="6.197" height="39.104" transform="translate(298.861 279.046)" fill="#f1ba21"/><rect width="6.197" height="23.796" transform="translate(298.854 279.046)" fill="#76c3d4"/><rect width="5.846" height="2.062" transform="translate(189.309 309.22)" fill="#dddde6"/><rect width="5.846" height="2.062" transform="translate(205.695 322.052)" fill="#dddde6"/><rect width="5.846" height="2.062" transform="translate(217.338 322.052)" fill="#dddde6"/><rect width="5.846" height="2.062" transform="translate(228.981 322.052)" fill="#dddde6"/><rect width="5.846" height="2.062" transform="translate(240.623 322.052)" fill="#dddde6"/><rect width="5.846" height="2.062" transform="translate(252.266 322.052)" fill="#dddde6"/><rect width="5.846" height="2.062" transform="translate(263.909 322.052)" fill="#dddde6"/><rect width="5.846" height="2.062" transform="translate(275.552 322.052)" fill="#dddde6"/><rect width="5.846" height="2.062" transform="translate(287.195 322.052)" fill="#dddde6"/><rect width="5.846" height="2.062" transform="translate(298.838 322.052)" fill="#dddde6"/><rect width="5.847" height="2.062" transform="translate(189.299 298.244)" fill="#dddde6"/><rect width="5.846" height="2.062" transform="translate(189.29 287.266)" fill="#dddde6"/><rect width="5.847" height="2.062" transform="translate(189.28 276.29)" fill="#dddde6"/><rect width="5.846" height="2.062" transform="translate(189.27 265.313)" fill="#dddde6"/><rect width="5.846" height="2.062" transform="translate(189.27 253.727)" fill="#dddde6"/><rect width="43.254" height="2.978" transform="translate(202.155 240.448)" fill="#8ad2e0"/><rect width="22.831" height="2.978" transform="translate(254.041 240.442)" fill="#8ad2e0"/><rect width="8.591" height="3.531" transform="translate(210.761 351.045)" fill="#dddde6"/><rect width="8.591" height="3.531" transform="translate(265.115 350.997)" fill="#dddde6"/><path d="M277.072,293.594l-107.715.091.079,79.169-.008.131.147-.008,107.569-.1ZM170.625,371.771l-.071-76.891,105.323-.09.071,76.89Z" transform="translate(28.342 49.133)" fill="#dddde6"/><rect width="2.999" height="22.072" transform="translate(207.343 396.011) rotate(-0.067)" fill="#f1ba21"/><rect width="2.999" height="37.162" transform="translate(212.1 380.914)" fill="#f1ba21"/><rect width="2.999" height="29.844" transform="translate(216.854 388.227)" fill="#f1ba21"/><rect width="3" height="56.536" transform="translate(221.592 361.532)" fill="#f1ba21"/><rect width="3" height="61.726" transform="translate(226.34 356.337)" fill="#f1ba21"/><rect width="2.999" height="53.204" transform="translate(231.095 364.855)" fill="#f1ba21"/><rect width="2.999" height="34.277" transform="translate(235.854 383.778)" fill="#f1ba21"/><rect width="3" height="47.689" transform="translate(240.598 370.361)" fill="#f1ba21"/><rect width="3" height="22.615" transform="translate(259.611 395.418)" fill="#76c3d4"/><rect width="3" height="34.277" transform="translate(264.356 383.752)" fill="#76c3d4"/><rect width="2.999" height="32.086" transform="translate(269.108 385.939)" fill="#76c3d4"/><rect width="3" height="39.679" transform="translate(273.855 378.342)" fill="#76c3d4"/><rect width="3" height="60.335" transform="translate(278.596 357.682)" fill="#76c3d4"/><rect width="3" height="67.029" transform="translate(283.344 350.983)" fill="#76c3d4"/><rect width="2.999" height="54.783" transform="translate(288.1 363.225)" fill="#76c3d4"/><rect width="3" height="47.689" transform="translate(292.853 370.314)" fill="#76c3d4"/><rect width="5.846" height="2.062" transform="translate(189.309 415.11)" fill="#dddde6"/><rect width="5.846" height="2.062" transform="translate(223.206 425.763)" fill="#dddde6"/><rect width="5.846" height="2.062" transform="translate(275.906 425.763)" fill="#dddde6"/><rect width="5.847" height="2.062" transform="translate(189.299 404.133)" fill="#dddde6"/><rect width="5.846" height="2.062" transform="translate(189.29 393.156)" fill="#dddde6"/><rect width="5.847" height="2.062" transform="translate(189.28 382.179)" fill="#dddde6"/><rect width="5.846" height="2.062" transform="translate(189.27 371.202)" fill="#dddde6"/><rect width="5.846" height="2.062" transform="translate(189.27 358.763)" fill="#dddde6"/><rect width="18.512" height="2.978" transform="translate(201.748 332.832)" fill="#8ad2e0"/><rect width="25.26" height="2.978" transform="translate(229.931 332.835)" fill="#8ad2e0"/><path d="M170.78,53.151l-6.033.043-5.028-6.22-2.83,6.276-8.254.06-8.254.058-2.109-4.514-5.667,4.57-6.113.044a2.652,2.652,0,0,1-2.671-2.632l-.172-24.053a1.18,1.18,0,0,1,1.171-1.188l47.233-.339a1.179,1.179,0,0,1,1.187,1.171l.173,24.053a2.652,2.652,0,0,1-2.632,2.671" transform="translate(20.693 4.227)" fill="#5c646b"/><path d="M173.263,28.8l-49.6.322-.007-1.724,49.6-.4Z" transform="translate(20.694 4.518)" fill="#949494"/><path d="M172.35,54.63l-4.276.032a9.258,9.258,0,0,1-9.143-7.5l-.564-2.858c-1.653-8.34-3.919-19.763-2.049-23.584a16.081,16.081,0,0,1,1.448-2.036c2.2-2.832,5.527-7.111,4.02-11.609C160.664,3.723,155.351.161,149.246.209s-11.363,3.678-12.44,7.045c-1.442,4.519,1.944,8.749,4.185,11.55a15.81,15.81,0,0,1,1.478,2.016c1.927,3.8-.177,15.258-1.714,23.628l-.518,2.848a9.256,9.256,0,0,1-9.036,7.627l-4.276.032.019,2.386,4.276-.032a11.643,11.643,0,0,0,11.366-9.593l.517-2.838c1.773-9.667,3.786-20.624,1.494-25.138a16.049,16.049,0,0,0-1.742-2.428c-2.039-2.547-4.828-6.033-3.775-9.333.695-2.17,5.006-5.348,10.185-5.385s9.536,3.077,10.261,5.239c1.1,3.285-1.641,6.811-3.642,9.387a16.033,16.033,0,0,0-1.707,2.45c-2.224,4.544-.06,15.465,1.851,25.1l.559,2.848a11.633,11.633,0,0,0,11.5,9.43l4.277-.032Z" transform="translate(21.241 0.035)" fill="#778e9e"/><path d="M171,54.422l-4.276.032a9.258,9.258,0,0,1-9.143-7.5l-.564-2.858c-1.653-8.34-3.919-19.763-2.049-23.584a16.08,16.08,0,0,1,1.448-2.036c2.2-2.832,5.527-7.111,4.02-11.609C159.316,3.516,154-.047,147.9,0s-11.363,3.678-12.44,7.045c-1.442,4.519,1.944,8.749,4.185,11.55a15.809,15.809,0,0,1,1.478,2.016c1.927,3.8-.177,15.258-1.714,23.628l-.518,2.848a9.256,9.256,0,0,1-9.036,7.627l-4.276.032.019,2.386,4.276-.032a11.643,11.643,0,0,0,11.366-9.593l.517-2.838c1.773-9.667,3.786-20.624,1.494-25.138a16.049,16.049,0,0,0-1.742-2.428c-2.039-2.547-4.828-6.033-3.775-9.333.695-2.17,5.006-5.348,10.185-5.385s9.536,3.077,10.261,5.239c1.1,3.285-1.641,6.811-3.642,9.387a16.034,16.034,0,0,0-1.707,2.45c-2.224,4.544-.06,15.465,1.85,25.1l.56,2.848a11.633,11.633,0,0,0,11.5,9.43l4.277-.032Z" transform="translate(21.015 0)" fill="#fff"/><path d="M135.534,50.2l-10.968.078a.75.75,0,0,1-.755-.744l-.03-4.325a.75.75,0,0,1,.745-.755l10.967-.078a.749.749,0,0,1,.755.745l.032,4.324a.751.751,0,0,1-.745.755" transform="translate(20.715 7.427)" fill="#484f54"/><path d="M167.414,49.975l-11.124.079a.672.672,0,0,1-.677-.667l-.032-4.48a.673.673,0,0,1,.668-.677l11.123-.079a.673.673,0,0,1,.677.668l.033,4.479a.673.673,0,0,1-.668.677" transform="translate(26.037 7.389)" fill="#484f54"/><path d="M154.485,49.839l-16.5.118,2.463-3.327a2.317,2.317,0,0,1,1.843-.937l7.828-.056a2.317,2.317,0,0,1,1.856.911Z" transform="translate(23.092 7.637)" fill="#484f54"/><g transform="translate(166.442 174.118)" opacity="0.5" style="mix-blend-mode:multiply;isolation:isolate"><g clip-path="url(#d)"><path d="M147.908,205.575A86.133,86.133,0,0,0,270.545,310.644l6.649,10.267-.221.142a1.557,1.557,0,0,0-.46,2.155l1.48,2.287a1.551,1.551,0,0,0,2.086.488l-1.776,1.151a1.662,1.662,0,0,0-.493,2.3l1.581,2.44a1.648,1.648,0,0,0,1.77.7,2.787,2.787,0,0,0-.221,3.318l76.537,118.658a2.8,2.8,0,0,0,3.867.828l13.506-8.749a2.794,2.794,0,0,0,.827-3.866L299.141,324.1a2.788,2.788,0,0,0-3.118-1.155,1.651,1.651,0,0,0,.085-1.9l-1.581-2.44a1.662,1.662,0,0,0-2.3-.491l-1.777,1.15a1.55,1.55,0,0,0,.407-2.1l-1.481-2.287a1.558,1.558,0,0,0-2.155-.461l-.221.142L280.361,304.3a86.146,86.146,0,1,0-132.453-98.726m105.946-41.081a74.738,74.738,0,0,1,22.435,12.563,70.153,70.153,0,0,1,6.748,6.194,76.357,76.357,0,0,1,16.106,25.465,74.733,74.733,0,0,1,3.828,38.952c-.155.9-.31,1.807-.5,2.7-.05.235-.1.484-.147.718a76.426,76.426,0,0,1-4.64,14.473c-.635,1.467-1.331,2.914-2.053,4.33l0,.018c-.419.8-.833,1.554-1.261,2.325-.658,1.16-1.339,2.309-2.045,3.426-.509.81-1.037,1.625-1.589,2.409-.5.716-1.011,1.435-1.53,2.137-1.242,1.677-2.572,3.3-3.954,4.87l-.018,0c-1.211,1.375-2.433,2.7-3.744,3.971l-.016,0a2.424,2.424,0,0,0-.189.195l-.146.148c-.636.6-1.272,1.207-1.934,1.78a76.357,76.357,0,0,1-9.554,7.332,74.6,74.6,0,0,1-49.212,11.634c-1.019-.106-2.031-.252-3.058-.393-1.457-.233-2.906-.507-4.361-.814a75.062,75.062,0,0,1-14.477-4.658c-.555-.226-1.095-.474-1.619-.725a73.635,73.635,0,0,1-14.739-9.056c-.637-.48-1.244-.986-1.874-1.506-1.249-1.076-2.486-2.175-3.684-3.339a74.759,74.759,0,0,1-5.412-5.782l-.795-.955a1.241,1.241,0,0,1-.088-.125c-.995-1.234-1.96-2.493-2.883-3.8q-.946-1.329-1.854-2.723c-.065-.112-.148-.219-.214-.33-.671-1.041-1.311-2.109-1.9-3.173a.955.955,0,0,1-.161-.271,10.128,10.128,0,0,1-.505-.9,76.912,76.912,0,0,1-4.19-8.906c.013-.022-.009-.035-.014-.053a74.757,74.757,0,0,1-2.525-7.789,2.331,2.331,0,0,1-.105-.34c-.211-.755-.389-1.518-.549-2.286-.19-.815-.358-1.617-.509-2.423-.1-.47-.187-.946-.272-1.42-.071-.423-.147-.863-.205-1.307a72.928,72.928,0,0,1-.9-11.934c-.007-.458,0-.92.009-1.4a75.978,75.978,0,0,1,6.265-28.451,70.541,70.541,0,0,1,3.241-6.58,69.4,69.4,0,0,1,3.814-6.139,71.521,71.521,0,0,1,5.858-7.416l.018,0a70.546,70.546,0,0,1,7.576-7.378,77.463,77.463,0,0,1,7.508-5.559A75.1,75.1,0,0,1,199.07,166.2l.051-.013a76.188,76.188,0,0,1,13.258-4.275l.121-.03a74.8,74.8,0,0,1,21.81-1.519,69.427,69.427,0,0,1,8.854,1.208c.54.1,1.08.2,1.625.32,1.578.349,3.113.747,4.657,1.179,1.488.427,2.95.9,4.408,1.426" transform="translate(-142.581 -149.157)" fill="#b0b0b0"/></g></g><path d="M329.876,429.409,253.338,310.752a2.8,2.8,0,0,1,.826-3.867l13.506-8.748a2.8,2.8,0,0,1,3.869.826l76.536,118.658a2.8,2.8,0,0,1-.826,3.867l-13.506,8.748a2.8,2.8,0,0,1-3.867-.828" transform="translate(42.321 49.818)" fill="#f1ba21"/><rect width="11.687" height="18.991" transform="matrix(0.839, -0.544, 0.544, 0.839, 282.835, 331.574)" fill="#fff"/><g transform="translate(167.858 184.434)" style="mix-blend-mode:multiply;isolation:isolate"><g clip-path="url(#e)"><path d="M260.5,297.052A75.6,75.6,0,1,1,282.852,192.5,75.6,75.6,0,0,1,260.5,297.052" transform="translate(-143.794 -157.994)" fill="#d0f1f5"/></g></g><path d="M164.265,279.116l-2.4,2.4,3.427-1.116c-.348-.425-.7-.851-1.026-1.281M286.794,190.9a79.119,79.119,0,0,0-35.042-29.736,77.568,77.568,0,0,0-7.979-2.957c-2.339-.744-4.722-1.365-7.152-1.883-.467-.1-.912-.189-1.374-.273l-.018,0a77.222,77.222,0,0,0-12.595-1.464l-.018,0a78.29,78.29,0,0,0-25.389,3.26l-.016,0-3.125,1c-.069.018-.134.053-.2.07a80.238,80.238,0,0,0-17.2,8.424c-1.846,1.188-3.618,2.45-5.321,3.768l-.016,0-.013.022a77.869,77.869,0,0,0-9.428,8.548,73.341,73.341,0,0,0-5.623,6.75l-.018,0a69.729,69.729,0,0,0-4.673,7.02l-.013.022a66.887,66.887,0,0,0-3.206,5.928c-1.025,2.1-1.946,4.247-2.767,6.423a80.079,80.079,0,0,0-5.212,26.747c-.028,1.331-.021,2.651.03,4a72.612,72.612,0,0,0,1.033,10.651q.089.667.228,1.32c.131.867.312,1.721.494,2.575.186.871.393,1.755.614,2.617.525,2.052,1.119,4.088,1.8,6.1.14.405.285.826.442,1.228a76.888,76.888,0,0,0,4.76,10.708c.21.388.419.775.65,1.176.829,1.515,1.744,3.008,2.693,4.492.3.474.6.93.923,1.381.444.658.883,1.3,1.34,1.937.391.524.766,1.053,1.174,1.574.169.232.34.465.526.692.139.184.273.353.413.537.156.181.3.365.452.546a77.343,77.343,0,0,0,8.868,9.382c.382.343.763.686,1.158,1.009a69.272,69.272,0,0,0,5.9,4.609c.567.425,1.171.841,1.769,1.239a77.736,77.736,0,0,0,14.264,7.56c.537.231,1.065.426,1.592.622,2.121.817,4.27,1.535,6.472,2.167.713.2,1.444.4,2.167.567.83.228,1.652.423,2.485.6.221.071.451.105.667.16a79.851,79.851,0,0,0,76.212-24.972c.553-.638,1.107-1.276,1.644-1.909a79.339,79.339,0,0,0,8.656-12.708c.347-.658.71-1.321,1.056-1.979a79.923,79.923,0,0,0,5.341-13.385c.23-.756.454-1.532.644-2.3.347-1.3.672-2.616.954-3.956A79.2,79.2,0,0,0,286.794,190.9m-22.969,99.851q-1.658,1.278-3.393,2.467c-.516.353-1.032.705-1.553,1.041a70.866,70.866,0,0,1-37.3,11.508c-1.407.029-2.806.02-4.214-.025a72.954,72.954,0,0,1-11.51-1.393c-.29-.054-.561-.113-.852-.168a70.851,70.851,0,0,1-16.754-5.8q-.844-.39-1.651-.846a69.939,69.939,0,0,1-15.331-10.87c-.287-.258-.556-.519-.825-.781-.407-.374-.8-.752-1.177-1.151q-1.555-1.558-3.035-3.248l-.939-1.083c-.348-.425-.7-.851-1.026-1.281a71.17,71.17,0,0,1-4.373-6.03c-.065-.112-.148-.219-.214-.33-.491-.775-.962-1.537-1.419-2.321a8.114,8.114,0,0,1-.576-1.028l0-.018a.237.237,0,0,1-.088-.124c-.126-.207-.252-.413-.365-.642a67.218,67.218,0,0,1-4.528-10.015c-.158-.4-.32-.818-.444-1.228-.43-1.249-.83-2.525-1.173-3.8-.259-.871-.484-1.75-.688-2.617-.4-1.625-.726-3.269-1-4.908a3.244,3.244,0,0,1-.095-.583c-.044-.246-.089-.493-.112-.725a69.46,69.46,0,0,1-.752-11.991c-.007-.458.021-.925.049-1.39a71.562,71.562,0,0,1,7.295-28.806,71.916,71.916,0,0,1,8.314-13.116A71.551,71.551,0,0,1,181.061,174.1c.629-.418,1.278-.823,1.92-1.19l.034-.008A70.114,70.114,0,0,1,214.3,162.8l.035-.008c.013-.022.016,0,.034-.009a70.13,70.13,0,0,1,14.195.32c.912.116,1.806.236,2.709.391,1.222.183,2.442.423,3.665.679a10.159,10.159,0,0,1,1.076.258c1.068.223,2.092.494,3.126.8l.018,0a4.987,4.987,0,0,1,.571.148,70.774,70.774,0,0,1,14.705,6.05,69.454,69.454,0,0,1,10.5,7.016,66.909,66.909,0,0,1,6.736,6.215,72.665,72.665,0,0,1,8.375,10.611,70.931,70.931,0,0,1,11.412,42.745c-.058,1.136-.152,2.281-.266,3.412a72.5,72.5,0,0,1-1.222,7.719,74.116,74.116,0,0,1-2.827,9.782l0,.018c-.583,1.6-1.226,3.18-1.934,4.721-.371.849-.763,1.685-1.2,2.511-.662,1.365-1.4,2.728-2.163,4.045-.419.732-.859,1.452-1.3,2.171-.526.814-1.053,1.628-1.6,2.43-.239.356-.484.693-.746,1.037-1.122,1.574-2.3,3.086-3.555,4.565-.861,1.011-1.763,2.014-2.691,2.986a70.87,70.87,0,0,1-8.138,7.337" transform="translate(23.493 25.863)" fill="#f2f2f2"/><path d="M290.374,189.436a82.573,82.573,0,0,0-33.079-29.393,75.234,75.234,0,0,0-7.3-3.168,74.343,74.343,0,0,0-7.6-2.467l-.018,0a79.451,79.451,0,0,0-10.435-2.144l-.018,0a81.457,81.457,0,0,0-12.81-.8,82.558,82.558,0,0,0-38.64,10.217c-1.774.968-3.53,2.005-5.247,3.124-.787.514-1.57,1.046-2.336,1.572l-.013.021a80.023,80.023,0,0,0-9.955,8.133,81.741,81.741,0,0,0-7.215,7.855,75.692,75.692,0,0,0-4.664,6.411l-.013.022a76.279,76.279,0,0,0-4.06,6.827c-1.017,1.914-1.939,3.841-2.792,5.824-.9,2.069-1.725,4.171-2.448,6.3a83.422,83.422,0,0,0-4.459,27.9c-.015.445-.008.9.016,1.355a81.427,81.427,0,0,0,1.162,11.868c.071.423.147.863.24,1.3a.5.5,0,0,0,.057.224,7.342,7.342,0,0,0,.165.859,2.05,2.05,0,0,0,.1.452c.147.79.312,1.575.528,2.346a.675.675,0,0,0,.049.264,3.658,3.658,0,0,0,.159.62c.525,2.2,1.177,4.386,1.909,6.531q.212.608.421,1.215a81.394,81.394,0,0,0,4.709,10.722c.209.388.424.791.633,1.179.995,1.8,2.058,3.591,3.186,5.342,1.032,1.591,2.112,3.153,3.251,4.662a1.4,1.4,0,0,0,.086.125c.279.37.557.739.852,1.1.057.078.113.155.175.25.078.09.156.181.238.288.166.215.327.412.491.628.239.287.474.558.7.851l.022.013c.238.287.473.558.712.846.009.035.03.048.057.077.235.271.473.559.707.83l.018,0c.166.215.343.409.526.619.538.6,1.073,1.178,1.624,1.753,1.065,1.143,2.176,2.254,3.313,3.323.364.348.725.678,1.107,1.021a78.3,78.3,0,0,0,11.257,8.587c.71.48,1.456.951,2.209,1.383a79.9,79.9,0,0,0,13.962,6.59c.515.218,1.039.4,1.557.558a7.786,7.786,0,0,0,1.026.343c.726.256,1.466.489,2.2.688.281.093.54.175.817.251,1.842.521,3.689.985,5.573,1.386a82.575,82.575,0,0,0,57.661-8.558c1.693-.929,3.367-1.927,5.006-2.99s3.244-2.19,4.8-3.342a83.058,83.058,0,0,0,15.964-15.753c.472-.6.921-1.209,1.372-1.82a82.129,82.129,0,0,0,10.762-20.21c.246-.689.494-1.376.706-2.056a78.9,78.9,0,0,0,2.565-9.292,82.694,82.694,0,0,0-11.547-62.667M294.717,247c-.155.9-.309,1.807-.5,2.7-.05.233-.1.484-.147.718a76.45,76.45,0,0,1-4.64,14.473c-.636,1.467-1.332,2.913-2.053,4.329l0,.017c-.418.805-.832,1.555-1.261,2.325-.658,1.162-1.339,2.309-2.045,3.427-.509.81-1.035,1.625-1.589,2.409-.5.714-1.011,1.435-1.529,2.136-1.243,1.679-2.573,3.3-3.955,4.871l-.016,0c-1.211,1.375-2.434,2.7-3.744,3.971l-.018,0a2.649,2.649,0,0,0-.189.2l-.146.147c-.636.6-1.271,1.207-1.933,1.781a76.368,76.368,0,0,1-9.555,7.332,74.6,74.6,0,0,1-49.211,11.633c-1.02-.106-2.031-.252-3.06-.393-1.457-.233-2.9-.507-4.361-.814a75.115,75.115,0,0,1-14.477-4.658c-.553-.225-1.095-.473-1.619-.725a73.563,73.563,0,0,1-14.739-9.056c-.637-.48-1.244-.985-1.872-1.5-1.25-1.076-2.486-2.176-3.684-3.339a74.763,74.763,0,0,1-5.412-5.783q-.4-.476-.8-.954a1.392,1.392,0,0,1-.086-.125c-1-1.234-1.961-2.493-2.883-3.8q-.947-1.329-1.855-2.723c-.065-.112-.148-.219-.214-.332-.67-1.041-1.311-2.108-1.9-3.172a1.033,1.033,0,0,1-.161-.271c-.187-.3-.353-.591-.505-.9a77.12,77.12,0,0,1-4.19-8.907c.013-.021-.008-.034-.013-.051a74.769,74.769,0,0,1-2.526-7.789,2.5,2.5,0,0,1-.105-.341c-.211-.754-.388-1.518-.547-2.285-.19-.816-.358-1.618-.51-2.425-.1-.469-.187-.944-.271-1.42-.071-.423-.147-.863-.205-1.306a72.808,72.808,0,0,1-.9-11.934c-.007-.458,0-.92.009-1.4a75.972,75.972,0,0,1,6.265-28.449,70.279,70.279,0,0,1,3.242-6.582,69.3,69.3,0,0,1,3.814-6.139,71.2,71.2,0,0,1,5.858-7.415l.016,0a70.449,70.449,0,0,1,7.577-7.378,76.991,76.991,0,0,1,7.508-5.559,75.145,75.145,0,0,1,11.232-6.017l.051-.013a76.262,76.262,0,0,1,13.259-4.274l.12-.032a74.8,74.8,0,0,1,21.811-1.518,69.435,69.435,0,0,1,8.853,1.208c.54.1,1.081.2,1.625.319,1.578.35,3.113.748,4.658,1.179,1.487.428,2.949.9,4.407,1.428a74.738,74.738,0,0,1,22.435,12.563,70.014,70.014,0,0,1,6.748,6.194,76.351,76.351,0,0,1,16.107,25.465A74.732,74.732,0,0,1,294.717,247" transform="translate(22.972 25.347)" fill="#b3b3b3"/><path d="M140.076,205.333A86.15,86.15,0,1,0,250.7,154.244a86.147,86.147,0,0,0-110.622,51.089m154.181,56.761a78.148,78.148,0,1,1-46.325-100.34,78.135,78.135,0,0,1,46.325,100.34" transform="translate(22.55 24.921)" fill="#606970"/><path d="M252.605,308.034l-2.294-3.542a1.007,1.007,0,0,1,.3-1.393l15.026-9.732a1.007,1.007,0,0,1,1.393.3l2.294,3.542a1.007,1.007,0,0,1-.3,1.393L254,308.331a1.007,1.007,0,0,1-1.393-.3" transform="translate(41.863 49.068)" fill="#999"/><path d="M251.366,302.146l-2.15-3.319a.945.945,0,0,1,.279-1.305l11.281-7.306a.943.943,0,0,1,1.305.279l2.15,3.319a.945.945,0,0,1-.279,1.305l-11.281,7.306a.943.943,0,0,1-1.305-.279" transform="translate(41.681 48.542)" fill="#b3b3b3"/><g transform="translate(171.908 189.251)" opacity="0.4"><g clip-path="url(#f)"><path d="M244.323,166.019l-95.956,79.52c-.047-.245-.082-.5-.128-.747a4.682,4.682,0,0,1-.093-.584c-.035-.245-.082-.49-.105-.724a70.034,70.034,0,0,1-.759-11.989c0-.444.023-.876.058-1.319l82.088-68.057.689.105c1.226.187,2.451.432,3.665.689a8.629,8.629,0,0,1,1.086.257c1.062.222,2.09.49,3.117.794h.023a4.546,4.546,0,0,1,.572.14q2.924.84,5.743,1.914" transform="translate(-147.263 -162.12)" fill="#fff"/></g></g><g transform="translate(182.736 207.356)" opacity="0.4"><g clip-path="url(#g)"><path d="M270.169,182.089,160.076,273.353c-1-1.331-1.973-2.708-2.883-4.132-.07-.105-.152-.222-.222-.327-.152-.233-.292-.467-.432-.7L265.78,177.63c1.1,1.027,2.16,2.078,3.187,3.163.409.432.805.864,1.2,1.3" transform="translate(-156.539 -177.63)" fill="#fff"/></g></g><g transform="translate(195.95 223.279)" opacity="0.4"><g clip-path="url(#h)"><path d="M284.968,211.162l-99.1,82.123c-.747-.339-1.483-.689-2.218-1.051-.56-.268-1.121-.549-1.658-.852a69.636,69.636,0,0,1-14.137-9.794L276.784,191.27a70.826,70.826,0,0,1,8.183,19.892" transform="translate(-167.859 -191.27)" fill="#fff"/></g></g></g><text transform="translate(21.041 79.927)" fill="#fff" font-size="27" font-family="Roboto-Regular, Roboto"><tspan x="0" y="0">INFORME</tspan></text></g></g></g></svg>