<svg xmlns="http://www.w3.org/2000/svg" width="609.505" height="402.44" viewBox="0 0 609.505 402.44"><g transform="translate(-495.495 -1251.863)"><g transform="translate(494.496 1251.863)"><path d="M284.9,0C268.137,0-27.414,4.713,2.066,13.668s315.717,30.462,302.272,23.5c-38.557-19.965,194.851-.982,272.029-2.527,32.363-.648-27.689-12.26,5.3-13.078s41.223-9.023-2.121-10.942C500.984,7.141,284.9,0,284.9,0Z" transform="translate(1.224 363.908)" fill="#e8efef"/><g transform="translate(3.743 0)"><path d="M275.065,282.777C244.521,264.829,153.223,340.34,73.9,342.149S-28.261,283.2,41.968,226.807-2.314,129.072,29.535,57.842s114.986-21.392,194.3-45.781S330.6,1.084,349.745,44.933s-28.425,94.481,66.406,118.816,132.078,99.511,119.2,135.674C522.636,335.126,466.316,395.166,275.065,282.777Z" transform="translate(0 1.628)" fill="#fdffdb"/><path d="M16.458,17.309c-24.164,23.6-19.969,91.912,1.223,109.679S137.42,138.2,156.517,186.28s100.1-38.843,28.161-77.579C125.808,77,108.5,101.209,99.81,49.317,90.5-6.3,46.177-11.717,16.458,17.309Z" transform="translate(365.308 0)" fill="#daedec"/></g><path d="M25.24,36.2S33,31.663,34.785,25.492c.519-1.8.093-6.18-7.6-4.857-5.574.958-.961-5.846-5.351-9.052-4.2-3.064-6.391-.39-10.016-2.527C6.786,6.093,1.148-.9.091.1S7.461,10.4,8.348,13.646c.755,2.762-.807,7.69,2.427,10.182,3.251,2.506,5.5-1.6,8.168,1.507C21,27.723,17.512,38.177,25.24,36.2Z" transform="translate(80.912 306.528)" fill="#fba319"/><path d="M1.24,40.715s7.83,6.366,15.018,5.8c2.094-.165,6.53-2.344,2.1-9.909-3.209-5.478,5.763-3.319,7.4-9.2,1.562-5.619-2.115-6.869-1.3-11.523C25.578,9.433,30.694.748,29.234.03S21.317,11.845,18.259,14.058c-2.6,1.884-8.4,2.19-9.74,6.572-1.348,4.405,3.848,5.144,1.644,9.177C8.467,32.911-3.894,33.377,1.24,40.715Z" transform="translate(172.345 290.204)" fill="#ffcf50"/><path d="M6.038,49.383s10.071.628,15.591-4.011c1.608-1.352,3.951-5.7-4.052-9.283-5.8-2.592,2.759-6.051.671-11.784-2-5.48-5.714-4.359-7.757-8.618C7.657,9.782,6.771-.259,5.166.005S5.591,14.222,4.39,17.8c-1.023,3.046-5.561,6.664-4.1,11.009,1.464,4.368,6.121,1.949,6.672,6.511C7.382,38.832-2.4,46.4,6.038,49.383Z" transform="translate(128.342 287.161)" fill="#ced371"/><path d="M9.641,35.281a.7.7,0,0,1-.984-.231c-1.367-2.3-5.914-10.507-6.089-18.213A67.057,67.057,0,0,0,.028.9.7.7,0,0,1,.492.035h0a.7.7,0,0,1,.894.472,68.623,68.623,0,0,1,2.595,16.3c.165,7.277,4.6,15.324,5.894,17.523a.7.7,0,0,1-.232.952Z" transform="translate(138.676 313.685)" fill="#2a425b"/><path d="M.672,34.032h0A.7.7,0,0,1,0,33.272c.224-2.666,1.3-11.987,5.633-18.359A67.074,67.074,0,0,0,12.834.468a.7.7,0,0,1,.88-.433h0a.7.7,0,0,1,.453.9A68.6,68.6,0,0,1,6.8,15.709c-4.1,6.024-5.166,15.144-5.39,17.684A.7.7,0,0,1,.672,34.032Z" transform="translate(177.035 315.096)" fill="#2a425b"/><path d="M24.032,20.042a.706.706,0,0,1-.991.081C20.76,18.2,11.761,10.736,7.693,9.149,3.538,7.529.926,2.79.069,1.012A.705.705,0,0,1,.437.056l0,0a.7.7,0,0,1,.9.338C2.13,2,4.555,6.408,8.207,7.832c4.325,1.687,13.418,9.242,15.75,11.212a.7.7,0,0,1,.076,1Z" transform="translate(102.187 328.935)" fill="#2a425b"/><path d="M15.508,60.015S-10.61,33.05,4.943,24.213,18.552,45.068,29.51,38,34.459.177,51.6,0,54.253,41.534,58.5,41.71s4.833-26.334,12.844-25.1S62.38,57.97,62.38,57.97,52.974,66.907,15.508,60.015Z" transform="translate(114.899 309.473)" fill="#9ea257"/><path d="M9.7,36.2S1.934,31.663.152,25.492c-.519-1.8-.093-6.18,7.6-4.857,5.574.958.961-5.846,5.351-9.052,4.2-3.064,6.391-.39,10.016-2.527C28.151,6.093,33.789-.9,34.846.1S27.476,10.4,26.589,13.646c-.755,2.762.807,7.69-2.427,10.182-3.251,2.506-5.5-1.6-8.168,1.507C13.938,27.723,17.426,38.177,9.7,36.2Z" transform="translate(446.894 306.528)" fill="#fba319"/><path d="M28.254,40.715s-7.83,6.366-15.018,5.8c-2.094-.165-6.53-2.344-2.1-9.909,3.209-5.478-5.763-3.319-7.4-9.2-1.562-5.619,2.115-6.869,1.3-11.523C3.916,9.433-1.2.748.26.03S8.177,11.845,11.235,14.058c2.6,1.884,8.4,2.19,9.74,6.572,1.348,4.405-3.848,5.144-1.644,9.177C21.027,32.911,33.388,33.377,28.254,40.715Z" transform="translate(360.905 290.204)" fill="#ffcf50"/><path d="M17.2,49.383s-10.071.628-15.591-4.011C0,44.02-2.343,39.669,5.66,36.089c5.8-2.592-2.759-6.051-.671-11.784,2-5.48,5.714-4.359,7.757-8.618C15.58,9.782,16.466-.259,18.071.005s-.426,14.216.776,17.795c1.023,3.046,5.561,6.664,4.1,11.009-1.464,4.368-6.121,1.949-6.672,6.511C15.855,38.832,25.642,46.4,17.2,49.383Z" transform="translate(411.165 287.161)" fill="#ced371"/><path d="M.331,35.281a.7.7,0,0,0,.984-.231c1.367-2.3,5.914-10.507,6.089-18.213A67.057,67.057,0,0,1,9.944.9.7.7,0,0,0,9.48.035h0a.7.7,0,0,0-.894.472,68.623,68.623,0,0,0-2.595,16.3C5.826,24.083,1.391,32.13.1,34.328a.7.7,0,0,0,.232.952Z" transform="translate(414.096 313.685)" fill="#2a425b"/><path d="M13.535,34.032h0a.7.7,0,0,0,.667-.76c-.224-2.666-1.3-11.987-5.633-18.359A67.074,67.074,0,0,1,1.373.468.7.7,0,0,0,.493.034h0a.7.7,0,0,0-.453.9A68.6,68.6,0,0,0,7.4,15.709c4.1,6.024,5.166,15.144,5.39,17.684A.7.7,0,0,0,13.535,34.032Z" transform="translate(371.502 315.096)" fill="#2a425b"/><path d="M.173,20.042a.706.706,0,0,0,.991.081C3.445,18.2,12.444,10.736,16.512,9.149c4.155-1.621,6.767-6.36,7.624-8.137a.705.705,0,0,0-.368-.955l0,0a.7.7,0,0,0-.9.338C22.074,2,19.65,6.408,16,7.832,11.673,9.519,2.579,17.074.248,19.044a.7.7,0,0,0-.076,1Z" transform="translate(436.352 328.935)" fill="#2a425b"/><path d="M57.979,60.015S84.1,33.05,68.544,24.213,54.935,45.068,43.978,38,39.029.177,21.885,0s-2.651,41.533-6.893,41.71S10.16,15.376,2.149,16.614,11.108,57.97,11.108,57.97,20.513,66.907,57.979,60.015Z" transform="translate(374.358 309.473)" fill="#9ea257"/><path d="M2.766,0h129.2a2.766,2.766,0,0,1,2.766,2.766V4.3a2.766,2.766,0,0,1-2.766,2.766H2.766A2.766,2.766,0,0,1,0,4.3V2.766A2.766,2.766,0,0,1,2.766,0Z" transform="translate(218.757 360.374)" fill="#6e2034"/><path d="M0,0,28.749,55.086h94.26L96.056,0Z" transform="translate(213.748 305.288)" fill="#f9bb41"/><path d="M488.4,13.411,410.167,228.351c-2.7,7.409-10.89,13.411-18.292,13.411H9.388c-7.4,0-11.219-6-8.523-13.411L79.1,13.411C81.794,6,89.98,0,97.382,0H479.869C487.271,0,491.1,6,488.4,13.411Z" transform="translate(64.465 63.526)" fill="#ffb500"/><path d="M488.4,13.411,410.168,228.351c-2.7,7.409-10.89,13.411-18.292,13.411H9.388c-7.4,0-11.219-6-8.523-13.411L79.1,13.411C81.794,6,89.98,0,97.382,0H479.869C487.271,0,491.1,6,488.4,13.411Z" transform="translate(60.93 63.526)" fill="#ffcf50"/><path d="M420.488,0,410.168,28.356c-2.7,7.409-10.89,13.411-18.292,13.411H9.388c-7.4,0-11.219-6-8.523-13.411L11.186,0Z" transform="translate(60.93 263.522)" fill="#ffb500"/><path d="M0,190.346,69.28,0H456.452l-69.28,190.346Z" transform="translate(82.642 73.176)" fill="#e8efef"/><path d="M469.026,8.341,399.964,198.088c-1.677,4.607-6.77,8.341-11.377,8.341H5.843c-4.607,0-6.982-3.734-5.305-8.341L69.6,8.341C71.277,3.734,76.37,0,80.977,0H463.721C468.328,0,470.7,3.734,469.026,8.341Z" transform="translate(62.846 38.712)" fill="#5b8fc4"/><path d="M18.506,0H63.817a1.652,1.652,0,0,1,1.553,2.442L50.351,43.7a3.862,3.862,0,0,1-3.33,2.442H1.71A1.652,1.652,0,0,1,.157,43.7L15.176,2.442A3.861,3.861,0,0,1,18.506,0Z" transform="translate(151.451 59.47)" fill="#fff"/><path d="M5.412,33.3.15,22.39c-.464-.961.18-2.4,1.437-3.213l.389-.251c1.257-.813,2.652-.693,3.115.268l3,6.225c.535,1.11,2.274,1.069,3.579-.085L39.328.892c1.13-1,2.63-1.187,3.35-.421L42.9.708c.72.767.387,2.2-.743,3.2L8.991,33.218C7.687,34.371,5.947,34.412,5.412,33.3Z" transform="translate(164.342 65.605)" fill="#ffb500"/><path d="M18.506,0H63.817a1.652,1.652,0,0,1,1.553,2.442L50.351,43.7a3.862,3.862,0,0,1-3.33,2.442H1.71A1.652,1.652,0,0,1,.157,43.7L15.176,2.442A3.86,3.86,0,0,1,18.506,0Z" transform="translate(105.908 184.6)" fill="#fff"/><path d="M5.412,33.3.15,22.39c-.464-.961.18-2.4,1.437-3.213l.389-.251c1.257-.813,2.652-.693,3.115.268l3,6.225c.535,1.11,2.274,1.069,3.579-.085L39.328.892c1.13-1,2.63-1.187,3.35-.421L42.9.708c.72.767.387,2.2-.743,3.2L8.991,33.218C7.686,34.372,5.947,34.413,5.412,33.3Z" transform="translate(118.799 190.734)" fill="#ffb500"/><path d="M179.458,2.121H.563c-.478,0-.693-.475-.481-1.061h0A1.56,1.56,0,0,1,1.334,0h178.9c.478,0,.693.475.48,1.061h0A1.558,1.558,0,0,1,179.458,2.121Z" transform="translate(252.27 64.544)" fill="#afddda"/><path d="M202.9,2.121H.563c-.478,0-.693-.475-.481-1.061h0A1.56,1.56,0,0,1,1.334,0h202.34c.478,0,.693.475.481,1.061h0A1.56,1.56,0,0,1,202.9,2.121Z" transform="translate(224.119 77.476)" fill="#afddda"/><path d="M202.9,2.121H.563c-.478,0-.693-.475-.481-1.061h0A1.56,1.56,0,0,1,1.334,0h202.34c.478,0,.693.475.481,1.061h0A1.56,1.56,0,0,1,202.9,2.121Z" transform="translate(219.412 90.409)" fill="#afddda"/><path d="M179.458,2.121H.563c-.478,0-.693-.475-.481-1.061h0A1.56,1.56,0,0,1,1.334,0h178.9c.478,0,.693.475.48,1.061h0A1.56,1.56,0,0,1,179.458,2.121Z" transform="translate(227.579 132.383)" fill="#afddda"/><path d="M202.9,2.121H.563c-.478,0-.693-.475-.481-1.061h0A1.56,1.56,0,0,1,1.334,0h202.34c.478,0,.693.475.481,1.061h0A1.558,1.558,0,0,1,202.9,2.121Z" transform="translate(199.427 145.315)" fill="#afddda"/><path d="M202.9,2.121H.563c-.478,0-.693-.475-.481-1.061h0A1.56,1.56,0,0,1,1.334,0h202.34c.478,0,.693.475.481,1.061h0A1.561,1.561,0,0,1,202.9,2.121Z" transform="translate(194.721 158.248)" fill="#afddda"/><path d="M179.458,2.121H.563c-.478,0-.693-.475-.481-1.061h0A1.56,1.56,0,0,1,1.334,0h178.9c.478,0,.693.475.48,1.061h0A1.558,1.558,0,0,1,179.458,2.121Z" transform="translate(204.716 195.198)" fill="#afddda"/><path d="M202.9,2.121H.563c-.478,0-.693-.475-.481-1.061h0A1.56,1.56,0,0,1,1.334,0h202.34c.478,0,.693.475.481,1.061h0A1.558,1.558,0,0,1,202.9,2.121Z" transform="translate(176.565 208.13)" fill="#afddda"/><path d="M202.9,2.121H.563c-.478,0-.693-.475-.481-1.061h0A1.56,1.56,0,0,1,1.334,0h202.34c.478,0,.693.475.481,1.061h0A1.559,1.559,0,0,1,202.9,2.121Z" transform="translate(171.857 221.063)" fill="#afddda"/><path d="M2.766,0h129.2a2.766,2.766,0,0,1,2.766,2.766V4.3a2.766,2.766,0,0,1-2.766,2.766H2.766A2.766,2.766,0,0,1,0,4.3V2.766A2.766,2.766,0,0,1,2.766,0Z" transform="translate(186.237 360.374)" fill="#a3314f"/><path d="M0,0,28.749,55.086h94.26L96.056,0Z" transform="translate(209.506 305.288)" fill="#ffcf50"/><path d="M0,.2s.533.876.7.744S.289,0,.289,0A.288.288,0,0,0,0,.2Z" transform="translate(86.862 171.075)" fill="#2a425b"/><path d="M0,.861,1,1.956a.8.8,0,0,0,.87-.677L1.229,0Z" transform="translate(85.451 169.383)" fill="#fba319"/><path d="M0,1.288l.412.645s1.5,0,1.756-1.281L1.777,0Z" transform="translate(84.635 168.36)" fill="#f9bb41"/><path d="M41,5.421s-.236,10.84,1.3,12.607,22.387,33.7,21.208,38.411S5.745,92.559,5.745,92.559.353,90.843,0,79.885c0,0,40.532-24.272,40.649-26.157S19.441,27.218,19.087,26.393,32.284,0,32.284,0Z" transform="translate(17.452 197.657)" fill="#7f833b"/><path d="M41.866,3.919s0,13.678-3.532,15S48.423,45.2,48.961,52.031s-9.713,69.281-9.713,69.281-7.894,5.184-15.435-.589c0,0,10.133-48.19,4.124-62.093S12.973,25.757,11.676,25.285.836,21.638.012,7.378,41.866,3.919,41.866,3.919Z" transform="translate(7.897 198.648)" fill="#9ea257"/><path d="M52.007,45.354l-40.282,7.89a3.526,3.526,0,0,1-4.143-2.785l-2.941-15-.41-2.093-1.152-5.9-.636-3.216L.067,12.106a3.534,3.534,0,0,1,2.785-4.15L43.134.067a3.537,3.537,0,0,1,4.15,2.785L54.791,41.2A3.533,3.533,0,0,1,52.007,45.354Z" transform="translate(112.302 105.728)" fill="#fff"/><path d="M42.524,0s6.127,2,6.363,7.953c0,0-18.251,21.307-20.826,21.591S.935,24.6.138,24.066,2.26,3.123,2.26,3.123s19.89,11.293,22.183,11.655S42.524,0,42.524,0Z" transform="translate(62.708 138.804)" fill="#ffb500"/><path d="M11.9,36.574,1.29,27.852A3.535,3.535,0,0,1,.8,22.877h0a3.535,3.535,0,0,1,4.975-.486l4,3.288a3.535,3.535,0,0,0,5.35-1.041L27.535,1.846A3.535,3.535,0,0,1,32.33.431h0a3.535,3.535,0,0,1,1.415,4.794l-16.5,30.308A3.534,3.534,0,0,1,11.9,36.574Z" transform="translate(121.152 113.287)" fill="#ffb500"/><path d="M13.806,9.953c-.332-.566-2.177-.523-3.365-.834A1.509,1.509,0,0,1,9.508,8.6c-.587-.94-.53-3.711-.587-4.729a1.226,1.226,0,0,1,.368-.65L8.652,0A21.522,21.522,0,0,0,5,2.234C3.767,3.471.049,10.717.049,10.717-.461,11.707,3.2,15.9,3.2,15.9s2.064-2.057,3.422-3.181a15.577,15.577,0,0,1,4.228-1.506C12.555,10.752,14.039,10.335,13.806,9.953Z" transform="translate(106.092 129.972)" fill="#f7bcb7"/><path d="M60.872,66.79c1.647,4.715-1.534,10.845-1.534,10.845a36.564,36.564,0,0,0-12.181-3.69c-.262-.035-.516-.056-.777-.085l-.276-.021C35.033,72.969,3.61,81.049,3.61,81.049S.075,78.752,2.019,73.8-.632,67.617.075,60.194,15.217,6.035,25.171,1.871C28.268.577,39.741-.377,42.463.146l.205.043c1.294.346,7.5,3.973,12.895,7.395,4.206,2.665,7.911,5.2,8.406,5.952C66.647,17.657,59.225,62.081,60.872,66.79Z" transform="translate(1 128.392)" fill="#e4e893"/><path d="M26.6,5.924a32.331,32.331,0,0,1-.389,4.5,40.765,40.765,0,0,1-2,7.9c-2.255,6.172-6.667,6.6-8,6.37-1.987-.353-6.278-1.944-6.54-9.812L4.15,14.45,0,3.619,12.683,0s.17,0,.467.014C15.616.12,27.111.891,26.6,5.924Z" transform="translate(42.255 105.519)" fill="#f7bcb7"/><path d="M16.168,10.562l-3.5,7.034a2.038,2.038,0,0,1-1.117,1.322c-.827.445-2.262.735-4.744.276C2.3,18.366,0,10.2,0,10.2L4.072,1.7,9.148,0l6.511,9.8Z" transform="translate(43.668 118.379)" fill="#f7bcb7"/><path d="M19.362,5.91a32.331,32.331,0,0,1-.389,4.5C15.623,9.53,10.836,7.126,8.609,6.469,5.428,5.522,3.378,9.636,3.378,9.636S.239,3.047.006,2.581C-.157,2.255,3.222.912,5.909,0,8.376.106,19.871.877,19.362,5.91Z" transform="translate(49.495 105.533)" fill="#db9795"/><path d="M7.273.764,3.773,7.8A2.038,2.038,0,0,1,2.656,9.12c.431-1.817.5-3.591-.65-4.086C-.588,3.917.076.212.076.212L6.764,0Z" transform="translate(52.563 128.176)" fill="#db9795"/><path d="M13.56,19.743c-.3,2.99-1.146,7.822,7.939,8.263,6.014.292,6.553-.353,6.774.221s-.618.574-1.016,1.679-2.657,8.019-6.849,7.6c-6.186-.618-9.9-4.021-8.351-11.046,0,0-1.959,1.184-2.916.442s-2,1.433-2,1.433S1.175,27.234.083,19.92C-.8,14,5.562,12.055,8.743,7.548,14.046.035,23.854-2.615,31.277,3.041s3.049,17.479-2.342,15.721-8.572-3.57-11.576-2.6S13.662,18.724,13.56,19.743Z" transform="translate(39.431 94.171)" fill="#2a425b"/><path d="M5.007,1.872A4.279,4.279,0,0,0,1.34.016C-.958.237-.644,7.367,5.007,7.308Z" transform="translate(46.482 111.511)" fill="#f7bcb7"/><path d="M47.016,46.522c0,5.9-.163,11.8-.375,16.9-.17,4.157-.375,7.776-.537,10.421C35.033,72.969,3.61,81.049,3.61,81.049S.075,78.752,2.019,73.8-.632,67.617.075,60.194,15.217,6.035,25.171,1.871C28.268.577,39.741-.377,42.463.146l.205.043s-5.832,6.157.65,16.295C46.2,20.987,47.009,33.747,47.016,46.522Z" transform="translate(0.999 128.391)" fill="#ced371"/><path d="M0,1.693l14.006,21.12s2.4.772,2.4-1.683L2.607.1A1.95,1.95,0,0,0,0,1.693Z" transform="translate(70.046 146.729)" fill="#137f7f"/><path d="M13.884,49.395c-.424,4.934-.587,8.632-.17,9.812,1.647,4.715-1.534,10.845-1.534,10.845A36.564,36.564,0,0,0,0,66.362c.127-2.474.339-6.37.615-10.986.311-4.977.7-10.795,1.152-16.585C2.8,25.874,4.178,13.142,5.762,10.371,9.2,4.362,8.18,0,8.18,0h.226c4.206,2.665,7.911,5.2,8.406,5.952,1.534,2.361-.241,17.928-1.732,31.692C14.62,41.88,14.188,45.945,13.884,49.395Z" transform="translate(48.157 135.973)" fill="#ced371"/><path d="M.119,10.386S2.24,9.06,2.284,8.486,2.637,3.67,3.433,3.228s3,.442,3.358.442S12.976-.483,13.9.047s-.486,1.591,0,2.209,3.4,4.772,3.579,6.672-2.613,4.8-3.935,5.76-9.541,3.474-9.541,3.474S-.809,15.556.119,10.386Z" transform="translate(67.144 152.131)" fill="#f7bcb7"/><path d="M2.284,0c-.452,5.79-.841,11.608-1.152,16.585C.75,16.741.375,16.9,0,17.045c.212-5.1.375-11,.375-16.9Z" transform="translate(47.641 174.764)" fill="#79ccca"/><path d="M14.464,0C14,4.235,13.573,8.3,13.269,11.75,9.48,13.581,4.6,15.85,0,17.73.311,12.753.7,6.935,1.152,1.145,6.794.693,12.131.212,14.464,0Z" transform="translate(48.772 173.619)" fill="#5fb7b3"/><path d="M32.365,30.385c0,5.9-.163,11.8-.375,16.9-4.758,1.894-9.091,3.3-11.452,3.259-7.19-.12-13.672-13.906-18.423-26.15S2.115,0,2.115,0,15.822,29.918,15.942,30.979C16,31.509,24.185,31.014,32.365,30.385Z" transform="translate(15.651 144.528)" fill="#9ea257"/><path d="M50.393,29.478a20.3,20.3,0,0,1,6.318,10.251S28.7,57.844,20.923,57.933,2.012,33.171.333,22.311,3.792,3.406,5.437,1.751s6.34-3.069,8.681.333,7.865,32.151,11.488,35.561S50.393,29.478,50.393,29.478Z" transform="translate(17.355 131.271)" fill="#ffb500"/><path d="M0,1.149,1.768,0,4.993,4.6l-.663.552L1.643,1.127l-1.165.75Z" transform="translate(72.653 145.682)" fill="#2a425b"/><path d="M15.58,0s-1.061,6.422.294,8.66,13.962,11.016,12.607,12.43S3.2,19.256.026,16.083C-.445,15.612,5.564,0,5.564,0H15.58Z" transform="translate(29.502 319.665)" fill="#2a425b"/><path d="M21,8.592s-5.714,2.187-6.82,4.428-1.694,17.29-3.529,16.809S-.862,7.255.062,3C.2,2.372,15.854,0,15.854,0Z" transform="translate(3.29 279.021)" fill="#2a425b"/><path d="M0,0S2.25.766,1.9,2.71A9.02,9.02,0,0,0,0,0Z" transform="translate(48.016 113.236)" fill="#db9795"/><path d="M181.866,41.914,0,16.1,2.285,0,184.151,25.815s3.533,2.476,2.593,8.17C185.625,40.761,181.866,41.914,181.866,41.914Z" transform="translate(408.757 215.22)" fill="#2a425b"/><path d="M.132,71.569a67.394,67.394,0,1,1,71.438,63.092c-1.422.088-2.831.132-4.236.132A67.4,67.4,0,0,1,.132,71.569Z" transform="translate(278.809 147.22)" fill="#137f7f"/><circle cx="57.122" cy="57.122" r="57.122" transform="translate(289.083 157.495)" fill="#ced371" opacity="0.65"/><path d="M11.962.333S7.7,8.873,0,9.981L1.045,0Z" transform="translate(514.418 360.44)" fill="#0f635f"/><path d="M.038,49.21c-.444,4.411,3.078,23.089,5.7,36.1a.047.047,0,0,1,0,.018c1.494,7.417,2.7,12.984,2.7,12.984.075-.152.145-.311.226-.463,2.118-4.325,4.447-6.529,6.471-7.686h.006a10.916,10.916,0,0,1,5.261-1.5c-.259-.7-1.166-3.305-1.423-11.043S16.924,61.9,17.738,47.9s8.1-36.8,8.1-36.8A17.333,17.333,0,0,0,27.724,0a50.157,50.157,0,0,1-9.533,3.869,15.971,15.971,0,0,1-.639,4.865c0,.012-.021.081-.056.2-.073.247-.154.506-.246.763-.033.086-.06.177-.093.269a22.007,22.007,0,0,1-4.538,7.29A119.984,119.984,0,0,0,1.9,31.427S1.068,39.088.038,49.21Z" transform="translate(505.98 272.11)" fill="#9ea257"/><path d="M.046,19.561A9.439,9.439,0,0,0,3.52,24.666c4.46-23.937,13.8-13.1,14.352-12.44L12.7,4.781,9.382,0h0C7.355,1.154,5.022,3.36,2.9,7.686l.022.378.511,8.877a1.154,1.154,0,0,1-1.273,1.214l-.874-.091A1.174,1.174,0,0,0,.046,19.561Z" transform="translate(511.738 362.271)" fill="#2a425b"/><path d="M0,15.453v0a12.989,12.989,0,0,0,8.177,2.365c2.581-.233,6.2-14.777,6.2-14.777l-.026-.031C13.8,2.355,4.461-8.484,0,15.453Z" transform="translate(515.257 371.484)" fill="#1631a4"/><path d="M14.378,0s-3.621,14.545-6.2,14.777A12.99,12.99,0,0,1,0,12.412Z" transform="translate(515.257 374.528)" fill="#1631a4"/><path d="M0,15.453v0a12.989,12.989,0,0,0,8.177,2.365c2.581-.233,6.2-14.777,6.2-14.777l-.026-.031C13.8,2.355,4.461-8.484,0,15.453Z" transform="translate(515.257 371.484)" fill="#183147"/><path d="M.441,53.217c2.2,7.776,6.471,47.121,6.471,47.121a12.2,12.2,0,0,0,2.549.925c4.257,1.014,8.258-.559,10.964-2.145a20.664,20.664,0,0,0,3.48-2.535L22.733,77.344c-.077-12.4-1.35-33.443-.807-36.063.205-.988,1.466-7.814,4.811-12.932,3.132-4.8,6.155-11.035,9.731-14.959C41.44,7.932,42.127,2.781,42.046,0A76.4,76.4,0,0,1,28.513,2.649,114.647,114.647,0,0,1,14,3.265l-9,23.936S-1.763,45.44.441,53.217Z" transform="translate(482.126 275.979)" fill="#9ea257"/><path d="M3.31,12.116s10.025,3.737,14.709,2.942c5.167-.877,2.389-9.7,1.575-15.057C16.888,1.586,12.887,3.159,8.63,2.145,6.715,4.8,1.814,6.11.375,7.665-1.326,9.5,3.31,12.116,3.31,12.116Z" transform="translate(482.957 375.097)" fill="#2a425b"/><path d="M0,5.835a4.755,4.755,0,0,1,2.783,2.52q.25.418.478.868v.006A20.6,20.6,0,0,1,4.524,12.45a41.307,41.307,0,0,1,11.635-1.017L13.772,2.245a1.706,1.706,0,0,0-1.036.277C11.315,3.351,3.016,2.731,1.388,0c-.052.386-.144.862-.257,1.378v.006C.711,3.344,0,5.835,0,5.835Z" transform="translate(501.6 191.983)" fill="#f7bcb7"/><path d="M0,33.8s.128.814.338,2.146C1.216,41.5,3.595,56.029,4.4,57.068c1,1.279,2.313,2.251.822,5.284s-2.155,14.19-2.155,14.19c1,.04,1.991.066,2.961.085a115.894,115.894,0,0,0,14.509-.615,76.587,76.587,0,0,0,13.531-2.65q1.716-.514,3.211-1.063a46.961,46.961,0,0,0,6.322-2.806,52.1,52.1,0,0,0,5.33-3.408c.99-.572.982-2.245.358-4.948-.608-2.63-1.812-6.242-3.24-10.783-2.891-9.188-1.894-17.132-3.719-31.745s-6.863-16.77-6.863-16.77A15.037,15.037,0,0,0,28.932.089,41.119,41.119,0,0,0,17.3,1.112,85.786,85.786,0,0,0,5.034,4.778c-1.8.683-3.111,1.239-3.683,1.488-.057.042-.116.089-.174.136,5.24-.282,7.5,1.686,8.016,4.68C10.555,18.918,0,33.8,0,33.8Z" transform="translate(490.098 202.618)" fill="#e8ed8f"/><path d="M0,.024S5.04,2.186,6.865,16.793s.825,22.555,3.72,31.745c1.427,4.537,2.628,8.148,3.235,10.78,2.935-3.5,8.277-10.037,8.967-12.018.958-2.75-5.564-20.536-12.32-34.49S0,.024,0,.024Z" transform="translate(525.568 204.438)" fill="#ced371"/><path d="M.494.494V.5L.5.5Z" transform="translate(483.504 215.825)" fill="#ffd648"/><path d="M0,23.319s.128.814.338,2.146C1.216,31.015,3.595,45.549,4.4,46.588c1,1.279,2.313,2.251.822,5.284s-2.155,14.19-2.155,14.19c1,.04,1.991.066,2.961.085a115.891,115.891,0,0,0,14.509-.615,76.589,76.589,0,0,0,13.531-2.65q1.716-.514,3.211-1.063c-.524-.031-18.535.239-25.045-4.168-6.214-4.207,10.073-9.816,5.6-10.285-6.585-.689-9.756-21.234-7.889-27.653C12.728,10.159,9.9,0,9.9,0s-.254.216-.709.6C10.555,8.437,0,23.319,0,23.319Z" transform="translate(490.098 213.098)" fill="#a8ac62"/><path d="M.038,39.243c-.444,4.411,3.078,23.089,5.7,36.1-.154-1.024-6.273-42,0-50.418C11.077,17.756,15.79,4.161,17.156,0a22.007,22.007,0,0,1-4.538,7.29A119.984,119.984,0,0,0,1.9,21.461S1.068,29.121.038,39.243Z" transform="translate(505.98 282.077)" fill="#7f833b"/><path d="M0,4.452a4.755,4.755,0,0,1,2.783,2.52A37.447,37.447,0,0,1,1.13,0C.711,1.96,0,4.452,0,4.452Z" transform="translate(501.6 193.367)" fill="#db9795"/><path d="M0,1.71c-.059,9.87,3.814,14.783,4.927,14.662.2-.02.388-.344.564-.853a31.525,31.525,0,0,0,.994-5.078l0,0c-.059-.1,3.751-.346,3.735-.47-.068-.4-2.955-.721-2.669-1.342l-.092-.306A1.946,1.946,0,0,0,6.92,6.642C9.33,5.737,8.5,1.99,6.946.568S4.755,2.207,4.755,2.207C.416-2.45,0,1.71,0,1.71Z" transform="translate(496.5 181.542)" fill="#f7bcb7"/><path d="M.05,6.53C-.758,14.249,8.566,17.8,8.566,17.8s.372-4.318,4.711.34c0,0,.444-3.176,2-1.754s2.022,4.908-.388,5.813a2.883,2.883,0,0,1,.4,1.857v0c-.047.408-.1.856-.164,1.328-.024.186-.281.5-.305.692,1.632,2.731,10.16,3.227,11.584,2.4a1.65,1.65,0,0,1,1.035-.276c.693.056,2.675-1.948,4.241-4.5,3.486-5.681,3.568-11.041,2.6-13.457s-3.451-1.9-3.408-3.482S30.161,4.221,28.5,2.584,25.477-.089,22.438.006C19.438.1,11.109,6.278,6.943,7.474.769,9.244.05,6.53.05,6.53Z" transform="translate(487.936 166.031)" fill="#ffb500"/><path d="M1.164,0a1.839,1.839,0,0,0-.81,2.768A2.983,2.983,0,0,1,1.164,0Z" transform="translate(501.933 183.512)" fill="#db9795"/><path d="M3.44,4.96c1.826,1.65.513,5.126.644,6.286s1.053,2.807,4.611,4.587a18.964,18.964,0,0,0,8.692,1.758C17,14.827,15.643,9.183,18.659,6.96c-1.612-1.37-4.735-3.584-6.871-2.385,0,0-4.709-.588-7.4-2.13S.353-.3.06.067.51,2.313,3.44,4.96Z" transform="translate(431.869 223.713)" fill="#f7bcb7"/><path d="M.2,31.857a19.187,19.187,0,0,0,.425,2.189s24.114,14.4,29.6,13.949c3.21-.261,10.691-12.2,17-20.38C50.634,21.761,60.65-4.415,42.338.646A59.557,59.557,0,0,0,36.954,9.3h-.006V9.3c-4.15,7.7-8.264,16.938-9.4,18.46-.633.854-3.236.6-6.513-.155l-.067-.016A164.143,164.143,0,0,1,3.278,21.834,5.38,5.38,0,0,0,2.7,22.2C-.311,24.428-.188,29.094.2,31.857Z" transform="translate(447.824 208.47)" fill="#ced371"/><path d="M9.547,15.537C10.946,12.419,15.764.378,15.911,0c-4.15,7.7-8.264,16.938-9.4,18.46-.633.854-3.236.6-6.513-.155l12.371,3.018C12.167,21.192,8.163,18.624,9.547,15.537Z" transform="translate(468.861 217.773)" fill="#a8ac62"/></g></g></svg>