<svg xmlns="http://www.w3.org/2000/svg" xmlns:xlink="http://www.w3.org/1999/xlink" width="121.518" height="126.057" viewBox="0 0 121.518 126.057"><defs><clipPath id="a"><rect width="121.518" height="126.057" fill="none"/></clipPath></defs><g clip-path="url(#a)"><path d="M5.717,0H115.8a5.7,5.7,0,0,1,4.035,1.682l0,0a5.7,5.7,0,0,1,1.678,4.039V73.432a5.73,5.73,0,0,1-5.717,5.717H62.25v9.806l25.464,34.114a1.87,1.87,0,1,1-3,2.237L62.25,95.208v25.573a1.871,1.871,0,0,1-3.743,0V95.208l-22.466,30.1a1.87,1.87,0,1,1-3-2.237L58.508,88.955V79.149H5.717a5.7,5.7,0,0,1-4.039-1.678l-.117-.128A5.7,5.7,0,0,1,0,73.432V5.717A5.7,5.7,0,0,1,1.678,1.685l.008-.007A5.694,5.694,0,0,1,5.717,0M115.8,3.743H5.717A1.972,1.972,0,0,0,3.743,5.717V73.432a1.962,1.962,0,0,0,.506,1.321l.075.071a1.97,1.97,0,0,0,1.393.582H115.8a1.987,1.987,0,0,0,1.974-1.974V5.717a1.97,1.97,0,0,0-.582-1.393V4.317a1.963,1.963,0,0,0-1.392-.574" fill="#3a525e" fill-rule="evenodd"/><path d="M59.079,92.844a8.434,8.434,0,0,1,4.991,1.631c8.065-9.539,15.126-8.508,23.024-7.353C95.4,88.335,104.753,89.7,117.88,75.7l-3.224.11a1.864,1.864,0,1,1-.137-3.725l7.524-.258a1.864,1.864,0,0,1,1.931,1.794,1.929,1.929,0,0,1-.019.344l-1.1,7.285a1.868,1.868,0,1,1-3.7-.552l.17-1.124C105.556,93.6,95.5,92.129,86.554,90.82c-6.9-1.008-13.057-1.907-19.994,6.506a8.482,8.482,0,0,1-13.478,10l-.11-.119a8.478,8.478,0,0,1,6.107-14.36m3.351,5.123A4.744,4.744,0,0,0,55.64,104.6l.088.082a4.739,4.739,0,1,0,6.7-6.7Z" transform="translate(-31.659 -44.944)" fill="#fb4a0f" fill-rule="evenodd"/><path d="M246.9,49.4a1.871,1.871,0,0,1,2.646-2.646l4.131,4.131,7.624-7.935a1.866,1.866,0,0,1,2.69,2.588l-8.851,9.212-.117.128a1.872,1.872,0,0,1-2.646,0Z" transform="translate(-154.143 -26.515)" fill="#3a525e" fill-rule="evenodd"/><path d="M108.073,70.524a1.871,1.871,0,0,1,2.646-2.646l3.679,3.68,3.68-3.68a1.871,1.871,0,1,1,2.646,2.646l-3.68,3.68,3.68,3.679a1.871,1.871,0,1,1-2.646,2.646L114.4,76.85l-3.679,3.679a1.871,1.871,0,0,1-2.646-2.646l3.679-3.679Zm-23.117-29.6A1.871,1.871,0,0,1,87.6,38.276l3.679,3.68,3.68-3.68a1.871,1.871,0,0,1,2.646,2.646l-3.68,3.68,3.68,3.679a1.871,1.871,0,0,1-2.646,2.646l-3.68-3.679L87.6,50.927a1.871,1.871,0,0,1-2.646-2.646L88.636,44.6ZM61.219,32.471a1.871,1.871,0,0,1,2.646-2.646l3.679,3.68,3.679-3.68a1.871,1.871,0,0,1,2.646,2.646l-3.679,3.68,3.679,3.679a1.871,1.871,0,0,1-2.646,2.646L67.545,38.8l-3.679,3.679a1.871,1.871,0,0,1-2.646-2.646L64.9,36.15ZM40.58,46.318a1.871,1.871,0,0,1,2.646-2.646l3.679,3.679,3.68-3.679a1.871,1.871,0,0,1,2.646,2.646L49.552,50l3.68,3.68a1.871,1.871,0,1,1-2.646,2.646l-3.68-3.679-3.679,3.679a1.871,1.871,0,0,1-2.646-2.646L44.26,50ZM71,75.046A1.871,1.871,0,0,1,73.643,72.4l3.68,3.68L81,72.4a1.871,1.871,0,0,1,2.646,2.646l-3.679,3.68,3.679,3.68A1.871,1.871,0,0,1,81,85.052l-3.679-3.68-3.68,3.68A1.871,1.871,0,0,1,71,82.406l3.68-3.68Z" transform="translate(-25.049 -18.319)" fill="#3a525e" fill-rule="evenodd"/></g></svg>